<?xml version="1.0" standalone="no"?>
<!DOCTYPE svg PUBLIC "-//W3C//DTD SVG 20010904//EN"
 "http://www.w3.org/TR/2001/REC-SVG-20010904/DTD/svg10.dtd">
<svg version="1.0" xmlns="http://www.w3.org/2000/svg"
 width="512.000000pt" height="512.000000pt" viewBox="0 0 512.000000 512.000000"
 preserveAspectRatio="xMidYMid meet">

<g transform="translate(0.000000,512.000000) scale(0.100000,-0.100000)"
fill="#000000" stroke="none">
<path d="M1445 5108 c-44 -16 -90 -53 -115 -93 l-22 -35 -426 0 c-427 0 -427
0 -477 -24 -65 -30 -131 -104 -150 -169 -13 -44 -15 -314 -15 -2133 0 -2074 0
-2084 20 -2138 25 -66 85 -130 148 -159 l47 -22 1195 -3 1195 -2 55 -55 c86
-84 154 -104 235 -66 22 10 55 34 74 54 l33 35 44 -16 c43 -16 44 -17 44 -62
0 -98 40 -167 115 -201 34 -16 67 -19 225 -19 158 0 191 3 225 19 74 33 115
104 115 197 0 40 2 42 46 59 l46 17 36 -35 c66 -64 138 -82 210 -52 49 21 288
257 313 310 34 73 15 158 -49 218 l-30 29 20 49 c19 46 23 49 57 49 88 0 160
43 192 115 16 34 19 67 19 223 0 143 -3 191 -15 220 -31 73 -81 108 -171 120
-55 7 -56 8 -76 55 l-21 48 31 32 c61 63 77 140 43 212 -25 53 -264 289 -313
310 -70 29 -144 12 -205 -47 l-32 -31 -48 21 c-47 20 -48 21 -55 76 -9 67 -27
105 -68 139 l-30 26 0 436 0 436 -25 24 c-13 14 -36 25 -50 25 -14 0 -37 -11
-50 -25 l-25 -24 0 -426 0 -425 -95 0 -94 0 -3 1053 -3 1052 -25 43 c-14 26
-42 54 -66 68 -41 24 -43 24 -332 24 l-292 0 0 95 0 95 408 0 c391 0 408 -1
440 -20 63 -39 62 -29 62 -674 0 -555 1 -585 19 -607 13 -17 29 -23 56 -23 27
0 43 6 56 23 18 22 19 52 19 620 0 671 2 652 -73 737 -23 26 -63 57 -92 70
-50 24 -50 24 -476 24 l-426 0 -27 40 c-14 22 -45 52 -68 67 l-42 28 -615 2
c-415 1 -626 -2 -646 -9z m1235 -158 c19 -19 20 -33 20 -218 0 -163 -3 -201
-16 -220 l-15 -22 -594 0 -594 0 -15 22 c-13 19 -16 57 -16 220 0 185 1 199
20 218 20 20 33 20 605 20 572 0 585 0 605 -20z m-1380 -215 l0 -95 -293 0
-293 0 -41 -27 c-23 -14 -51 -43 -62 -63 -21 -38 -21 -41 -21 -1084 0 -1033 0
-1046 20 -1066 25 -25 71 -26 101 -1 l24 19 5 1034 5 1033 281 3 281 2 12 -29
c7 -15 27 -42 44 -59 66 -64 46 -62 712 -62 666 0 646 -2 712 62 17 17 37 44
44 59 l12 29 281 -2 281 -3 3 -1059 2 -1058 -29 -34 c-33 -37 -51 -89 -51
-145 0 -34 -3 -38 -49 -57 l-49 -20 -29 30 c-35 38 -98 68 -143 68 -63 0 -111
-34 -247 -171 -109 -111 -133 -142 -143 -178 -6 -25 -9 -57 -6 -73 l5 -28
-270 0 c-297 0 -332 -6 -345 -54 -11 -44 4 -76 41 -92 27 -11 98 -14 345 -14
170 0 310 -2 310 -5 0 -2 -5 -16 -12 -30 -9 -21 -18 -25 -52 -25 -64 0 -114
-18 -155 -56 l-38 -34 -199 0 c-189 0 -199 -1 -221 -22 -31 -29 -30 -72 2
-103 24 -25 26 -25 210 -25 l185 0 0 -142 c0 -117 4 -150 19 -183 34 -76 103
-115 204 -115 40 0 47 -3 47 -20 0 -20 -7 -20 -988 -20 -755 0 -991 3 -1000
12 -9 9 -12 167 -12 649 l0 638 -23 27 c-28 33 -76 37 -107 9 -20 -18 -20 -26
-18 -695 l3 -677 28 -36 c59 -77 -24 -72 1073 -75 l982 -2 -10 -40 c-10 -38
-4 -82 17 -133 7 -16 -46 -17 -1098 -15 -1100 3 -1106 3 -1134 24 -15 11 -36
36 -45 55 -17 32 -18 153 -18 2097 0 2270 -5 2111 62 2152 32 19 49 20 441 20
l407 0 0 -95z m2550 -2504 c5 -11 10 -51 10 -89 0 -79 15 -100 85 -122 22 -7
69 -26 104 -41 35 -16 72 -29 82 -29 11 0 46 25 79 55 33 30 65 55 72 55 16 0
248 -232 248 -248 0 -7 -25 -39 -55 -72 -30 -33 -55 -69 -55 -80 0 -12 8 -37
19 -58 10 -20 31 -71 45 -112 15 -41 34 -81 43 -87 10 -8 47 -13 89 -13 105 0
104 2 104 -190 0 -193 2 -190 -109 -190 -84 0 -101 -9 -116 -60 -4 -14 -25
-64 -46 -111 -25 -55 -37 -94 -32 -105 3 -11 30 -45 60 -76 29 -31 53 -62 53
-69 0 -17 -232 -249 -248 -249 -7 0 -42 27 -77 60 -72 67 -87 70 -155 39 -25
-12 -69 -30 -99 -40 -85 -30 -91 -39 -91 -135 0 -117 4 -114 -190 -114 -194 0
-190 -2 -190 111 0 44 -4 89 -10 99 -5 10 -27 24 -47 31 -21 6 -71 27 -112 46
-48 21 -82 31 -95 27 -12 -4 -49 -33 -83 -65 -34 -33 -67 -59 -74 -59 -17 0
-249 232 -249 248 0 7 29 44 65 82 36 38 65 76 65 85 0 9 -10 34 -21 57 -12
23 -32 71 -46 107 -13 36 -31 72 -40 79 -10 7 -49 12 -99 12 -117 0 -114 -4
-114 190 0 194 -3 190 114 190 97 0 105 6 135 91 10 30 28 74 40 97 33 65 28
85 -39 157 -33 35 -60 70 -60 76 0 17 219 237 243 245 14 5 34 -8 76 -49 31
-30 64 -57 75 -61 11 -4 51 9 105 33 47 21 97 42 111 46 51 15 60 32 60 116 0
111 -4 109 195 109 152 0 165 -1 175 -19z"/>
<path d="M1801 4163 c-11 -10 -47 -51 -79 -91 l-59 -73 -285 -2 -284 -2 -41
-27 c-24 -16 -49 -44 -62 -70 -20 -42 -21 -60 -21 -304 0 -230 3 -263 19 -299
22 -48 44 -69 94 -90 29 -12 84 -15 294 -15 298 0 320 5 370 81 l28 43 1 293
2 293 58 72 c95 115 103 140 59 183 -28 29 -64 32 -94 8z m-271 -319 c0 -4
-34 -49 -76 -100 l-77 -94 -43 40 c-51 47 -94 53 -131 18 -44 -41 -33 -73 60
-160 45 -43 92 -81 104 -84 36 -10 67 16 164 136 l94 115 3 -174 c2 -119 -1
-178 -9 -187 -16 -19 -468 -21 -487 -2 -17 17 -17 469 0 486 13 13 398 18 398
6z"/>
<path d="M2055 3795 c-32 -31 -33 -74 -2 -103 l23 -22 535 0 c525 0 536 0 557
20 32 30 30 82 -4 109 -26 21 -36 21 -556 21 l-529 0 -24 -25z"/>
<path d="M2073 3510 c-44 -18 -57 -86 -23 -120 20 -20 33 -20 560 -20 527 0
540 0 560 20 27 27 26 81 -1 106 -20 18 -45 19 -548 21 -291 1 -536 -2 -548
-7z"/>
<path d="M1748 3109 c-29 -34 -64 -75 -78 -91 l-25 -29 -268 1 c-304 1 -329
-4 -383 -76 l-29 -37 0 -292 0 -292 29 -37 c53 -71 77 -76 366 -76 226 0 260
3 295 19 50 22 91 69 105 119 12 45 13 485 1 528 -8 29 -4 38 70 128 86 107
94 132 54 171 -42 43 -76 34 -137 -36z m-239 -288 c-8 -10 -43 -55 -79 -100
l-65 -80 -35 33 c-46 45 -74 58 -105 50 -33 -8 -55 -40 -55 -79 0 -24 14 -43
78 -103 86 -82 111 -96 146 -82 13 5 65 60 116 122 51 62 96 115 101 116 13 5
11 -325 -1 -349 -10 -18 -24 -19 -240 -19 -125 0 -235 3 -244 6 -14 5 -16 37
-16 249 0 185 3 245 13 248 6 3 99 6 206 6 188 1 193 1 180 -18z"/>
<path d="M2095 2745 c-30 -30 -32 -64 -4 -99 l20 -26 520 0 c506 0 520 1 539
20 30 30 27 83 -6 109 -26 21 -36 21 -536 21 l-509 0 -24 -25z"/>
<path d="M2115 2459 c-48 -27 -60 -84 -25 -119 19 -19 33 -20 540 -20 507 0
521 1 540 20 27 27 26 81 -1 106 -20 18 -45 19 -528 21 -356 2 -512 -1 -526
-8z"/>
<path d="M1802 2123 c-7 -2 -44 -43 -83 -90 l-70 -86 -260 2 c-270 2 -305 -2
-362 -41 -15 -11 -36 -37 -47 -58 -18 -36 -20 -60 -20 -304 0 -163 4 -276 11
-293 5 -15 22 -41 37 -57 50 -53 68 -56 360 -56 l268 0 45 29 c79 50 84 68 87
352 2 136 -1 262 -6 280 -8 32 -5 38 61 119 38 47 74 95 80 107 24 54 -44 119
-101 96z m-282 -329 c0 -3 -34 -48 -76 -99 -84 -103 -84 -103 -138 -46 -54 57
-136 31 -136 -42 0 -29 11 -45 78 -109 42 -41 87 -78 100 -82 41 -13 75 13
172 132 l95 117 3 -168 c1 -105 -1 -175 -8 -187 -10 -20 -20 -20 -253 -18
l-242 3 -3 240 c-2 217 -1 241 15 252 12 9 70 13 205 13 103 0 188 -3 188 -6z"/>
<path d="M3561 1624 c-218 -58 -361 -275 -324 -490 33 -190 177 -334 367 -367
230 -39 457 126 498 361 53 310 -239 577 -541 496z m233 -165 c26 -12 66 -43
90 -69 129 -144 84 -360 -94 -451 -66 -34 -176 -33 -245 3 -105 55 -160 146
-159 263 0 55 6 81 27 121 33 64 101 126 164 147 61 22 155 16 217 -14z"/>
</g>
</svg>
