<svg xmlns="http://www.w3.org/2000/svg" width="140" height="40" viewBox="0 0 200 41"><title>logo</title><g fill="none" fill-rule="evenodd"><path d="M20.016 34.108L8.557 23.403c-1.631-1.51-1.909-2.862-1.909-3.582 0-.556.16-1.788 1.511-3.144L18.708 6.252h6.484l-12.02 11.421c-.913.877-1.47 1.551-1.47 2.148 0 .875.996 1.834 1.79 2.547l13.172 11.74h-6.648zM0 34.108h5.253V6.252H0v27.856z" fill="#5E7074"></path><path d="M32.9 24.559c-.318 0-1.194.037-1.713.715-.158.2-.516.755-.516 2.27 0 .635.083 1.75.638 2.347.318.315.913.636 1.514.636h7.48c.276 0 .715 0 1.034-.239.32-.277.32-.556.32-.876v-4.853H32.9zm7.48-11.541c1.793 0 3.423.637 4.38 1.632.875.915 1.55 2.625 1.55 4.972v10.947c0 .759-.077 1.952-.836 2.702-.752.76-1.907.837-2.904.837H31.508c-1.158 0-2.626 0-3.823-1.032-1.71-1.474-1.829-4.18-1.829-5.732 0-1.87.201-3.74 1.792-5.134 1.313-1.153 2.743-1.231 3.86-1.231h10.15v-1.475c0-.64-.081-1.35-.6-1.991-.638-.795-1.553-.915-2.268-.915H27.405v-3.58h12.976zm15.28 1.51c.556-1.233 1.829-1.747 3.103-1.747 1.275 0 2.546.514 3.107 1.747l8.554 19.58H65.65l-6.486-16.274c-.081-.202-.205-.6-.4-.6-.199 0-.322.398-.399.6L51.88 34.108h-4.774l8.555-19.58zm30.41 19.58l-7.682-8.395c-.48-.518-1.196-1.394-1.196-2.467 0-1.076.875-2.069 1.472-2.746l6.728-7.483h5.532l-8 8.519c-.358.357-.996 1.034-.996 1.71 0 .436.437 1.153.757 1.471l8.997 9.391H86.07zm-14.447 0h4.655v-21.09h-4.655v21.09zm31.563 6.767h-4.738l3.228-6.844-9.393-21.014h4.935l6.721 15.997 7.128-15.997h4.733zm15.802-26.347c.555-1.233 1.83-1.747 3.104-1.747 1.272 0 2.548.514 3.103 1.747l8.558 19.58h-4.777l-6.485-16.274c-.079-.202-.2-.6-.399-.6-.198 0-.32.398-.396.6l-6.49 16.274h-4.777l8.559-19.58zm16.047 15.999h8.276c2.351 0 4.178-.595 5.019-2.226.437-.838.635-2.31.635-3.425H135.59v-3.58h13.335c.041-.998-.278-2.348-.955-3.185-1.192-1.393-3.421-1.512-4.578-1.512h-8.079v-3.582h10.429c3.304 0 5.055 1.235 5.968 2.269 1.354 1.55 2.03 3.98 2.03 7.88 0 4.138-.638 6.686-1.87 8.318-1.788 2.309-4.456 2.624-7.321 2.624h-9.513v-3.58zm51.509 3.581v-17.51h-7.925v-3.58h20.5v3.58h-7.924v17.51zm-14.175 0l.161-15.004c0-.314.078-.554-.24-.554-.08 0-.24.078-.556.554l-9.276 13.573c-.754 1.116-1.431 1.673-3.022 1.673-2.75 0-3.067-1.872-3.067-2.986V13.017h4.658l-.2 15.004c0 .357 0 .558.322.558.234 0 .394-.32.555-.558l9.39-13.81c.836-1.194 1.911-1.43 2.867-1.43.635 0 3.065.077 3.065 3.219v18.108h-4.657z" fill="#5E7074"></path><path fill="#F47E20" d="M172.213 0l-7.647 10.724v6.483l7.647-10.593z"></path></g></svg>