<svg xmlns="http://www.w3.org/2000/svg" xmlns:xlink="http://www.w3.org/1999/xlink" width="30px" height="30px" viewBox="0 0 30 30" version="1.1">
<g id="surface1">
<path style=" stroke:none;fill-rule:nonzero;fill:#3fd2c7;fill-opacity:1;" d="M 20.125 16.699219 L 19.464844 16.035156 Z M 20.695312 16.132812 L 21.355469 16.796875 Z M 23.714844 15.738281 L 23.269531 16.558594 Z M 26.105469 17.035156 L 25.65625 17.859375 Z M 26.777344 21.105469 L 27.4375 21.769531 Z M 25 22.871094 L 24.339844 22.203125 Z M 23.34375 23.707031 L 23.433594 24.640625 Z M 11.019531 18.410156 L 11.679688 17.742188 Z M 5.003906 7.183594 L 4.066406 7.234375 Z M 13.097656 8.996094 L 13.757812 9.660156 Z M 13.292969 5.679688 L 14.042969 5.117188 Z M 11.714844 3.574219 L 10.964844 4.136719 Z M 7.828125 3.21875 L 8.488281 3.882812 Z M 5.863281 5.167969 L 5.203125 4.503906 Z M 15.078125 14.371094 L 15.738281 13.707031 Z M 20.785156 17.363281 L 21.355469 16.796875 L 20.035156 15.46875 L 19.464844 16.035156 Z M 23.269531 16.558594 L 25.65625 17.859375 L 26.550781 16.210938 L 24.164062 14.914062 Z M 26.117188 20.4375 L 24.339844 22.203125 L 25.664062 23.535156 L 27.4375 21.769531 Z M 23.257812 22.773438 C 21.445312 22.941406 16.757812 22.792969 11.679688 17.742188 L 10.359375 19.074219 C 15.898438 24.582031 21.171875 24.851562 23.433594 24.640625 Z M 11.679688 17.742188 C 6.839844 12.929688 6.039062 8.882812 5.941406 7.128906 L 4.066406 7.234375 C 4.191406 9.445312 5.1875 13.929688 10.359375 19.074219 Z M 13.398438 10.019531 L 13.757812 9.660156 L 12.4375 8.332031 L 12.078125 8.6875 Z M 14.042969 5.117188 L 12.46875 3.011719 L 10.964844 4.136719 L 12.542969 6.242188 Z M 7.164062 2.554688 L 5.203125 4.503906 L 6.527344 5.835938 L 8.488281 3.882812 Z M 12.738281 9.351562 C 12.078125 8.6875 12.078125 8.6875 12.074219 8.691406 C 12.074219 8.691406 12.070312 8.695312 12.070312 8.695312 C 12.066406 8.699219 12.066406 8.699219 12.0625 8.703125 C 12.058594 8.710938 12.050781 8.714844 12.046875 8.722656 C 12.03125 8.734375 12.019531 8.75 12.003906 8.765625 C 11.976562 8.800781 11.945312 8.84375 11.910156 8.890625 C 11.84375 8.992188 11.769531 9.125 11.707031 9.289062 C 11.578125 9.628906 11.511719 10.074219 11.597656 10.628906 C 11.765625 11.710938 12.507812 13.140625 14.417969 15.035156 L 15.738281 13.707031 C 13.953125 11.929688 13.527344 10.851562 13.449219 10.339844 C 13.414062 10.097656 13.453125 9.980469 13.460938 9.953125 C 13.46875 9.933594 13.472656 9.933594 13.464844 9.945312 C 13.460938 9.949219 13.453125 9.960938 13.441406 9.972656 C 13.4375 9.976562 13.429688 9.984375 13.425781 9.992188 C 13.421875 9.996094 13.417969 10 13.414062 10.003906 C 13.410156 10.007812 13.410156 10.007812 13.40625 10.011719 C 13.40625 10.011719 13.402344 10.011719 13.402344 10.015625 C 13.398438 10.015625 13.398438 10.019531 12.738281 9.351562 Z M 14.417969 15.035156 C 16.328125 16.933594 17.761719 17.671875 18.84375 17.839844 C 19.398438 17.925781 19.84375 17.855469 20.183594 17.730469 C 20.351562 17.667969 20.480469 17.59375 20.582031 17.527344 C 20.632812 17.496094 20.675781 17.464844 20.707031 17.433594 C 20.726562 17.421875 20.738281 17.40625 20.753906 17.394531 C 20.757812 17.390625 20.765625 17.382812 20.769531 17.378906 C 20.773438 17.375 20.777344 17.375 20.78125 17.371094 C 20.78125 17.371094 20.78125 17.367188 20.785156 17.367188 C 20.785156 17.363281 20.785156 17.363281 20.125 16.699219 C 19.464844 16.035156 19.464844 16.03125 19.464844 16.03125 C 19.46875 16.03125 19.46875 16.03125 19.46875 16.03125 C 19.46875 16.03125 19.46875 16.027344 19.472656 16.027344 C 19.472656 16.023438 19.476562 16.023438 19.476562 16.019531 C 19.484375 16.015625 19.488281 16.011719 19.492188 16.007812 C 19.5 16.003906 19.503906 15.996094 19.511719 15.992188 C 19.523438 15.980469 19.53125 15.972656 19.539062 15.96875 C 19.550781 15.960938 19.546875 15.964844 19.53125 15.972656 C 19.5 15.984375 19.375 16.023438 19.128906 15.984375 C 18.613281 15.90625 17.523438 15.480469 15.738281 13.707031 Z M 12.46875 3.011719 C 11.191406 1.308594 8.6875 1.039062 7.164062 2.554688 L 8.488281 3.882812 C 9.152344 3.222656 10.332031 3.289062 10.964844 4.136719 Z M 5.941406 7.128906 C 5.914062 6.695312 6.113281 6.246094 6.527344 5.835938 L 5.203125 4.503906 C 4.53125 5.171875 4.003906 6.117188 4.066406 7.234375 Z M 24.339844 22.203125 C 23.996094 22.546875 23.628906 22.738281 23.257812 22.773438 L 23.433594 24.640625 C 24.351562 24.554688 25.101562 24.089844 25.664062 23.535156 Z M 13.757812 9.660156 C 14.988281 8.4375 15.078125 6.503906 14.042969 5.117188 L 12.542969 6.242188 C 13.046875 6.914062 12.972656 7.800781 12.4375 8.332031 Z M 25.65625 17.859375 C 26.679688 18.414062 26.835938 19.722656 26.117188 20.4375 L 27.4375 21.769531 C 29.113281 20.101562 28.597656 17.324219 26.550781 16.210938 Z M 21.355469 16.796875 C 21.835938 16.320312 22.609375 16.203125 23.269531 16.558594 L 24.164062 14.914062 C 22.808594 14.175781 21.128906 14.378906 20.035156 15.46875 Z M 21.355469 16.796875 "/>
</g>
</svg>