<?xml version="1.0" standalone="no"?>
<!DOCTYPE svg PUBLIC "-//W3C//DTD SVG 20010904//EN"
 "http://www.w3.org/TR/2001/REC-SVG-20010904/DTD/svg10.dtd">
<svg version="1.0" xmlns="http://www.w3.org/2000/svg"
 width="512.000000pt" height="512.000000pt" viewBox="0 0 512.000000 512.000000"
 preserveAspectRatio="xMidYMid meet">

<g transform="translate(0.000000,512.000000) scale(0.100000,-0.100000)"
fill="#000000" stroke="none">
<path d="M646 5100 c-67 -26 -131 -91 -156 -158 -19 -51 -20 -79 -20 -896 0
-838 0 -843 21 -870 27 -34 77 -36 107 -3 l22 23 0 835 c0 932 -4 885 70 921
33 17 143 18 1865 18 1722 0 1832 -1 1865 -18 20 -10 42 -32 52 -52 17 -33 18
-166 18 -2340 0 -2174 -1 -2307 -18 -2340 -10 -20 -32 -42 -52 -52 -33 -17
-143 -18 -1865 -18 -1722 0 -1832 1 -1865 18 -20 10 -42 32 -52 52 -17 33 -18
119 -18 1361 l0 1326 -23 21 c-33 31 -80 29 -106 -4 l-21 -27 0 -1332 c0
-1513 -7 -1389 84 -1481 93 -92 -98 -84 2001 -84 2099 0 1908 -8 2001 84 93
93 84 -159 84 2476 0 2610 7 2376 -76 2469 -32 35 -61 56 -100 70 -55 21 -62
21 -1912 21 -1809 -1 -1858 -1 -1906 -20z"/>
<path d="M2314 4659 c-66 -19 -124 -108 -124 -192 0 -17 -10 -28 -36 -41 -36
-17 -37 -17 -63 7 -50 46 -80 60 -134 60 -29 0 -64 -6 -77 -13 -34 -17 -258
-238 -276 -272 -8 -15 -14 -51 -14 -81 0 -51 16 -87 74 -163 6 -7 5 -23 -4
-43 -11 -27 -18 -31 -49 -31 -91 0 -166 -51 -189 -129 -16 -50 -16 -322 0
-373 21 -72 107 -128 198 -128 31 0 37 -4 48 -32 11 -30 10 -34 -17 -63 -58
-60 -77 -142 -50 -211 13 -37 233 -259 275 -279 36 -17 110 -20 148 -5 14 5
42 25 64 44 36 33 41 35 70 24 27 -11 32 -17 32 -46 0 -99 53 -179 134 -202
28 -8 100 -11 207 -8 151 3 167 5 201 26 51 32 79 81 85 152 6 57 7 60 40 71
30 10 37 8 56 -9 66 -60 162 -81 225 -48 48 25 270 258 277 291 4 17 9 36 11
43 8 28 -19 102 -52 141 -34 40 -34 40 -18 74 15 31 22 35 63 39 66 7 119 35
149 81 26 39 27 45 30 219 3 167 2 181 -18 224 -28 57 -78 91 -150 101 -51 8
-55 11 -68 45 -14 35 -13 38 16 75 51 64 60 143 24 208 -6 11 -66 75 -134 142
-99 97 -131 123 -165 132 -55 15 -114 0 -166 -41 -37 -29 -40 -30 -75 -16 -34
13 -37 17 -45 68 -10 71 -44 122 -99 149 -40 19 -61 21 -209 20 -90 0 -178 -5
-195 -10z m344 -151 c7 -7 12 -40 12 -78 0 -76 16 -98 85 -120 22 -7 61 -23
87 -36 71 -36 100 -32 157 21 26 25 54 45 62 45 18 0 209 -191 209 -209 0 -8
-20 -36 -45 -62 -53 -57 -57 -86 -21 -157 13 -26 31 -71 40 -100 10 -29 26
-57 36 -62 10 -6 47 -10 82 -10 37 0 69 -5 76 -12 8 -8 12 -57 12 -155 0 -166
2 -163 -104 -163 -58 0 -67 -3 -85 -26 -12 -15 -21 -31 -21 -37 0 -5 -16 -48
-36 -94 -42 -97 -39 -114 27 -179 21 -21 39 -45 39 -53 0 -20 -190 -211 -209
-211 -8 0 -38 23 -67 50 -58 55 -90 63 -146 34 -17 -9 -56 -25 -86 -35 -85
-29 -92 -39 -92 -129 0 -46 -5 -81 -12 -88 -8 -8 -57 -12 -155 -12 -167 0
-163 -2 -163 107 0 40 -5 76 -12 85 -14 17 -175 87 -219 95 -21 4 -38 -6 -86
-51 -33 -31 -67 -56 -74 -56 -18 0 -209 191 -209 209 0 8 25 41 56 73 47 49
55 63 51 86 -8 44 -78 206 -95 220 -9 7 -45 12 -88 12 -104 0 -104 1 -104 169
0 93 4 141 12 149 7 7 42 12 88 12 90 0 100 7 129 92 10 30 26 69 35 86 29 56
21 88 -34 146 -27 29 -50 59 -50 67 0 18 191 209 209 209 8 0 35 -20 62 -45
62 -58 84 -63 145 -32 27 13 72 32 99 42 79 29 85 37 85 120 0 42 5 76 12 83
8 8 57 12 153 12 96 0 145 -4 153 -12z"/>
<path d="M2369 4155 c-285 -72 -478 -336 -456 -624 19 -245 179 -442 427 -527
82 -28 262 -26 350 5 470 164 556 780 148 1058 -43 29 -107 62 -145 74 -87 27
-245 34 -324 14z m246 -150 c84 -22 147 -60 209 -125 61 -64 90 -114 111 -197
41 -157 -9 -320 -133 -433 -176 -163 -436 -156 -608 15 -136 135 -170 333 -87
505 31 65 131 168 191 199 98 50 213 63 317 36z"/>
<path d="M1073 2235 c-63 -27 -73 -59 -73 -246 0 -156 1 -168 23 -200 13 -19
38 -39 57 -46 50 -17 2780 -17 2830 0 19 7 44 27 57 46 22 32 23 44 23 200 0
188 -10 219 -75 247 -51 21 -2793 21 -2842 -1z m2767 -245 l0 -110 -1342 2
-1343 3 -3 108 -3 107 1346 0 1345 0 0 -110z"/>
<path d="M1080 1577 c-19 -7 -44 -27 -57 -46 -22 -32 -23 -44 -23 -200 0 -188
10 -219 75 -247 52 -21 2088 -21 2140 0 65 28 75 59 75 247 0 156 -1 168 -23
200 -13 19 -38 39 -57 46 -50 17 -2080 17 -2130 0z m2060 -247 l0 -110 -995 0
-995 0 0 110 0 110 995 0 995 0 0 -110z"/>
<path d="M1101 933 c-14 -3 -35 -12 -48 -20 -46 -31 -53 -60 -53 -235 0 -185
10 -216 75 -244 52 -21 2918 -21 2970 0 65 27 75 60 75 239 0 175 -8 210 -56
242 -28 19 -51 20 -765 20 -711 0 -738 -1 -758 -19 -29 -26 -29 -86 0 -112 20
-18 49 -19 725 -22 l704 -3 0 -104 0 -105 -1410 0 -1410 0 0 105 0 104 539 3
c514 3 540 4 560 22 29 26 29 86 0 112 -20 18 -45 19 -573 20 -303 1 -562 -1
-575 -3z"/>
</g>
</svg>
