<?xml version="1.0" encoding="UTF-8"?>
<svg xmlns="http://www.w3.org/2000/svg" xmlns:xlink="http://www.w3.org/1999/xlink" width="30px" height="30px" viewBox="0 0 30 30" version="1.1">
<g id="surface1">
<path style=" stroke:none;fill-rule:nonzero;fill:rgb(0%,0%,0%);fill-opacity:1;" d="M 7.417969 13.691406 L 11.949219 19.339844 L 26.03125 1.527344 C 27.738281 -0.667969 30.734375 1.808594 29.097656 4.003906 L 13.378906 24.84375 C 12.648438 25.820312 11.390625 25.785156 10.660156 24.878906 L 3.933594 16.375 C 2.226562 14.179688 5.5 11.289062 7.417969 13.691406 Z M 4.109375 6.6875 L 19.476562 6.6875 C 19.894531 6.6875 20.28125 6.722656 20.664062 6.863281 L 20.246094 7.382812 C 20 7.3125 19.757812 7.28125 19.476562 7.28125 L 4.109375 7.28125 C 2.402344 7.28125 1.007812 8.640625 1.007812 10.347656 L 1.007812 25.648438 C 1.007812 27.320312 2.402344 28.714844 4.109375 28.714844 L 19.476562 28.714844 C 21.1875 28.714844 22.578125 27.320312 22.578125 25.648438 L 22.578125 14.179688 L 23.171875 13.378906 L 23.171875 25.648438 C 23.171875 27.667969 21.5 29.304688 19.476562 29.304688 L 4.109375 29.304688 C 2.085938 29.304688 0.414062 27.667969 0.414062 25.648438 L 0.414062 10.347656 C 0.414062 8.324219 2.085938 6.6875 4.109375 6.6875 Z M 6.792969 14.179688 C 5.535156 12.613281 3.515625 14.53125 4.5625 15.886719 L 11.289062 24.359375 C 11.707031 24.878906 12.332031 24.914062 12.71875 24.390625 L 28.433594 3.515625 C 29.480469 2.15625 27.738281 0.65625 26.65625 2.015625 L 11.949219 20.628906 Z M 6.792969 14.179688 "/>
<path style=" stroke:none;fill-rule:nonzero;fill:rgb(0%,0%,0%);fill-opacity:1;" d="M 7.417969 13.691406 L 11.949219 19.339844 L 26.03125 1.527344 C 27.738281 -0.667969 30.734375 1.808594 29.097656 4.003906 L 13.378906 24.84375 C 12.648438 25.820312 11.390625 25.785156 10.660156 24.878906 L 3.933594 16.375 C 2.226562 14.179688 5.5 11.289062 7.417969 13.691406 Z M 4.109375 6.6875 L 19.476562 6.6875 C 19.894531 6.6875 20.28125 6.722656 20.664062 6.863281 L 20.246094 7.382812 C 20 7.3125 19.757812 7.28125 19.476562 7.28125 L 4.109375 7.28125 C 2.402344 7.28125 1.007812 8.640625 1.007812 10.347656 L 1.007812 25.648438 C 1.007812 27.320312 2.402344 28.714844 4.109375 28.714844 L 19.476562 28.714844 C 21.1875 28.714844 22.578125 27.320312 22.578125 25.648438 L 22.578125 14.179688 L 23.171875 13.378906 L 23.171875 25.648438 C 23.171875 27.667969 21.5 29.304688 19.476562 29.304688 L 4.109375 29.304688 C 2.085938 29.304688 0.414062 27.667969 0.414062 25.648438 L 0.414062 10.347656 C 0.414062 8.324219 2.085938 6.6875 4.109375 6.6875 Z M 6.792969 14.179688 C 5.535156 12.613281 3.515625 14.53125 4.5625 15.886719 L 11.289062 24.359375 C 11.707031 24.878906 12.332031 24.914062 12.71875 24.390625 L 28.433594 3.515625 C 29.480469 2.15625 27.738281 0.65625 26.65625 2.015625 L 11.949219 20.628906 Z M 6.792969 14.179688 "/>
</g>
</svg>
