<svg xmlns="http://www.w3.org/2000/svg" xmlns:xlink="http://www.w3.org/1999/xlink" version="1.1" x="0px" y="0px" viewBox="0 0 705.57 94.74" style="enable-background:new 0 0 705.57 94.74;" xml:space="preserve" width="145" height="40">
<style type="text/css">
	.st0{fill:#1D1D1B;}
</style>
<g id="Слой_1">
</g>
<g id="Слой_2">
	<g>
		<g>
			<g>
				<g>
					<path class="st0" d="M42.19,4.24c1.57,0,2.72-1.32,3.14-3.71h0.41l1.9,22.85h-0.41C43.84,7.13,34.52,1.03,27.92,1.03       c-11.38,0-17.9,11.88-17.9,30.61c0,19.3,8.09,29.86,18.56,29.86s16.91-8.91,17.9-20.21c0.08-1.24,0.74-1.73,1.24-1.73       c0.91,0,1.32,0.66,1.32,1.4c-0.33,12.21-10.06,21.37-21.7,21.37c-16.66,0-27.06-12.7-27.06-29.62       c0-16.42,8.91-32.26,26.73-32.26C33.7,0.45,39.06,4.24,42.19,4.24z"></path>
					<path class="st0" d="M27.34,62.61C11.24,62.61,0,50.31,0,32.71C0,17.03,8.45,0.17,27.01,0.17c4.02,0,7.56,1.35,10.41,2.44       c1.9,0.73,3.54,1.35,4.77,1.35c1.43,0,2.47-1.27,2.86-3.48c0.02-0.14,0.14-0.24,0.28-0.24h0.41c0.15,0,0.27,0.11,0.28,0.26       l1.9,22.85c0.01,0.08-0.02,0.16-0.07,0.22c-0.05,0.06-0.13,0.09-0.21,0.09h-0.41c-0.13,0-0.25-0.09-0.28-0.23       C43.77,8.15,35.1,1.31,27.92,1.31c-11.03,0-17.62,11.34-17.62,30.32c0,17.97,7.17,29.58,18.28,29.58       c9.64,0,16.56-7.83,17.62-19.95c0.09-1.37,0.85-1.99,1.52-1.99c0.96,0,1.6,0.68,1.6,1.69C49,53.1,39.34,62.61,27.34,62.61z        M27.01,0.73C8.84,0.73,0.57,17.31,0.57,32.71c0,17.55,10.76,29.33,26.78,29.33c11.69,0,21.09-9.26,21.41-21.09       c0-0.25-0.08-1.11-1.04-1.11c-0.34,0-0.88,0.39-0.95,1.47c-1.09,12.44-8.23,20.48-18.18,20.48       c-11.45,0-18.85-11.83-18.85-30.15c0-19.19,6.69-30.71,17.92-30.89C27.44,0.74,27.23,0.73,27.01,0.73z M31.6,1.3       c6.28,1.87,12.79,8.54,15.66,20.9L45.5,1.1c-0.51,2.19-1.7,3.43-3.31,3.43c-1.33,0-3.01-0.64-4.97-1.39       C35.57,2.51,33.68,1.78,31.6,1.3z"></path>
				</g>
				<g>
					<path class="st0" d="M81,62.16c-16.75,0-26.98-13.36-26.98-30.85C54.02,13.9,64.25,0.45,81,0.45       c16.83,0,26.98,13.45,26.98,30.85C107.97,48.79,97.83,62.16,81,62.16z M81,0.86c-10.89,0-17.32,12.95-17.32,30.44       c0,17.57,6.44,30.44,17.32,30.44c10.97,0,17.41-12.87,17.41-30.44C98.4,13.81,91.97,0.86,81,0.86z"></path>
					<path class="st0" d="M81,62.44c-16.31,0-27.26-12.51-27.26-31.14C53.74,12.97,64.95,0.17,81,0.17       c16.31,0,27.26,12.51,27.26,31.14S97.3,62.44,81,62.44z M78.31,0.86c-14.27,1.35-24,13.49-24,30.44       c0,17.22,9.51,29.12,23.96,30.45c-9.12-1.9-14.87-13.43-14.87-30.45C63.39,14.54,69.28,2.79,78.31,0.86z M83.77,0.86       C92.92,2.77,98.69,14.3,98.69,31.3c0,17.01-5.77,28.54-14.93,30.44c14.43-1.34,23.93-13.24,23.93-30.44       C107.69,14.1,98.19,2.21,83.77,0.86z M81,1.15c-10.19,0-17.04,12.12-17.04,30.16c0,18.32,6.69,30.16,17.04,30.16       c10.4,0,17.12-11.84,17.12-30.16C98.12,13.26,91.24,1.15,81,1.15z"></path>
				</g>
				<g>
					<path class="st0" d="M114.56,17.28c0-11.63,8.91-16.83,18.89-16.83c9.57,0,11.47,3.88,16,3.88c1.9,0,3.14-2.31,3.38-3.96h0.33       l1.49,21.78h-0.33c-2.97-15.59-12.29-21.28-20.87-21.28c-5.86,0-12.29,4.04-12.29,11.8c0,19.3,36.22,8.83,36.22,31.84       c0,12.46-12.21,17.65-22.27,17.65c-8.66,0-13.12-3.55-17.57-3.55c-2.47,0-3.38,2.31-3.63,3.63h-0.5l-0.91-23.43h0.33       c2.23,16.25,13.28,22.93,22.27,22.93c7.59,0,14.85-4.45,14.85-12.54C149.96,29.9,114.56,40.38,114.56,17.28z"></path>
					<path class="st0" d="M113.91,62.52h-0.5c-0.15,0-0.28-0.12-0.28-0.27l-0.91-23.43c0-0.08,0.03-0.15,0.08-0.21       c0.05-0.06,0.13-0.09,0.2-0.09h0.33c0.14,0,0.26,0.1,0.28,0.25c2.15,15.67,12.59,22.69,21.99,22.69       c7.24,0,14.57-4.21,14.57-12.26c0-9.01-7.92-11.39-16.3-13.91c-9.38-2.82-19.09-5.74-19.09-18.02       c0-12.63,10.33-17.11,19.18-17.11c5.73,0,8.76,1.38,11.19,2.49c1.62,0.74,3.03,1.38,4.82,1.38c1.74,0,2.88-2.22,3.1-3.72       c0.02-0.14,0.14-0.24,0.28-0.24h0.33c0.15,0,0.27,0.12,0.28,0.26l1.49,21.78c0.01,0.08-0.02,0.16-0.08,0.21       c-0.05,0.06-0.13,0.09-0.21,0.09h-0.33c-0.14,0-0.25-0.1-0.28-0.23c-2.51-13.18-10.21-21.05-20.59-21.05       c-5.82,0-12.01,4.04-12.01,11.51c0,9.02,8.12,11.39,16.71,13.91c9.59,2.81,19.51,5.71,19.51,17.94       c0,12.32-11.69,17.94-22.56,17.94c-5.09,0-8.8-1.23-11.77-2.22c-2.14-0.71-3.98-1.32-5.8-1.32c-2.52,0-3.2,2.6-3.35,3.4       C114.16,62.43,114.04,62.52,113.91,62.52z M112.86,40.77l0.82,21.16c0.41-1.79,1.61-3.6,3.85-3.6c1.91,0,3.79,0.63,5.98,1.35       c2.05,0.68,4.45,1.48,7.4,1.9C122.96,59.87,115.21,53.24,112.86,40.77z M130.63,0.88c-8.07,0.85-15.78,5.48-15.78,16.4       c0,11.86,9.5,14.71,18.68,17.47c8.59,2.58,16.71,5.02,16.71,14.45c0,6.95-5.19,11.17-11.24,12.42       c9.31-1.18,18.09-6.65,18.09-17.13c0-11.8-9.71-14.64-19.1-17.39c-8.8-2.58-17.12-5.01-17.12-14.45       C120.88,6.02,125.51,1.97,130.63,0.88z M137.77,1.04c8.06,1.8,14.03,8.74,16.49,19.39L152.95,1.2       c-0.48,1.61-1.69,3.41-3.48,3.41c-1.91,0-3.37-0.66-5.05-1.43C142.73,2.41,140.75,1.51,137.77,1.04z"></path>
				</g>
				<g>
					<path class="st0" d="M168.39,5.15v42.98c0,5.12,0.41,12.62,8.25,12.62v0.33h-17.41v-0.33c8,0,8.66-7.18,8.66-12.37V11.26       c0-5.44,0-9.4-8.66-9.4V1.52h18.07l18.23,46.61l18.4-46.61h16.58v0.33c-7.42,0-8,2.56-8,5.77v47.77c0,3.22,0.58,5.36,8,5.36       v0.33h-25.16v-0.33c6.77,0,7.92-2.14,7.92-5.36V5.15h-0.33l-22.03,55.93h-0.33L168.72,5.15H168.39z"></path>
					<path class="st0" d="M230.51,61.37h-25.16c-0.16,0-0.28-0.13-0.28-0.28v-0.33c0-0.16,0.13-0.28,0.28-0.28       c7.05,0,7.64-2.4,7.64-5.08V5.81l-21.81,55.38c-0.04,0.11-0.15,0.18-0.26,0.18h-0.33c-0.12,0-0.22-0.07-0.26-0.18L168.68,5.81       v42.32c0,6.41,0.96,12.34,7.97,12.34c0.16,0,0.28,0.13,0.28,0.28v0.33c0,0.16-0.13,0.28-0.28,0.28h-17.41       c-0.16,0-0.28-0.13-0.28-0.28v-0.33c0-0.16,0.13-0.28,0.28-0.28c7.38,0,8.38-6.11,8.38-12.09V11.26c0-5.49,0-9.12-8.38-9.12       c-0.16,0-0.28-0.13-0.28-0.28V1.52c0-0.16,0.13-0.28,0.28-0.28h18.07c0.12,0,0.22,0.07,0.26,0.18l17.97,45.94l18.13-45.94       c0.04-0.11,0.15-0.18,0.26-0.18h16.58c0.16,0,0.28,0.13,0.28,0.28v0.33c0,0.16-0.13,0.28-0.28,0.28       c-7.15,0-7.72,2.38-7.72,5.49v47.77c0,3.16,0.52,5.08,7.72,5.08c0.16,0,0.28,0.13,0.28,0.28v0.33       C230.8,61.24,230.67,61.37,230.51,61.37z M208.74,60.8h18.16c-4.28-0.67-4.67-2.72-4.67-5.41V7.63c0-2.74,0.43-5.09,4.9-5.82       h-13l-1.21,3.06c0.01,0,0.02,0,0.03,0h0.33c0.16,0,0.28,0.13,0.28,0.28v50.24C213.56,58.2,212.66,60.15,208.74,60.8z        M161.62,60.8h12.76c-5.22-1.18-6.09-6.56-6.24-10.5C167.92,54.99,166.68,59.71,161.62,60.8z M168.39,4.87h0.33       c0.12,0,0.22,0.07,0.26,0.18l21.76,55.68l4.85-12.32c-0.02,0.01-0.04,0.01-0.07,0.01h0c-0.12,0-0.22-0.07-0.26-0.18L177.11,1.8       h-14.66c4.4,0.74,5.42,3.17,5.66,6.36V5.15C168.11,4.99,168.24,4.87,168.39,4.87z"></path>
				</g>
				<g>
					<path class="st0" d="M258.63,62.16c-16.75,0-26.98-13.36-26.98-30.85c0-17.41,10.23-30.85,26.98-30.85       c16.83,0,26.98,13.45,26.98,30.85C285.6,48.79,275.46,62.16,258.63,62.16z M258.63,0.86c-10.89,0-17.32,12.95-17.32,30.44       c0,17.57,6.43,30.44,17.32,30.44c10.97,0,17.41-12.87,17.41-30.44C276.04,13.81,269.6,0.86,258.63,0.86z"></path>
					<path class="st0" d="M258.63,62.44c-16.31,0-27.26-12.51-27.26-31.14c0-18.33,11.21-31.14,27.26-31.14       c16.3,0,27.26,12.51,27.26,31.14S274.93,62.44,258.63,62.44z M255.94,0.86c-14.27,1.35-24,13.49-24,30.44       c0,17.22,9.51,29.12,23.95,30.45c-9.12-1.9-14.87-13.43-14.87-30.45C241.02,14.54,246.91,2.79,255.94,0.86z M261.4,0.86       c9.15,1.92,14.92,13.44,14.92,30.44c0,17.01-5.77,28.54-14.93,30.44c14.43-1.34,23.93-13.24,23.93-30.44       C285.32,14.1,275.82,2.21,261.4,0.86z M258.63,1.15c-10.19,0-17.04,12.12-17.04,30.16c0,18.32,6.69,30.16,17.04,30.16       c10.4,0,17.12-11.84,17.12-30.16C275.75,13.26,268.87,1.15,258.63,1.15z"></path>
				</g>
				<g>
					<path class="st0" d="M316.75,1.52c11.3,0,19.72,6.44,19.72,16.67c0,10.31-8.41,18.73-21.2,18.73c-3.71,0-7.75-0.74-10.89-2.81       v21.28c0,3.88,1.24,5.36,8.74,5.36v0.33h-25.99v-0.33c7.42,0,8-2.14,8-5.36V7.3c0-3.22-0.58-5.44-8-5.44V1.52L316.75,1.52z        M315.01,2.02h-4.87c-2.48,0-5.77,0.82-5.77,5.28v20.21c0,5.53,2.14,8.83,9.4,8.83c9.08,0,13.28-9.32,13.28-18.15       C327.06,9.52,322.11,2.02,315.01,2.02z"></path>
					<path class="st0" d="M313.12,61.37h-25.99c-0.16,0-0.28-0.13-0.28-0.28v-0.33c0-0.16,0.13-0.28,0.28-0.28       c7.2,0,7.72-1.92,7.72-5.08V7.3c0-3.12-0.54-5.16-7.72-5.16c-0.16,0-0.28-0.13-0.28-0.28V1.52c0-0.16,0.13-0.28,0.28-0.28       h29.62c11.78,0,20,6.97,20,16.95c0,11.02-9.04,19.01-21.49,19.01c-2.94,0-7.11-0.46-10.61-2.57v20.77       c0,3.53,0.8,5.08,8.46,5.08c0.16,0,0.28,0.13,0.28,0.28v0.33C313.4,61.24,313.27,61.37,313.12,61.37z M290.75,60.8h18.21       c-4.1-0.58-4.87-2.28-4.87-5.41V34.11c0-0.1,0.06-0.2,0.15-0.25c0.09-0.05,0.2-0.04,0.29,0.01c1.05,0.69,2.18,1.22,3.33,1.62       c-2.6-1.34-3.77-3.92-3.77-7.98V7.3c0-3.19,1.7-5.11,4.83-5.49h-18.26c4.35,0.69,4.76,2.84,4.76,5.49v48.1       C295.42,58.08,295.02,60.13,290.75,60.8z M314.24,36.61c0.35,0.01,0.69,0.02,1.02,0.02c12.12,0,20.92-7.76,20.92-18.44       c0-9.8-7.81-16.38-19.43-16.38h-0.55c6.34,0.77,11.14,7.69,11.14,16.38C327.34,26.92,323.24,36.3,314.24,36.61z M310.15,2.3       c-2.51,0-5.49,0.87-5.49,5v20.21c0,6.07,2.64,8.54,9.12,8.54c8.93,0,13-9.26,13-17.87c0-8.91-5.17-15.89-11.76-15.89H310.15z"></path>
				</g>
				<g>
					<path class="st0" d="M365.54,39.64h-22.52l-3.05,7.59c-2.23,5.61-2.39,7.18-2.39,7.84c0,2.31,0.41,5.69,7.92,5.69v0.33h-17.49       v-0.33c6.27,0,9.24-7.84,11.38-13.28l18.89-47.19h0.25l22.85,55.77c1.48,3.55,3.38,4.7,7.18,4.7v0.33h-23.1v-0.33       c6.35,0,7.09-1.4,7.09-2.72c0-0.66-0.25-1.4-0.5-2.06L365.54,39.64z M343.19,39.14h22.19l-10.97-28.05L343.19,39.14z"></path>
					<path class="st0" d="M388.56,61.37h-23.1c-0.16,0-0.28-0.13-0.28-0.28v-0.33c0-0.16,0.13-0.28,0.28-0.28       c6.81,0,6.81-1.65,6.81-2.44c0-0.61-0.23-1.3-0.48-1.96l-6.44-16.15h-22.14l-2.98,7.41c-2.37,5.97-2.37,7.3-2.37,7.73       c0,1.89,0,5.41,7.64,5.41c0.16,0,0.28,0.13,0.28,0.28v0.33c0,0.16-0.13,0.28-0.28,0.28h-17.49c-0.16,0-0.28-0.13-0.28-0.28       v-0.33c0-0.16,0.13-0.28,0.28-0.28c5.97,0,8.88-7.4,11.01-12.81l0.12-0.29l18.89-47.19c0.04-0.11,0.15-0.18,0.26-0.18h0.25       c0.12,0,0.22,0.07,0.26,0.18l22.85,55.77c1.42,3.38,3.16,4.53,6.91,4.53c0.16,0,0.28,0.13,0.28,0.28v0.33       C388.84,61.24,388.72,61.37,388.56,61.37z M369.26,60.8h16.75c-2.35-0.51-3.75-1.91-4.89-4.64L358.41,0.73l-4.03,10.08       c0.01,0,0.02-0.01,0.03,0c0.12,0,0.22,0.07,0.26,0.18l10.97,28.05c0.03,0.09,0.02,0.19-0.03,0.26       c-0.01,0.02-0.03,0.04-0.05,0.05c0.11,0.01,0.2,0.08,0.24,0.18l6.52,16.33c0.27,0.72,0.52,1.47,0.52,2.17       C372.84,59.21,372.33,60.33,369.26,60.8z M329.88,60.8h12.5c-4.41-0.77-5.09-3.28-5.09-5.74c0-0.56,0.12-1.55,0.92-3.94       C336.39,55.37,333.92,59.75,329.88,60.8z M342.96,39.31l-0.02,0.05c0.02-0.01,0.04-0.01,0.06-0.01       C342.99,39.34,342.97,39.33,342.96,39.31z M343.6,38.86h21.36l-10.56-27L343.6,38.86z"></path>
				</g>
				<g>
					<path class="st0" d="M427.27,4.24c1.57,0,2.72-1.32,3.14-3.71h0.41l1.9,22.85h-0.41C428.92,7.13,419.6,1.03,413,1.03       c-11.38,0-17.9,11.88-17.9,30.61c0,19.3,8.09,29.86,18.56,29.86c10.48,0,16.91-8.91,17.9-20.21c0.08-1.24,0.74-1.73,1.24-1.73       c0.91,0,1.32,0.66,1.32,1.4c-0.33,12.21-10.06,21.37-21.7,21.37c-16.66,0-27.06-12.7-27.06-29.62       c0-16.42,8.91-32.26,26.73-32.26C418.78,0.45,424.14,4.24,427.27,4.24z"></path>
					<path class="st0" d="M412.43,62.61c-16.1,0-27.34-12.3-27.34-29.9c0-15.67,8.45-32.54,27.01-32.54c4.02,0,7.56,1.35,10.41,2.44       c1.9,0.73,3.54,1.35,4.77,1.35c1.43,0,2.47-1.27,2.86-3.48c0.02-0.14,0.14-0.24,0.28-0.24h0.41c0.15,0,0.27,0.11,0.28,0.26       l1.9,22.85c0.01,0.08-0.02,0.16-0.07,0.22c-0.05,0.06-0.13,0.09-0.21,0.09h-0.41c-0.13,0-0.25-0.09-0.28-0.23       C428.85,8.15,420.18,1.31,413,1.31c-11.03,0-17.62,11.34-17.62,30.32c0,17.97,7.17,29.58,18.28,29.58       c9.64,0,16.56-7.83,17.62-19.95c0.09-1.37,0.85-1.99,1.52-1.99c0.96,0,1.6,0.68,1.6,1.69       C434.08,53.1,424.42,62.61,412.43,62.61z M412.1,0.73c-18.17,0-26.45,16.57-26.45,31.97c0,17.55,10.76,29.33,26.78,29.33       c11.69,0,21.09-9.26,21.41-21.09c0-0.25-0.08-1.11-1.04-1.11c-0.34,0-0.88,0.39-0.95,1.47c-1.09,12.44-8.23,20.48-18.18,20.48       c-11.45,0-18.85-11.83-18.85-30.15c0-19.19,6.69-30.71,17.92-30.89C412.52,0.74,412.31,0.73,412.1,0.73z M416.68,1.29       c6.28,1.87,12.79,8.54,15.66,20.9l-1.75-21.1c-0.51,2.19-1.7,3.43-3.31,3.43c-1.33,0-3.01-0.64-4.97-1.39       C420.65,2.5,418.76,1.78,416.68,1.29z"></path>
				</g>
				<g>
					<path class="st0" d="M437.52,1.52h25.16v0.33c-6.77,0-7.92,1.9-7.92,5.77v28.71c9.57-8.08,15.76-14.77,22.36-22.36       c2.56-2.97,4.7-7.01,4.7-8.09c0-0.99,0-4.04-6.93-4.04V1.52h20.46v0.33c-6.11,0-9.49,2.64-12.46,6.02       c-4.78,5.69-8.99,10.64-13.28,15.18c6.77,10.81,13.45,21.61,20.13,32.42c2.39,3.79,3.96,5.28,8.25,5.28v0.33H473.9v-0.33       c5.36,0,6.35-0.82,6.35-1.98c0-0.74-0.41-1.73-1.4-3.3l-1.4-2.23c-4.95-7.92-9.82-15.92-14.68-23.84       c-2.56,2.56-5.2,5.03-8,7.51v18.48c0,3.96,1.15,5.36,7.92,5.36v0.33h-25.16v-0.33c7.34,0,7.84-2.14,7.84-5.36V6.8       c0-3.22-0.5-4.95-7.84-4.95V1.52z"></path>
					<path class="st0" d="M497.99,61.37H473.9c-0.16,0-0.28-0.13-0.28-0.28v-0.33c0-0.16,0.13-0.28,0.28-0.28       c5.33,0,6.07-0.82,6.07-1.7c0-0.69-0.42-1.66-1.36-3.15l-1.4-2.23c-3.58-5.73-7.17-11.58-10.63-17.24       c-1.29-2.1-2.58-4.2-3.86-6.3c-2.46,2.45-4.97,4.8-7.67,7.18v18.35c0,3.53,0.72,5.08,7.64,5.08c0.16,0,0.28,0.13,0.28,0.28       v0.33c0,0.16-0.13,0.28-0.28,0.28h-25.16c-0.16,0-0.28-0.13-0.28-0.28v-0.33c0-0.16,0.13-0.28,0.28-0.28       c7.05,0,7.55-1.92,7.55-5.08V6.8c0-3.07-0.34-4.67-7.55-4.67c-0.16,0-0.28-0.13-0.28-0.28V1.52c0-0.16,0.13-0.28,0.28-0.28       h25.16c0.16,0,0.28,0.13,0.28,0.28v0.33c0,0.16-0.13,0.28-0.28,0.28c-6.53,0-7.64,1.69-7.64,5.49v28.1       c8.88-7.55,14.97-14.01,21.86-21.93c2.51-2.92,4.63-6.93,4.63-7.9c0-0.93,0-3.76-6.65-3.76c-0.16,0-0.28-0.13-0.28-0.28V1.52       c0-0.16,0.13-0.28,0.28-0.28h20.46c0.16,0,0.28,0.13,0.28,0.28v0.33c0,0.16-0.13,0.28-0.28,0.28c-5.84,0-9.12,2.37-12.25,5.93       c-4.63,5.51-8.82,10.45-13.14,15.03c6.7,10.7,13.42,21.57,19.92,32.09l0.09,0.15c2.43,3.86,3.93,5.15,8.01,5.15       c0.16,0,0.28,0.13,0.28,0.28v0.33C498.27,61.24,498.15,61.37,497.99,61.37z M477.88,60.8h17.53c-2.53-0.55-3.96-2.1-5.9-5.17       l-0.09-0.15c-6.54-10.58-13.3-21.52-20.04-32.28c-0.04-0.06-0.05-0.12-0.04-0.18c-2.01,2.12-4.08,4.19-6.29,6.29       c1.34,2.18,2.68,4.36,4.02,6.55c3.47,5.66,7.06,11.51,10.63,17.24l1.4,2.23c1.01,1.6,1.45,2.64,1.45,3.45       C480.54,59.85,479.77,60.49,477.88,60.8z M441.06,60.8h17.84c-3.72-0.58-4.42-2.28-4.42-5.41V36.91c0-0.08,0.04-0.16,0.1-0.21       c0.04-0.03,0.07-0.06,0.11-0.09c-0.01,0-0.03-0.01-0.04-0.01c-0.1-0.05-0.16-0.15-0.16-0.26V7.63c0-3.23,0.82-5.18,4.74-5.82       h-17.81c3.74,0.57,4.23,2.21,4.23,5v48.59C445.64,58.08,445.26,60.13,441.06,60.8z M477.88,1.8c4.23,0.77,4.23,3.19,4.23,4.09       c0,0.95-1.41,3.75-3.26,6.33c1.25-1.47,2.52-2.98,3.83-4.53c2.32-2.65,5.12-5.13,9.68-5.89H477.88z"></path>
				</g>
				<g>
					<path class="st0" d="M575.53,1.52c11.3,0,19.72,6.44,19.72,16.67c0,10.31-8.41,18.73-21.2,18.73c-3.71,0-7.75-0.74-10.89-2.81       v21.28c0,3.88,1.24,5.36,8.74,5.36v0.33h-25.99v-0.33c7.42,0,8-2.14,8-5.36V7.3c0-3.22-0.58-5.44-8-5.44V1.52H575.53z        M573.8,2.02h-4.87c-2.48,0-5.77,0.82-5.77,5.28v20.21c0,5.53,2.14,8.83,9.4,8.83c9.08,0,13.28-9.32,13.28-18.15       C585.85,9.52,580.9,2.02,573.8,2.02z"></path>
					<path class="st0" d="M571.9,61.37h-25.99c-0.16,0-0.28-0.13-0.28-0.28v-0.33c0-0.16,0.13-0.28,0.28-0.28       c7.2,0,7.72-1.92,7.72-5.08V7.3c0-3.12-0.54-5.16-7.72-5.16c-0.16,0-0.28-0.13-0.28-0.28V1.52c0-0.16,0.13-0.28,0.28-0.28       h29.62c11.78,0,20,6.97,20,16.95c0,11.02-9.04,19.01-21.49,19.01c-2.94,0-7.11-0.46-10.61-2.57v20.77       c0,3.53,0.8,5.08,8.46,5.08c0.16,0,0.28,0.13,0.28,0.28v0.33C572.19,61.24,572.06,61.37,571.9,61.37z M549.53,60.8h18.21       c-4.1-0.58-4.87-2.28-4.87-5.41V34.11c0-0.1,0.06-0.2,0.15-0.25c0.09-0.05,0.2-0.04,0.29,0.01c1.05,0.69,2.18,1.22,3.33,1.62       c-2.6-1.34-3.77-3.92-3.77-7.98V7.3c0-3.19,1.7-5.11,4.83-5.49h-18.26c4.35,0.69,4.76,2.84,4.76,5.49v48.1       C554.2,58.08,553.81,60.13,549.53,60.8z M573.03,36.61c0.35,0.01,0.69,0.02,1.02,0.02c12.12,0,20.92-7.76,20.92-18.44       c0-9.8-7.81-16.38-19.43-16.38h-0.55c6.33,0.77,11.14,7.69,11.14,16.38C586.13,26.91,582.02,36.3,573.03,36.61z M568.93,2.3       c-2.51,0-5.49,0.87-5.49,5v20.21c0,6.07,2.64,8.54,9.12,8.54c8.93,0,13-9.26,13-17.87c0-8.91-5.17-15.89-11.76-15.89H568.93z"></path>
				</g>
				<g>
					<path class="st0" d="M620.25,61.08h-25.24v-0.33c7.42,0,8-2.14,8-5.36V7.3c0-3.22-0.58-5.44-8-5.44V1.52h29.37       c11.63,0,20.13,5.12,20.13,15.01c0,9.16-8.5,14.77-21.28,15.18c19.63,3.46,17.98,28.38,26.23,28.38c1.24,0,2.39-0.74,3.46-2.64       c0.17,0.17,0.33,0.17,0.5,0.33c-1.4,2.31-3.38,4.12-6.93,4.12c-18.4,0-14.11-30.19-27.06-30.19h-7.18v23.68       c0,3.22,0.58,5.36,8,5.36V61.08z M616.13,2.02c-2.89,0-3.88,2.06-3.88,5.36v23.84h8.17c9.57,0,14.77-6.1,14.77-14.44       s-5.2-14.77-12.13-14.77H616.13z"></path>
					<path class="st0" d="M646.49,62.19c-10.2,0-13.59-9.17-16.57-17.26C627.46,38.28,625.14,32,619.43,32h-6.89v23.39       c0,3.16,0.52,5.08,7.72,5.08c0.16,0,0.28,0.13,0.28,0.28v0.33c0,0.16-0.13,0.28-0.28,0.28h-25.25c-0.16,0-0.28-0.13-0.28-0.28       v-0.33c0-0.16,0.13-0.28,0.28-0.28c7.2,0,7.72-1.92,7.72-5.08V7.3c0-3.12-0.54-5.16-7.72-5.16c-0.16,0-0.28-0.13-0.28-0.28       V1.52c0-0.16,0.13-0.28,0.28-0.28h29.37c12.59,0,20.41,5.86,20.41,15.3c0,8.63-7.42,14.4-19.5,15.35       C635.65,34.7,639.6,44,642.53,50.89c2.12,4.98,3.79,8.92,6.92,8.92c1.22,0,2.27-0.82,3.22-2.5c0.04-0.08,0.12-0.13,0.21-0.14       c0.09-0.01,0.18,0.02,0.24,0.08c0.05,0.05,0.1,0.08,0.17,0.11c0.09,0.05,0.21,0.1,0.32,0.22c0.09,0.09,0.11,0.24,0.04,0.35       C652.55,59.76,650.6,62.19,646.49,62.19z M620.51,31.5c5.32,0.72,7.57,6.81,9.94,13.23c3.06,8.3,6.23,16.89,16.04,16.89       c2.87,0,4.9-1.16,6.54-3.76c-0.01,0-0.01-0.01-0.02-0.01c-1.02,1.69-2.19,2.52-3.56,2.52c-3.51,0-5.25-4.09-7.45-9.26       c-3.23-7.61-7.26-17.08-18.84-19.12c-0.14-0.03-0.24-0.15-0.23-0.3c0.01-0.15,0.13-0.26,0.27-0.26       c12.96-0.42,21.01-6.13,21.01-14.9c0-9.09-7.6-14.73-19.85-14.73h-0.04c6.43,0.73,11.13,6.92,11.13,14.98       C635.47,25.7,629.6,31.46,620.51,31.5z M598.63,60.8h18.01c-4.28-0.67-4.67-2.72-4.67-5.41V31.72c0-0.11,0.06-0.2,0.14-0.25       c-0.09-0.05-0.14-0.14-0.14-0.25V7.38c0-3.37,1.07-5.2,3.26-5.57h-16.69c4.35,0.69,4.76,2.84,4.76,5.49v48.1       C603.3,58.08,602.9,60.13,598.63,60.8z M612.54,30.94h7.88c8.93,0,14.48-5.42,14.48-14.15c0-8.26-5.09-14.48-11.84-14.48h-6.93       c-2.49,0-3.59,1.57-3.59,5.08V30.94z"></path>
				</g>
				<g>
					<path class="st0" d="M678.31,62.16c-16.75,0-26.98-13.36-26.98-30.85c0-17.41,10.23-30.85,26.98-30.85       c16.83,0,26.98,13.45,26.98,30.85C705.28,48.79,695.14,62.16,678.31,62.16z M678.31,0.86c-10.89,0-17.32,12.95-17.32,30.44       c0,17.57,6.43,30.44,17.32,30.44c10.97,0,17.41-12.87,17.41-30.44C695.71,13.81,689.28,0.86,678.31,0.86z"></path>
					<path class="st0" d="M678.31,62.44c-16.3,0-27.26-12.51-27.26-31.14c0-18.33,11.21-31.14,27.26-31.14       c16.3,0,27.26,12.51,27.26,31.14S694.61,62.44,678.31,62.44z M675.62,0.86c-14.27,1.35-24,13.49-24,30.44       c0,17.22,9.51,29.12,23.96,30.45c-9.12-1.9-14.87-13.43-14.87-30.45C660.7,14.54,666.59,2.79,675.62,0.86z M681.08,0.86       C690.23,2.77,696,14.3,696,31.3c0,17.01-5.77,28.54-14.93,30.44C695.5,60.41,705,48.51,705,31.3       C705,14.1,695.5,2.21,681.08,0.86z M678.31,1.15c-10.19,0-17.04,12.12-17.04,30.16c0,18.32,6.69,30.16,17.04,30.16       c10.4,0,17.12-11.84,17.12-30.16C695.43,13.26,688.55,1.15,678.31,1.15z"></path>
				</g>
			</g>
			<g>
				<g>
					<path class="st0" d="M224.69,77.18c-0.3,0-0.7,0.24-0.94,0.81c0.62,0.75,0.97,1.88,0.97,2.69c0,2.28-1.64,4.22-5.24,4.22h-0.35       c-2.88,0-4.65,0.35-4.65,1.21c0,1.07,1.69,1.13,3.2,1.13c1.77,0,3.17-0.21,4.62-0.21c2.28,0,3.79,0.91,3.79,3.01       c0,2.53-2.74,4.43-6.8,4.43c-3.65,0-5.75-1.29-5.75-3.17c0-0.78,0.62-1.93,2.04-2.34c-0.94-0.4-1.4-1.07-1.4-2.04       c0-1.05,0.62-2.12,2.04-2.74c-1.37-0.73-1.99-2.1-1.99-3.49c0-2.26,1.64-4.19,5.24-4.19c1.93,0,3.3,0.56,4.16,1.42       c0.4-0.89,1.24-1.67,2.18-1.67c0.75,0,1.42,0.4,1.42,1.32c0,0.54-0.35,1.02-0.94,1.02C225.71,78.58,225.25,77.18,224.69,77.18z        M215.76,89c-0.7,0.38-1.18,1.1-1.18,1.99c0,1.45,1.37,3.33,4.7,3.33c2.58,0,5.64-1.05,5.64-3.17c0-1.45-1.26-1.88-3.17-1.88       c-1.02,0.05-2.15,0.16-3.52,0.16C217.4,89.43,216.49,89.33,215.76,89z M219.47,76.61c-2.02,0-2.85,2.04-2.85,4.06       c0,2.04,0.83,4.08,2.85,4.08c2.04,0,2.85-2.04,2.85-4.08C222.32,78.66,221.52,76.61,219.47,76.61z"></path>
					<path class="st0" d="M219.28,94.74c-3.72,0-6.03-1.32-6.03-3.45c0-0.84,0.57-1.85,1.65-2.38c-0.67-0.46-1.01-1.13-1.01-2       c0-1.15,0.63-2.13,1.74-2.77c-1.08-0.77-1.69-2-1.69-3.47c0-2.06,1.45-4.48,5.52-4.48c1.7,0,3.1,0.43,4.08,1.25       c0.47-0.79,1.29-1.49,2.26-1.49c1.04,0,1.71,0.63,1.71,1.6c0,0.74-0.53,1.31-1.22,1.31c-0.44,0-0.75-0.42-1.05-0.83       c-0.17-0.23-0.42-0.57-0.56-0.57c-0.17,0-0.42,0.15-0.61,0.49c0.55,0.74,0.92,1.83,0.92,2.72c0,2.18-1.45,4.5-5.52,4.5h-0.35       c-4.05,0-4.37,0.71-4.37,0.93c0,0.78,1.5,0.84,2.91,0.84c0.92,0,1.74-0.06,2.52-0.11c0.72-0.05,1.4-0.1,2.1-0.1       c2.63,0,4.07,1.17,4.07,3.29C226.37,92.76,223.39,94.74,219.28,94.74z M215.78,89.32c-0.58,0.36-0.92,0.98-0.92,1.67       c0,1.23,1.18,3.05,4.42,3.05c2.63,0,5.36-1.08,5.36-2.89c0-0.79-0.34-1.6-2.89-1.6c-0.27,0.01-0.55,0.03-0.85,0.05       c-0.78,0.05-1.67,0.11-2.67,0.11C217.56,89.72,216.6,89.65,215.78,89.32z M214.6,89.78c-0.56,0.48-0.78,1.11-0.78,1.51       c0,1.02,0.69,1.83,1.92,2.32c-1.02-0.75-1.44-1.8-1.44-2.62C214.3,90.55,214.4,90.14,214.6,89.78z M221.75,88.99       c1.5,0,3.47,0.23,3.47,2.16c0,0.34-0.07,0.65-0.2,0.94c0.5-0.6,0.78-1.3,0.78-2.07c0-2.25-1.91-2.73-3.5-2.73       c-0.68,0-1.35,0.05-2.06,0.1c-0.8,0.06-1.62,0.12-2.56,0.12c-1.08,0-2.6,0-3.21-0.67c0,0.02,0,0.04,0,0.07       c0,0.86,0.39,1.42,1.23,1.78c0.02,0.01,0.04,0.02,0.06,0.03c0.05-0.01,0.09,0,0.14,0.02c0.75,0.34,1.7,0.41,2.36,0.41       c0.98,0,1.86-0.06,2.63-0.11C221.17,89.02,221.46,89,221.75,88.99C221.74,88.99,221.75,88.99,221.75,88.99z M217.7,76.95       c-2.31,0.54-3.19,2.18-3.19,3.72c0,1.44,0.67,2.62,1.84,3.24c0.1,0.05,0.15,0.15,0.15,0.26s-0.07,0.21-0.17,0.25       c-0.34,0.15-0.64,0.33-0.89,0.53c0.61-0.18,1.46-0.29,2.55-0.33c-1.19-0.76-1.65-2.45-1.65-3.96       C216.34,79.31,216.72,77.78,217.7,76.95z M219.47,76.9c-1.89,0-2.56,2.03-2.56,3.77c0,1.75,0.67,3.8,2.56,3.8       c1.89,0,2.56-1.96,2.56-3.8C222.04,78.85,221.36,76.9,219.47,76.9z M221.25,76.96c0.97,0.83,1.35,2.35,1.35,3.72       c0,1.38-0.38,2.91-1.36,3.75c2.32-0.55,3.19-2.19,3.19-3.75c0-0.7-0.31-1.79-0.9-2.51c-0.03-0.01-0.06-0.03-0.09-0.06       C222.89,77.56,222.15,77.17,221.25,76.96z M224.78,76.9c0.38,0.05,0.66,0.43,0.93,0.8c0.19,0.25,0.44,0.6,0.6,0.6       c0.45,0,0.66-0.38,0.66-0.74c0-0.96-0.87-1.03-1.14-1.03C225.44,76.52,225.08,76.67,224.78,76.9z"></path>
				</g>
				<g>
					<path class="st0" d="M286.94,81.56c0.54-2.47,2.07-5.03,4.11-5.03c1.1,0,2.47,0.62,2.47,2.39c0,0.75-0.64,1.5-1.4,1.5       c-0.91,0-1.45-0.73-1.45-1.48c0-0.24,0.03-0.51,0.03-0.75c0-0.38-0.19-0.89-0.75-0.89c-1.59,0-2.82,2.96-2.82,5.94v4.11       c0,0.75,0.19,1.67,2.34,1.67v0.11h-7.04v-0.11c1.96,0,2.15-0.91,2.15-1.69V78.6c0-0.94-0.13-1.37-2.18-1.37v-0.11       c1.64,0,2.85-0.19,4.46-0.62L286.94,81.56z"></path>
					<path class="st0" d="M289.46,89.42h-7.04c-0.16,0-0.28-0.13-0.28-0.28v-0.11c0-0.16,0.13-0.28,0.28-0.28       c1.72,0,1.87-0.7,1.87-1.41V78.6c0-0.77,0-1.09-1.89-1.09c-0.16,0-0.28-0.13-0.28-0.28v-0.11c0-0.16,0.13-0.28,0.28-0.28       c1.54,0,2.73-0.16,4.39-0.61c0.08-0.02,0.17,0,0.24,0.05c0.07,0.05,0.11,0.13,0.11,0.22l0.05,3.28       c0.78-1.91,2.13-3.53,3.86-3.53c1.37,0,2.76,0.83,2.76,2.68c0,0.94-0.8,1.79-1.68,1.79c-1.13,0-1.73-0.91-1.73-1.76       c0-0.13,0.01-0.26,0.01-0.39c0.01-0.12,0.01-0.25,0.01-0.36c0-0.1-0.02-0.6-0.47-0.6c-1.33,0-2.54,2.7-2.54,5.66v4.11       c0,0.55,0,1.38,2.05,1.38c0.16,0,0.28,0.13,0.28,0.28v0.11C289.75,89.29,289.62,89.42,289.46,89.42z M284.23,88.85h3.25       c-0.54-0.39-0.64-0.96-0.64-1.49v-4.11c0-0.47,0.03-0.94,0.09-1.41c-0.01,0-0.01,0-0.02,0c-0.14-0.01-0.25-0.13-0.26-0.28       l-0.07-4.69c-0.81,0.2-1.51,0.34-2.21,0.43c0.4,0.27,0.49,0.69,0.49,1.3v8.73C284.86,87.84,284.77,88.45,284.23,88.85z        M290.09,77.04c0.61,0.08,0.89,0.64,0.89,1.16c0,0.13-0.01,0.26-0.01,0.39c-0.01,0.12-0.01,0.24-0.01,0.36       c0,0.59,0.4,1.19,1.17,1.19c0.57,0,1.11-0.59,1.11-1.22c0-1.56-1.18-2.11-2.19-2.11C290.72,76.82,290.4,76.9,290.09,77.04z"></path>
				</g>
				<g>
					<path class="st0" d="M355.53,89.49c-3.82,0-6.1-2.77-6.1-6.5c0-3.71,2.28-6.5,6.1-6.5s6.1,2.79,6.1,6.5       C361.63,86.72,359.35,89.49,355.53,89.49z M355.53,76.61c-2.18,0-3.52,2.26-3.52,6.37c0,4.14,1.34,6.37,3.52,6.37       s3.52-2.23,3.52-6.37C359.05,78.87,357.71,76.61,355.53,76.61z"></path>
					<path class="st0" d="M355.53,89.77c-3.82,0-6.38-2.73-6.38-6.79s2.57-6.79,6.38-6.79s6.38,2.73,6.38,6.79       S359.35,89.77,355.53,89.77z M355.53,76.9c-2.06,0-3.24,2.22-3.24,6.09c0,3.87,1.18,6.09,3.24,6.09c2.06,0,3.24-2.22,3.24-6.09       C358.77,79.12,357.59,76.9,355.53,76.9z M357.55,77.08c1.15,1.02,1.79,3.05,1.79,5.9c0,2.85-0.63,4.89-1.79,5.9       c2.33-0.78,3.8-2.96,3.8-5.9C361.35,80.04,359.88,77.86,357.55,77.08z M353.51,77.08c-2.33,0.78-3.8,2.96-3.8,5.9       c0,2.94,1.46,5.12,3.8,5.9c-1.15-1.02-1.79-3.05-1.79-5.9C351.73,80.13,352.36,78.1,353.51,77.08z"></path>
				</g>
				<g>
					<path class="st0" d="M428.85,86.53c0,1.37,0.19,2.18,2.23,2.18v0.11c-1.88,0-3.39,0.38-4.62,0.73v-3.9       c-0.78,2.28-2.77,3.9-5.19,3.9c-3.2,0-3.98-2.63-3.98-5.89v-4.89c0-1.1-0.35-1.53-2.18-1.53v-0.11c1.72,0,3.39-0.27,4.73-0.62       v8.38c0,2.71,0.83,4.25,2.53,4.25c1.8,0,3.92-2.02,3.92-5.13v-5.24c0-1.1-0.27-1.48-2.18-1.53v-0.11       c1.72,0,3.17-0.16,4.73-0.62V86.53z"></path>
					<path class="st0" d="M421.27,89.82c-3.82,0-4.26-3.52-4.26-6.17v-4.89c0-0.82-0.08-1.25-1.89-1.25c-0.16,0-0.28-0.13-0.28-0.28       v-0.11c0-0.16,0.13-0.28,0.28-0.28c1.92,0,3.59-0.33,4.66-0.61c0.08-0.02,0.17,0,0.25,0.05c0.07,0.05,0.11,0.14,0.11,0.22v8.38       c0,1.81,0.39,3.96,2.24,3.96c1.72,0,3.64-1.99,3.64-4.85v-5.24c0-0.82,0-1.19-1.9-1.25c-0.15,0-0.28-0.13-0.28-0.28v-0.11       c0-0.16,0.13-0.28,0.28-0.28c1.81,0,3.2-0.18,4.65-0.61c0.09-0.03,0.18-0.01,0.25,0.04c0.07,0.05,0.11,0.14,0.11,0.23v10.02       c0,1.24,0.09,1.89,1.95,1.89c0.16,0,0.28,0.13,0.28,0.28v0.11c0,0.16-0.13,0.28-0.28,0.28c-1.86,0-3.32,0.37-4.55,0.71       c-0.09,0.03-0.18,0.01-0.25-0.05c-0.07-0.05-0.11-0.14-0.11-0.23v-2.6C425.13,88.73,423.31,89.82,421.27,89.82z M417,77.31       c0.42,0.28,0.58,0.74,0.58,1.46v4.89c0,3.87,1.14,5.6,3.69,5.6c0.05,0,0.11,0,0.16,0c-0.99-0.38-1.87-1.52-1.87-4.36v-8.02       C418.88,77.04,418,77.21,417,77.31z M426.46,85.36c0.02,0,0.03,0,0.05,0c0.14,0.02,0.24,0.14,0.24,0.28v3.52       c0.8-0.22,1.66-0.42,2.61-0.53c-0.7-0.43-0.78-1.2-0.78-2.11v-9.65c-0.83,0.22-1.65,0.37-2.54,0.45       c0.41,0.27,0.55,0.72,0.55,1.44V84c0,0.48-0.05,0.93-0.13,1.36C426.45,85.36,426.46,85.36,426.46,85.36z"></path>
				</g>
				<g>
					<path class="st0" d="M488.27,80.08c0.54-1.96,2.07-3.6,4.25-3.6c3.25,0,5.21,3.04,5.21,6.5c0,3.55-1.96,6.5-5.21,6.5       c-1.99,0-3.57-1.37-4.16-3.33v6.26c0,0.75,0.19,1.67,2.34,1.67v0.11h-7.04v-0.11c1.96,0,2.15-0.91,2.15-1.69V78.6       c0-0.94-0.13-1.37-2.18-1.37v-0.11c1.64,0,2.88-0.16,4.49-0.59L488.27,80.08z M491.71,89.14c1.93,0,3.44-1.91,3.44-6.15       c0-4.22-1.48-6.15-3.41-6.15c-1.69,0-3.39,1.69-3.39,6.15C488.35,87.28,489.99,89.14,491.71,89.14z"></path>
					<path class="st0" d="M490.69,94.47h-7.04c-0.16,0-0.28-0.13-0.28-0.28v-0.11c0-0.16,0.13-0.28,0.28-0.28       c1.72,0,1.87-0.7,1.87-1.41V78.6c0-0.77,0-1.09-1.89-1.09c-0.16,0-0.28-0.13-0.28-0.28v-0.11c0-0.16,0.13-0.28,0.28-0.28       c1.63,0,2.82-0.16,4.42-0.58c0.08-0.02,0.17-0.01,0.24,0.05c0.07,0.05,0.11,0.13,0.12,0.22l0.1,2.23       c0.84-1.58,2.32-2.55,4.02-2.55c3.61,0,5.5,3.41,5.5,6.79c0,4-2.26,6.79-5.5,6.79c-1.61,0-3.03-0.86-3.88-2.27v4.92       c0,0.55,0,1.38,2.05,1.38c0.16,0,0.28,0.13,0.28,0.28v0.11C490.97,94.35,490.84,94.47,490.69,94.47z M485.46,93.91h3.25       c-0.54-0.39-0.64-0.96-0.64-1.49v-6.26c0-0.14,0.1-0.26,0.24-0.28c0.02,0,0.04,0,0.06,0c-0.19-0.8-0.3-1.76-0.3-2.89       c0-1.01,0.08-1.88,0.24-2.62c-0.02,0-0.04,0-0.07,0c-0.14-0.02-0.25-0.13-0.25-0.27l-0.15-3.2c-0.79,0.2-1.5,0.33-2.24,0.41       c0.39,0.27,0.48,0.69,0.48,1.29v13.79C486.08,92.9,485.99,93.5,485.46,93.91z M492.9,76.78c1.61,0.69,2.53,2.9,2.53,6.2       c0,3.3-0.93,5.52-2.55,6.21c2.71-0.21,4.57-2.7,4.57-6.21C497.44,80.02,495.88,77.02,492.9,76.78z M491.73,77.11       c-1.5,0-3.1,1.54-3.1,5.87c0,4.33,1.66,5.87,3.08,5.87c1.98,0,3.16-2.19,3.16-5.87C494.86,79.31,493.69,77.11,491.73,77.11z"></path>
				</g>
			</g>
		</g>
	</g>
</g>
</svg>