<?xml version="1.0" standalone="no"?>
<!DOCTYPE svg PUBLIC "-//W3C//DTD SVG 20010904//EN"
 "http://www.w3.org/TR/2001/REC-SVG-20010904/DTD/svg10.dtd">
<svg version="1.0" xmlns="http://www.w3.org/2000/svg"
 width="512.000000pt" height="512.000000pt" viewBox="0 0 512.000000 512.000000"
 preserveAspectRatio="xMidYMid meet">

<g transform="translate(0.000000,512.000000) scale(0.100000,-0.100000)"
fill="#000000" stroke="none">
<path d="M92 4419 c-24 -12 -54 -38 -68 -58 l-24 -36 0 -1520 0 -1520 25 -37
c13 -20 44 -45 68 -57 40 -20 60 -21 285 -21 l241 0 12 -42 c31 -116 121 -248
222 -324 259 -196 609 -173 837 55 79 79 151 200 166 276 l6 35 743 0 742 0
12 -43 c44 -148 182 -311 321 -379 297 -146 642 -54 821 220 26 39 57 101 69
137 l21 64 209 3 c229 3 234 5 284 72 21 27 21 34 24 1127 3 1217 7 1142 -64
1195 l-37 29 -268 3 -267 3 -4 103 c-3 94 -5 106 -31 139 -42 56 -85 71 -290
107 -151 27 -192 31 -212 22 -51 -23 -58 -97 -12 -126 12 -8 92 -26 177 -41
85 -14 170 -31 188 -36 l32 -11 0 -79 0 -79 -545 0 -545 0 0 178 0 179 213
-37 c128 -22 222 -34 234 -29 25 9 53 47 53 71 0 9 -10 29 -22 43 -21 24 -43
29 -243 65 -121 22 -223 40 -226 40 -4 0 -8 44 -11 98 -3 60 -11 108 -21 127
-20 39 -65 81 -100 94 -20 8 -485 11 -1500 11 l-1472 0 -43 -21z m2978 -155
c6 -16 9 -198 8 -477 l-3 -452 -662 -3 -662 -2 -20 -26 c-28 -35 -26 -69 4
-99 l24 -25 661 0 660 0 -2 -292 -3 -293 -1465 0 -1465 0 -3 293 -2 292 659 0
c651 0 659 0 685 21 33 26 36 79 6 109 -20 20 -33 20 -685 20 l-665 0 0 468
c0 351 3 471 12 480 9 9 347 12 1460 12 l1448 0 10 -26z m1890 -944 l0 -130
-419 0 c-272 0 -430 -4 -448 -11 -15 -5 -41 -22 -56 -37 -56 -53 -57 -58 -57
-353 0 -272 0 -272 25 -315 16 -28 39 -49 68 -63 42 -20 57 -21 465 -21 l422
0 0 -95 0 -95 -127 0 c-150 0 -193 -10 -227 -51 -25 -30 -26 -34 -26 -177 1
-160 6 -180 56 -213 25 -16 48 -19 177 -19 l147 0 0 -210 0 -210 -174 0 -175
0 -6 47 c-10 83 -45 196 -82 263 -55 98 -161 198 -264 248 -108 54 -183 72
-289 72 -329 -1 -597 -242 -636 -572 l-6 -58 -49 0 -49 0 0 1065 0 1065 865 0
865 0 0 -130z m0 -530 l0 -250 -412 2 -413 3 -3 235 c-1 129 0 240 2 247 4 10
93 13 416 13 l410 0 0 -250z m-1882 -907 l-3 -558 -596 -3 -597 -2 -7 57 c-27
216 -152 396 -345 497 -92 48 -177 68 -290 68 -180 -1 -316 -58 -446 -187
-113 -113 -161 -212 -189 -397 l-6 -38 -217 0 c-156 0 -221 3 -230 12 -9 9
-12 147 -12 560 l0 548 1470 0 1470 0 -2 -557z m1882 82 l0 -75 -115 0 -115 0
0 75 0 75 115 0 115 0 0 -75z m-888 -176 c245 -51 417 -301 378 -547 -24 -150
-129 -294 -260 -359 -80 -39 -135 -52 -220 -53 -134 0 -247 47 -345 145 -71
71 -111 148 -133 256 -14 66 -14 89 -4 151 48 284 307 465 584 407z m-2620
-47 c148 -73 244 -203 270 -365 40 -259 -143 -504 -409 -549 -228 -38 -465
110 -535 335 -23 76 -25 210 -4 282 18 60 75 158 119 203 46 47 121 93 197
120 55 19 82 22 171 20 102 -3 109 -5 191 -46z"/>
<path d="M3895 1597 c-62 -21 -97 -42 -136 -84 -62 -65 -74 -97 -74 -198 0
-106 17 -147 88 -213 62 -56 108 -75 192 -76 92 -1 159 29 219 95 163 181 50
460 -195 484 -32 3 -70 -1 -94 -8z m150 -166 c62 -34 82 -133 40 -197 -23 -36
-97 -67 -138 -59 -123 26 -160 182 -60 253 48 34 100 35 158 3z"/>
<path d="M1146 1584 c-69 -22 -156 -110 -181 -183 -48 -147 32 -316 175 -366
69 -24 167 -20 227 11 104 51 162 144 163 260 0 203 -186 338 -384 278z m147
-148 c52 -22 79 -59 85 -114 8 -91 -48 -152 -142 -152 -43 0 -53 4 -87 38 -21
21 -41 50 -44 65 -16 63 20 137 79 163 40 17 69 17 109 0z"/>
</g>
</svg>
