<?xml version="1.0" standalone="no"?>
<!DOCTYPE svg PUBLIC "-//W3C//DTD SVG 20010904//EN"
 "http://www.w3.org/TR/2001/REC-SVG-20010904/DTD/svg10.dtd">
<svg version="1.0" xmlns="http://www.w3.org/2000/svg"
 width="512.000000pt" height="512.000000pt" viewBox="0 0 512.000000 512.000000"
 preserveAspectRatio="xMidYMid meet">

<g transform="translate(0.000000,512.000000) scale(0.100000,-0.100000)"
fill="#000000" stroke="none">
<path d="M161 5103 c-24 -9 -63 -35 -86 -58 -129 -129 -80 -349 92 -411 30
-10 147 -13 541 -14 l502 0 0 -73 c0 -92 26 -149 88 -192 43 -30 45 -30 198
-33 l154 -4 -2 -161 -3 -161 -50 -11 c-158 -35 -280 -173 -293 -331 -4 -58 -2
-67 18 -89 50 -53 130 -14 130 63 0 54 44 136 92 171 62 46 120 53 381 49 215
-3 235 -5 272 -25 77 -41 116 -100 130 -196 12 -80 72 -112 126 -68 21 17 24
27 22 78 -4 164 -143 324 -303 351 -43 7 -45 9 -48 44 l-3 37 379 3 378 3 41
27 c74 49 83 83 83 316 l0 202 455 0 456 0 24 25 c32 31 32 69 0 100 l-24 25
-1847 0 -1846 0 -34 34 c-46 46 -46 86 0 132 l34 34 2342 0 2342 0 34 -34 c25
-24 34 -43 34 -66 0 -23 -9 -42 -34 -66 l-34 -34 -349 0 c-372 -1 -372 -1
-392 -51 -11 -30 8 -83 34 -93 28 -10 706 -7 747 4 55 16 119 69 146 123 52
100 35 214 -43 292 -81 82 150 75 -2489 74 -2103 0 -2356 -2 -2395 -16z m2259
-538 c0 -42 -5 -60 -20 -75 -19 -19 -33 -20 -514 -20 -567 0 -526 -7 -526 91
l0 59 530 0 530 0 0 -55z m430 -133 c0 -133 -4 -192 -12 -200 -9 -9 -104 -12
-365 -12 l-353 0 0 50 0 50 143 0 c162 0 200 11 254 73 38 43 53 91 53 170 l0
57 140 0 140 0 0 -188z m-880 -272 l0 -160 -85 0 -85 0 0 160 0 160 85 0 85 0
0 -160z"/>
<path d="M1643 3629 c-17 -5 -43 -23 -57 -40 -25 -30 -26 -35 -26 -171 l0
-141 35 -33 35 -33 0 -119 0 -120 -49 -36 c-74 -54 -141 -144 -178 -237 -16
-40 -18 -103 -23 -664 l-5 -620 -385 -5 c-336 -5 -392 -8 -440 -24 -290 -96
-480 -339 -497 -636 -8 -131 14 -237 74 -360 38 -80 59 -109 132 -181 72 -71
103 -94 182 -132 168 -83 12 -77 2144 -77 2132 0 1976 -6 2145 77 79 38 109
60 181 132 72 72 94 102 132 181 108 221 100 474 -20 680 -57 97 -172 207
-270 258 -140 73 -196 82 -495 82 l-258 0 0 584 c0 348 -4 605 -10 637 -21
111 -116 253 -215 320 l-35 24 0 117 c0 117 0 117 27 130 14 7 36 26 47 41 19
26 21 42 21 162 0 208 -8 214 -305 214 -289 0 -303 -9 -308 -192 -4 -129 6
-175 48 -211 l30 -25 0 -120 0 -119 -35 -22 c-53 -33 -139 -134 -173 -203 -17
-34 -36 -91 -41 -127 -7 -40 -11 -285 -11 -638 l0 -572 -352 2 -353 3 -5 620
c-5 614 -5 621 -27 675 -31 74 -113 181 -173 225 l-50 37 0 119 0 118 30 16
c53 27 62 60 58 210 -3 125 -4 135 -27 159 -14 14 -41 30 -60 36 -45 12 -394
12 -438 -1z m377 -209 l0 -60 -155 0 -155 0 0 60 0 60 155 0 155 0 0 -60z
m1668 3 l-3 -58 -157 -3 -158 -3 0 61 0 60 160 0 161 0 -3 -57z m-1758 -318
l0 -105 -75 0 -75 0 0 105 0 105 75 0 75 0 0 -105z m1660 0 l0 -105 -70 0 -70
0 0 105 0 105 70 0 70 0 0 -105z m-1521 -322 c51 -51 73 -83 89 -126 40 -106
69 -97 -304 -97 l-327 0 7 42 c10 63 53 133 119 194 l58 54 146 0 145 0 67
-67z m1628 38 c71 -52 131 -145 147 -228 l6 -33 -325 0 -325 0 0 30 c0 65 62
166 138 225 l45 35 137 0 c135 0 138 0 177 -29z m-1517 -731 l0 -310 -325 0
-325 0 0 310 0 310 325 0 325 0 0 -310z m1668 3 l-3 -308 -322 -3 -323 -2 0
310 0 310 325 0 325 0 -2 -307z m-1668 -573 l0 -110 -325 0 -325 0 0 110 0
110 325 0 325 0 0 -110z m1668 3 l-3 -108 -322 -3 -323 -2 0 110 0 110 325 0
326 0 -3 -107z m706 -278 c140 -37 281 -147 349 -272 35 -66 67 -190 67 -262
-1 -264 -185 -493 -439 -547 -98 -21 -3794 -21 -3892 0 -254 54 -438 283 -439
547 0 72 32 196 67 262 44 80 143 179 222 221 133 70 -23 65 2091 65 1688 1
1923 -1 1974 -14z"/>
<path d="M693 1150 c-247 -33 -425 -286 -374 -532 26 -123 122 -253 229 -307
105 -54 5 -51 2037 -51 2032 0 1932 -3 2037 51 64 33 154 124 187 191 143 285
-34 610 -351 649 -52 6 -470 9 -1114 7 -999 -3 -1033 -4 -1053 -22 -29 -26
-29 -86 0 -112 20 -18 57 -19 1118 -24 l1096 -5 41 -22 c64 -34 131 -116 150
-181 41 -141 -21 -281 -159 -354 l-42 -23 -1910 0 -1910 0 -42 23 c-138 73
-200 213 -159 354 19 65 86 147 150 181 41 22 44 22 719 27 l679 5 19 24 c24
30 24 72 0 102 l-19 24 -634 1 c-348 1 -661 -2 -695 -6z"/>
<path d="M938 916 c-123 -44 -181 -156 -147 -280 14 -51 80 -121 135 -142 144
-55 304 56 304 210 -1 152 -152 262 -292 212z m125 -168 c51 -60 -22 -146 -93
-108 -48 26 -49 99 -2 125 33 18 71 11 95 -17z"/>
<path d="M1689 902 c-80 -42 -113 -94 -117 -185 -3 -65 0 -77 27 -124 116
-197 415 -116 415 112 0 172 -173 277 -325 197z m140 -132 c10 -5 24 -22 30
-39 10 -24 10 -34 -3 -59 -24 -47 -66 -55 -110 -21 -68 53 7 160 83 119z"/>
<path d="M2484 912 c-56 -26 -110 -93 -124 -153 -41 -169 123 -320 288 -265
59 20 123 83 142 140 32 96 -7 207 -91 263 -55 36 -154 43 -215 15z m143 -154
c31 -29 30 -72 -2 -103 -27 -28 -42 -30 -79 -14 -33 15 -50 57 -37 91 19 50
78 63 118 26z"/>
<path d="M3275 911 c-205 -94 -165 -384 58 -426 65 -12 135 12 188 65 54 54
74 108 67 182 -14 146 -180 240 -313 179z m144 -157 c53 -67 -13 -148 -88
-110 -46 24 -54 67 -20 110 15 19 30 26 54 26 24 0 39 -7 54 -26z"/>
<path d="M4055 913 c-81 -42 -124 -114 -125 -206 -1 -198 238 -297 379 -156
84 84 90 210 14 298 -50 59 -98 81 -175 81 -37 -1 -75 -7 -93 -17z m150 -153
c44 -48 10 -120 -56 -120 -44 0 -69 27 -69 72 0 60 85 93 125 48z"/>
</g>
</svg>
