<svg id="svg" fill="#000000" stroke="#000000" width="200px" height="200px" version="1.1" viewBox="144 144 512 512" xmlns="http://www.w3.org/2000/svg">
    <g id="IconSvg_bgCarrier" stroke-width="0"></g>
    <g id="IconSvg_tracerCarrier" stroke-linecap="round" stroke-linejoin="round" stroke="#CCCCCC"></g>
     <g id="IconSvg_iconCarrier">
      <path xmlns="http://www.w3.org/2000/svg" d="m400 263.1c-125.01 0-226.71 101.7-226.71 226.71 0 30.578 116.81 47.078 226.71 47.078s226.71-16.5 226.71-47.078c-0.003906-125.01-101.71-226.71-226.71-226.71zm-180.67 98.367c1.8242 8.3125 19.477 15.172 45.945 20.293-0.96875 2.3594-1.9336 4.7148-2.8516 7.1289-33.211 4.9883-58.582 11.93-69.031 20.52 6.6836-17.113 15.426-33.191 25.938-47.941zm387.28 47.941c-10.449-8.5898-35.82-15.531-69.031-20.52-0.91797-2.4102-1.8828-4.7695-2.8516-7.1289 26.469-5.1172 44.121-11.98 45.949-20.293 10.508 14.75 19.25 30.828 25.934 47.941zm-173.51 122.04c-0.007812-25.25-0.47656-50.648-1.375-75.219 20.059-0.55469 39.809-1.6328 58.484-3.1914 2.6172 23.676 4.0469 48.766 4.1055 74.746-19.148 1.7656-39.727 3.0234-61.215 3.6641zm-183.61-88.477c3.6719-18.238 8.6211-35.574 14.676-51.746 11.18-1.6328 23.238-3.0586 35.883-4.2656 5.8594 0.67188 11.895 1.2891 18.109 1.8398-4.3281 18.645-7.8281 38.836-10.348 60.234-2.3281 0.20312-4.6523 0.40625-6.9336 0.625-18.699-1.7656-36.148-4.0117-51.387-6.6875zm38.785 8.0039c-14.98 1.6797-28.848 3.6875-41.348 5.9883 0.625-3.8789 1.3164-7.7188 2.0547-11.523 11.926 2.1367 25.152 3.9883 39.293 5.5352zm-41.211-8.4492c-33.965-6.1641-56.43-14.473-56.43-24.254 0-11.102 28.926-20.312 70.793-26.633-5.9023 15.949-10.754 32.98-14.363 50.887zm44.699-105.96c7.3438-0.96875 15.191-1.8438 23.496-2.6133 6.0977 0.60938 12.52 1.1484 19.168 1.6133-5.5938 14.07-10.586 29.891-14.844 47.172-6.9336 0.50781-13.734 1.0781-20.371 1.7148-11.285-1.332-21.504-2.8711-30.559-4.5586 6.6602-15.809 14.434-30.32 23.109-43.328zm-25.539 42.867c-28.418-5.5234-44.617-12.57-44.617-19.387 0-8.4453 24.832-17.242 66.984-23.055-8.3828 12.812-15.898 27.027-22.367 42.441zm-4.4609-62.824c0.87891-0.70312 1.7617-1.3945 2.6523-2.0859 6.8633-3.7812 24.676-7.4688 50.434-10.102-7.3047 7.2656-14.211 15.438-20.668 24.414-20.898-3.1875-32.934-7.1484-32.934-10.91 0.003906-0.4375 0.19531-0.875 0.51562-1.3164zm241.37 12.625c-5.707 0.82031-12.012 1.5859-18.879 2.2773-6.832-0.625-13.859-1.1758-21.031-1.6445-4.4648-10.52-9.2773-19.945-14.395-28.125 11.816 0.58594 22.711 1.375 32.547 2.3125 7.7148 7.4023 14.977 15.859 21.758 25.18zm28.223 50.66c-9.0508 1.6914-19.273 3.2266-30.559 4.5586-6.6406-0.63672-13.441-1.207-20.371-1.7148-4.2578-17.281-9.25-33.105-14.844-47.172 6.6484-0.46484 13.07-1.0039 19.168-1.6133 8.3047 0.76953 16.152 1.6484 23.496 2.6133 8.6758 13.008 16.449 27.52 23.109 43.328zm-19.938-42.902c42.156 5.8125 66.988 14.609 66.988 23.055 0 6.8203-16.199 13.867-44.621 19.391-6.4727-15.418-13.984-29.633-22.367-42.445zm39.102 105.98c-15.238 2.6758-32.684 4.9219-51.387 6.6875-2.2812-0.21875-4.6055-0.42188-6.9336-0.62891-2.5195-21.398-6.0195-41.59-10.348-60.234 6.2148-0.54688 12.25-1.168 18.109-1.8398 12.641 1.207 24.699 2.6328 35.879 4.2617 6.0586 16.18 11.004 33.512 14.68 51.754zm-11.938-51.332c41.871 6.3203 70.797 15.531 70.797 26.633 0 9.7812-22.465 18.094-56.43 24.254-3.6172-17.906-8.4648-34.938-14.367-50.887zm-217.18-6.4648c16.562-1.2031 33.785-2.043 51.113-2.4805-0.18359 2.2266-0.36328 4.4492-0.53906 6.7148-18.34-0.48438-35.379-1.4375-50.918-2.7539 0.11719-0.48828 0.22656-0.99219 0.34375-1.4805zm-2.6875 1.2852c-2.1406-0.1875-4.2461-0.38672-6.3281-0.58984 2.1836-0.17969 4.3789-0.35156 6.5859-0.51563-0.085938 0.36719-0.17188 0.73828-0.25781 1.1055zm19.516-54.285c12.512-0.78516 25.828-1.3477 39.871-1.6328-0.20703 1.4688-0.40625 2.9805-0.60547 4.4883-14.281-0.30469-27.602-0.89453-39.75-1.6992 0.16016-0.39062 0.32031-0.76953 0.48438-1.1562zm-2.8359 0.99219c-1.9141-0.13281-3.7969-0.26953-5.6523-0.41406 1.9883-0.14453 3.9766-0.29297 6.0078-0.42578-0.11719 0.28125-0.23828 0.55469-0.35547 0.83984zm126.87 0.16406c-12.148 0.80469-25.469 1.3945-39.75 1.6992-0.19922-1.5078-0.39844-3.0195-0.60547-4.4883 14.043 0.28516 27.359 0.84375 39.871 1.6328 0.16406 0.38672 0.32422 0.76562 0.48437 1.1562zm1.9961-1.0039c2.0312 0.13281 4.0195 0.28125 6.0078 0.42578-1.8516 0.14453-3.7383 0.28125-5.6523 0.41406-0.11719-0.28516-0.23828-0.55859-0.35547-0.83984zm14.691 54.328c-15.539 1.3164-32.578 2.2695-50.918 2.7539-0.17188-2.2656-0.35547-4.4883-0.53906-6.7148 17.332 0.43359 34.551 1.2773 51.113 2.4805 0.11719 0.48828 0.23047 0.99219 0.34375 1.4805zm2.0859-1.3008c2.2109 0.16406 4.4062 0.33594 6.5859 0.51563-2.082 0.20312-4.1875 0.39844-6.3281 0.58984-0.085937-0.36719-0.16797-0.73828-0.25781-1.1055zm-81.031-55.043c6.6289 0 13.121 0.058594 19.473 0.17578 0.21094 1.5039 0.42188 3.0352 0.62891 4.5859-6.5195 0.125-13.215 0.19531-20.102 0.19531s-13.582-0.070313-20.102-0.19531c0.20703-1.5508 0.41406-3.0859 0.62891-4.5859 6.3477-0.11328 12.844-0.17578 19.473-0.17578zm-19.117-2.2852c1.5039-10.375 3.1055-19.52 4.7773-27.348 4.6875-0.066406 9.4648-0.097656 14.34-0.097656 4.8711 0 9.6523 0.035156 14.34 0.097656 1.6719 7.8281 3.2734 16.977 4.7773 27.348-6.3672-0.12109-12.75-0.19141-19.117-0.19141-6.3711 0-12.754 0.070313-19.117 0.19141zm19.117 9.7188c6.793 0 13.625-0.070313 20.426-0.20703 1.6523 12.699 3.168 26.93 4.4922 42.609-8.2969-0.17969-16.617-0.28125-24.918-0.28125s-16.625 0.10156-24.914 0.28125c1.3242-15.68 2.8398-29.91 4.4922-42.609 6.7969 0.13672 13.629 0.20703 20.422 0.20703zm0 44.602c8.3477 0 16.738 0.10547 25.117 0.30078 0.1875 2.2578 0.375 4.5039 0.55078 6.8164-8.3125 0.19922-16.859 0.3125-25.668 0.3125-8.8125 0-17.355-0.11328-25.672-0.31641 0.17969-2.3164 0.36719-4.5586 0.55078-6.8203 8.3789-0.1875 16.773-0.29297 25.121-0.29297zm27.289-2.1484c-1.2852-15.355-2.7773-29.691-4.4609-42.715 13.863-0.30859 27.551-0.89453 40.426-1.7539 5.5469 13.922 10.492 29.645 14.719 46.828-16.387-1.1562-33.449-1.9492-50.684-2.3594zm-5.7422-52.121c-1.4609-10.145-3.043-19.363-4.7539-27.363 10.281 0.16406 20.086 0.47266 29.359 0.90234 5.1875 8.1055 10.074 17.516 14.598 28.094-12.754-0.79688-25.922-1.3477-39.203-1.6328zm-5.3164-29.84c-3.3047-14.73-7.0508-25.117-11.199-29.793 14.219 2.082 27.609 12.941 39.484 30.637-9.2539-0.41406-18.754-0.69531-28.285-0.84375zm-2.4219-0.039063c-4.6055-0.0625-9.2188-0.097656-13.809-0.097656s-9.2031 0.035156-13.809 0.097656c4.3516-19.5 9.1289-30.137 13.809-30.137 4.6758 0 9.457 10.637 13.809 30.137zm-18.844-29.758c-4.1484 4.6797-7.8945 15.066-11.199 29.793-9.5312 0.15234-19.027 0.42969-28.285 0.84375 11.875-17.695 25.266-28.555 39.484-30.637zm-42.172 30.766c-10.863 0.51562-21.352 1.2148-31.152 2.0859 18.656-17.027 39.664-28.234 62.074-31.902-11.055 5.1328-21.477 15.367-30.922 29.816zm30.41 1.5078c-1.7109 8-3.293 17.215-4.7539 27.363-13.281 0.28516-26.449 0.83594-39.203 1.6367 4.5234-10.582 9.4102-19.992 14.598-28.094 9.2734-0.43359 19.078-0.74219 29.359-0.90625zm-6.0391 36.773c-1.6797 13.023-3.1758 27.359-4.4609 42.715-17.234 0.41016-34.297 1.2031-50.684 2.3594 4.2305-17.184 9.1719-32.906 14.719-46.828 12.875 0.85938 26.566 1.4414 40.426 1.7539zm-5.375 54.359c-1.2734 17.051-2.3125 35.125-3.0977 53.793-20.551 0.54688-40.137 1.625-58.406 3.1719 2.4961-21.262 5.9531-41.32 10.223-59.812 16.316 1.3906 33.656 2.3516 51.281 2.8477zm2.3594 0.070312c8.5898 0.22266 17.23 0.33984 25.852 0.33984 8.6172 0 17.262-0.11719 25.852-0.33984 1.2422 16.531 2.2773 34.477 3.0664 53.668-9.4609-0.23438-19.094-0.36719-28.918-0.36719s-19.457 0.13281-28.914 0.36719c0.78516-19.195 1.8203-37.137 3.0625-53.668zm54.062-0.070312c17.625-0.5 34.961-1.457 51.281-2.8477 4.2695 18.496 7.7266 38.551 10.223 59.812-18.266-1.5469-37.852-2.625-58.406-3.1719-0.78516-18.668-1.8242-36.742-3.0977-53.793zm83.215-6.3086c7.3906-1 14.367-2.1094 20.863-3.3125 0.85547 2.0781 1.7109 4.1523 2.5273 6.2734-7.457-1.0859-15.27-2.0742-23.391-2.9609zm-15.344-52.852c3.0117-0.375 5.9023-0.77344 8.6836-1.1914 0.57422 0.80859 1.1602 1.5938 1.7227 2.418-3.4023-0.42578-6.8594-0.83984-10.406-1.2266zm-48.879-33.48c-9.4492-14.449-19.867-24.688-30.918-29.812 22.406 3.668 43.414 14.871 62.07 31.898-9.7969-0.87109-20.289-1.5664-31.152-2.0859zm-129.56 2.457c-19.406 1.8594-35.77 4.4336-46.277 7.6836 28.52-20.387 62.035-34.184 98.34-39.168-18.699 5.6797-36.262 16.477-52.062 31.484zm0.98047 2.3906c9.8359-0.9375 20.734-1.7266 32.551-2.3125-5.1172 8.1836-9.9297 17.609-14.395 28.125-7.1719 0.46875-14.199 1.0195-21.031 1.6445-6.8672-0.69141-13.176-1.457-18.883-2.2773 6.7852-9.3203 14.047-17.777 21.758-25.18zm-14.711 28.633c-3.5469 0.38672-7.0039 0.80078-10.41 1.2305 0.56641-0.82422 1.1523-1.6094 1.7227-2.418 2.7852 0.41406 5.6758 0.8125 8.6875 1.1875zm-15.344 52.852c-8.125 0.88672-15.938 1.875-23.391 2.957 0.81641-2.1211 1.6758-4.1953 2.5273-6.2734 6.5 1.207 13.473 2.3164 20.863 3.3164zm80.016 62.605c-0.074219 1.8516-0.14453 3.7227-0.21484 5.5859-17.836-0.51562-35.523-1.4453-52.434-2.7656 16.691-1.3398 34.348-2.3008 52.648-2.8203zm2.3906-0.058594c9.5234-0.24609 19.203-0.39062 29.023-0.39062s19.496 0.14062 29.023 0.39062c0.074218 1.8828 0.14062 3.8086 0.21094 5.7188-9.7461 0.26172-19.523 0.39453-29.234 0.39453s-19.488-0.13672-29.234-0.39453c0.070313-1.9062 0.13672-3.832 0.21094-5.7188zm60.434 0.058594c18.301 0.51953 35.957 1.4766 52.648 2.8203-16.906 1.3203-34.598 2.25-52.434 2.7656-0.070312-1.8633-0.14062-3.7305-0.21484-5.5859zm61.219 4.6914c2.0664-0.17969 4.1133-0.36328 6.1523-0.55469 20.109 1.9609 38.547 4.4883 54.695 7.4648 2.9258 19.02 4.5156 38.859 4.543 59.285-17.719 3.4531-38.422 6.3516-61.23 8.5195-0.070312-25.961-1.5195-51.035-4.1602-74.715zm19.098-1.8594c14.141-1.5469 27.367-3.3984 39.293-5.5352 0.73828 3.8047 1.4258 7.6445 2.0547 11.523-12.5-2.2969-26.367-4.3086-41.348-5.9883zm41.711-5.9727c31.516-5.832 53.324-13.707 57.578-23.285 6.2578 19.344 9.8984 39.844 10.566 61.086-7.6211-9.9922-31.371-18.785-65.945-25.355-0.67188-4.1875-1.4023-8.3398-2.1992-12.445zm-43.801-110.69c-0.72656-1.0781-1.4414-2.1758-2.1797-3.2344 19.344-3.0703 32.219-7.1719 33.613-12.242 11.121 9.1914 21.32 19.453 30.469 30.613-11.867-6.3672-34.184-11.484-61.902-15.137zm28.605-17.703c0.31641 0.4375 0.51172 0.875 0.51172 1.3125 0 3.7656-12.035 7.7266-32.934 10.914-6.4531-8.9766-13.359-17.148-20.668-24.414 25.758 2.6328 43.57 6.3203 50.434 10.102 0.89062 0.6875 1.7773 1.3828 2.6562 2.0859zm-55.895-14.949c-15.801-15.008-33.363-25.805-52.062-31.48 36.305 4.9844 69.816 18.777 98.34 39.168-10.508-3.2578-26.871-5.8281-46.277-7.6875zm-223.42 17.176c1.3906 5.0664 14.266 9.168 33.609 12.242-0.73828 1.0586-1.4531 2.1562-2.1797 3.2344-27.723 3.6523-50.035 8.7695-61.898 15.141 9.1445-11.16 19.348-21.426 30.469-30.617zm-12.371 126.16c-0.79688 4.1055-1.5273 8.2578-2.1953 12.449-34.574 6.5703-58.324 15.363-65.945 25.352 0.66406-21.242 4.3047-41.742 10.562-61.086 4.2539 9.5781 26.062 17.453 57.578 23.285zm-2.6016 15.207c-2.8477 18.734-4.4023 38.25-4.4531 58.328-37.742-7.5898-61.266-17.742-61.266-28.719 0-11.41 25.355-21.934 65.719-29.609zm-1.9805 58.82c0.027344-20.422 1.6172-40.266 4.543-59.285 16.148-2.9766 34.586-5.5039 54.695-7.4648 2.0391 0.19141 4.0859 0.375 6.1523 0.55469-2.6406 23.68-4.0898 48.754-4.1602 74.715-22.809-2.168-43.512-5.0664-61.23-8.5195zm67.816-65.992c18.676 1.5586 38.426 2.6367 58.484 3.1914-0.89844 24.566-1.3672 49.969-1.375 75.219-21.492-0.64062-42.066-1.8984-61.219-3.6602 0.0625-25.984 1.4922-51.074 4.1094-74.75zm60.883 3.2656c9.7461 0.24609 19.551 0.375 29.324 0.375s19.578-0.125 29.32-0.375c0.82813 23.43 1.2891 48.559 1.2969 75.207-10.039 0.27344-20.25 0.42969-30.617 0.42969s-20.582-0.15234-30.617-0.42969c0.003907-26.652 0.46875-51.781 1.293-75.207zm189.81 62.234c-0.050781-20.078-1.6055-39.594-4.4531-58.328 40.367 7.6758 65.723 18.199 65.723 29.605 0 10.98-23.523 21.133-61.27 28.723z"></path>

      </g>
      </svg>