<?xml version="1.0" encoding="UTF-8"?>
<svg xmlns="http://www.w3.org/2000/svg" xmlns:xlink="http://www.w3.org/1999/xlink" width="30px" height="30px" viewBox="0 0 30 30" version="1.1">
<g id="surface1">
<path style=" stroke:none;fill-rule:nonzero;fill:rgb(0%,0%,0%);fill-opacity:1;" d="M 24.375 3.75 L 5.625 3.75 C 4.589844 3.75 3.75 4.589844 3.75 5.625 L 3.75 24.375 C 3.75 25.410156 4.589844 26.25 5.625 26.25 L 24.375 26.25 C 25.410156 26.25 26.25 25.410156 26.25 24.375 L 26.25 5.625 C 26.25 4.589844 25.410156 3.75 24.375 3.75 Z M 5.625 24.375 L 5.625 5.625 L 24.375 5.625 L 24.375 24.375 Z M 5.625 24.375 "/>
<path style=" stroke:none;fill-rule:nonzero;fill:rgb(0%,0%,0%);fill-opacity:1;" d="M 13.125 20.15625 L 8.4375 15.507812 L 9.929688 14.0625 L 13.125 17.203125 L 20.070312 10.3125 L 21.5625 11.792969 Z M 13.125 20.15625 "/>
</g>
</svg>
