<svg xmlns="http://www.w3.org/2000/svg" width="130" height="130" viewBox="0 0 130 130" fill="none">
<path d="M100.5 23H116.5V16C116.5 11.5817 112.918 8 108.5 8V8C104.082 8 100.5 11.5817 100.5 16V114.75C100.5 119.03 97.0302 122.5 92.75 122.5V122.5C88.4698 122.5 85 119.03 85 114.75V107.5H21M92.75 122.5H23C17.4772 122.5 13 118.023 13 112.5V107.5H21M108.5 8H31C25.4772 8 21 12.4772 21 18V107.5" stroke="#00458b" stroke-width="2" stroke-linecap="round" stroke-linejoin="round" fill="#ffffff"/>
<path d="M61.8906 23.7366L63.4478 25.243C64.3345 26.1009 65.5675 26.5015 66.7891 26.3287L68.9344 26.0253C70.0025 25.8742 70.998 26.5975 71.1844 27.66L71.5587 29.794C71.7719 31.0092 72.5339 32.0581 73.6238 32.6364L75.5377 33.6518C76.4906 34.1574 76.8709 35.3277 76.3971 36.2969L75.4456 38.2433C74.9038 39.3518 74.9038 40.6482 75.4456 41.7567L76.3971 43.7031C76.8709 44.6723 76.4906 45.8426 75.5377 46.3482L73.6238 47.3636C72.5339 47.9419 71.7719 48.9908 71.5587 50.206L71.1844 52.34C70.998 53.4025 70.0025 54.1258 68.9344 53.9747L66.7891 53.6713C65.5675 53.4985 64.3345 53.8991 63.4478 54.757L61.8906 56.2634C61.1152 57.0135 59.8848 57.0135 59.1094 56.2634L57.5522 54.757C56.6655 53.8991 55.4325 53.4985 54.2109 53.6713L52.0656 53.9747C50.9975 54.1258 50.002 53.4025 49.8156 52.34L49.4413 50.206C49.2281 48.9908 48.4661 47.9419 47.3762 47.3636L45.4623 46.3482C44.5094 45.8426 44.1291 44.6723 44.6029 43.7031L45.5544 41.7567C46.0962 40.6482 46.0962 39.3518 45.5544 38.2433L44.6029 36.2969C44.1291 35.3277 44.5094 34.1574 45.4623 33.6518L47.3762 32.6364C48.4661 32.0581 49.2281 31.0092 49.4413 29.794L49.8156 27.66C50.002 26.5975 50.9975 25.8742 52.0656 26.0253L54.2109 26.3287C55.4325 26.5015 56.6655 26.1009 57.5522 25.243L59.1094 23.7366C59.8848 22.9865 61.1152 22.9865 61.8906 23.7366Z" stroke="#00458b" stroke-width="2" fill="#ffffff"/>
<circle cx="60" cy="39.5" r="9.5" stroke="#00458b" stroke-width="2" fill="#ffffff"/>
<path d="M39 68L38.455 67.1616L36.5295 68.4132L38.7575 68.9701L39 68ZM50.5 67.5L51.4986 67.4474C51.4826 67.1433 51.3289 66.863 51.081 66.6861C50.8331 66.5091 50.5181 66.4548 50.2253 66.5385L50.5 67.5ZM51 77L50.0014 77.0526L50.0937 78.8061L51.5547 77.8321L51 77ZM47.0329 47.7545C47.402 49.157 47.6581 52.4753 46.5999 56.2287C45.5509 59.9496 43.221 64.0636 38.455 67.1616L39.545 68.8384C44.7788 65.4364 47.3655 60.8838 48.5249 56.7713C49.6751 52.6914 49.4313 49.0097 48.9671 47.2455L47.0329 47.7545ZM38.7575 68.9701C42.9859 70.0272 47.1751 69.49 50.7747 68.4615L50.2253 66.5385C46.8249 67.51 43.0141 67.9728 39.2425 67.0299L38.7575 68.9701ZM49.5014 67.5526L50.0014 77.0526L51.9986 76.9474L51.4986 67.4474L49.5014 67.5526ZM51.5547 77.8321C54.8087 75.6627 61 68.5624 61 57H59C59 67.8376 53.1913 74.3373 50.4453 76.1679L51.5547 77.8321Z" fill="#00458b"/>
<path d="M82.5 68L83.045 67.1616L84.9705 68.4132L82.7425 68.9701L82.5 68ZM71 67.5L70.0014 67.4474C70.0174 67.1433 70.1711 66.863 70.419 66.6861C70.6669 66.5091 70.9819 66.4548 71.2747 66.5385L71 67.5ZM70.5 77L71.4986 77.0526L71.4063 78.8061L69.9453 77.8321L70.5 77ZM74.4671 47.7545C74.098 49.157 73.8419 52.4753 74.9001 56.2287C75.9491 59.9496 78.279 64.0636 83.045 67.1616L81.955 68.8384C76.7212 65.4364 74.1345 60.8838 72.9751 56.7713C71.8249 52.6914 72.0687 49.0097 72.5329 47.2455L74.4671 47.7545ZM82.7425 68.9701C78.5141 70.0272 74.3249 69.49 70.7253 68.4615L71.2747 66.5385C74.6751 67.51 78.4859 67.9728 82.2575 67.0299L82.7425 68.9701ZM71.9986 67.5526L71.4986 77.0526L69.5014 76.9474L70.0014 67.4474L71.9986 67.5526ZM69.9453 77.8321C66.6913 75.6627 60.5 68.5624 60.5 57H62.5C62.5 67.8376 68.3087 74.3373 71.0547 76.1679L69.9453 77.8321Z" fill="#00458b"/>
<path d="M41.5 87H80.5M41.5 92H80.5M51 97H71.5" stroke="#00458b" stroke-width="2" stroke-linecap="round" stroke-linejoin="round" fill="#ffffff"/>
</svg>