<svg xmlns="http://www.w3.org/2000/svg" width="130" height="130" viewBox="0 0 130 130" fill="none">
<path d="M73.5031 12.131L76.0819 14.2247C78.4939 16.1829 81.4239 17.3966 84.5142 17.7175L87.8181 18.0605C94.4061 18.7446 99.6133 23.9518 100.297 30.5398L100.64 33.8437C100.961 36.9339 102.175 39.8639 104.133 42.276L106.227 44.8548C110.402 49.9969 110.402 57.361 106.227 62.5031L104.133 65.0819C102.175 67.4939 100.961 70.4239 100.64 73.5142L100.297 76.8181C99.6133 83.4061 94.4061 88.6133 87.8181 89.2973L84.5142 89.6404C81.4239 89.9613 78.4939 91.1749 76.0819 93.1332L73.5031 95.2268C68.361 99.4015 60.9969 99.4015 55.8548 95.2268L53.276 93.1332C50.8639 91.1749 47.9339 89.9613 44.8437 89.6404L41.5398 89.2973C34.9518 88.6133 29.7446 83.4061 29.0605 76.8181L28.7175 73.5142C28.3966 70.4239 27.1829 67.4939 25.2247 65.0819L23.131 62.5031C18.9563 57.361 18.9563 49.9969 23.131 44.8548L25.2247 42.276C27.1829 39.8639 28.3966 36.9339 28.7175 33.8437L29.0605 30.5398C29.7446 23.9518 34.9518 18.7446 41.5398 18.0605L44.8437 17.7175C47.9339 17.3966 50.8639 16.1829 53.276 14.2247L55.8548 12.131C60.9969 7.95632 68.361 7.95632 73.5031 12.131Z" stroke="#00458b" stroke-width="2" fill="#ffffff"/>
<circle cx="64.6804" cy="53.679" r="32" stroke="#00458b" stroke-width="2" fill="#ffffff"/>
<path d="M64.9062 76.179C76.7167 73.0964 84.9047 54.6805 84.9062 41.679C84.9062 41.679 78.7129 40.4878 74.9062 39.179C70.8565 37.7866 64.9062 34.679 64.9062 34.679C64.9062 34.679 58.956 37.7866 54.9062 39.179C51.0995 40.4878 44.9062 41.679 44.9062 41.679C44.7167 56.7615 53.0957 73.0964 64.9062 76.179Z" stroke="#00458b" stroke-width="2" fill="#ffffff"/>
<path d="M56.6804 53.679L63.1804 60.179L73.6804 49.679" stroke="#00458b" stroke-width="2" stroke-linecap="round" fill="#ffffff"/>
<path d="M36.865 88.679L24.6804 111.179H37.8804L44.4804 121.679L57.6804 96.679M48.0343 91.179L40.4189 105.179" stroke="#00458b" stroke-width="2" stroke-linecap="round" stroke-linejoin="round" fill="#ffffff"/>
<path d="M92.4958 88.679L104.68 111.179H91.4804L84.8804 121.679L71.6804 96.679M81.3266 91.179L88.942 105.179" stroke="#00458b" stroke-width="2" stroke-linecap="round" stroke-linejoin="round" fill="#ffffff"/>
</svg>