<svg xmlns="http://www.w3.org/2000/svg" width="130" height="130" viewBox="0 0 130 130" fill="none">
<path d="M60.2 45.7999H38.6C38.6 48.1999 29 48.1999 29 52.9999V120.2C29 121.473 29.5057 122.694 30.4059 123.594C31.3061 124.494 32.527 125 33.8 125H65C66.273 125 67.4939 124.494 68.3941 123.594C69.2943 122.694 69.8 121.473 69.8 120.2V52.9999C69.8 48.1999 60.2 48.1999 60.2 45.7999Z" stroke="#00458b" stroke-width="2" stroke-miterlimit="10" fill="#ffffff"/>
<path d="M60.2016 41V45.8H38.6016V41H41.0016V24.2H57.8016V41H60.2016Z" stroke="#00458b" stroke-width="2" stroke-miterlimit="10" fill="#ffffff"/>
<path d="M55.3978 5H43.3978V24.2H55.3978V5Z" stroke="#00458b" stroke-width="2" stroke-miterlimit="10" fill="#ffffff"/>
<path d="M47 9.80005H51.8" stroke="#00458b" stroke-width="2" fill="#ffffff"/>
<path d="M69.8 62.6H29V115.4H69.8V62.6Z" stroke="#00458b" stroke-width="2" stroke-miterlimit="10" fill="#ffffff"/>
<path d="M47 27.7999V42.1999" stroke="#00458b" stroke-width="2" fill="#ffffff"/>
<path d="M51.8008 27.8V42.2001" stroke="#00458b" stroke-width="2" fill="#ffffff"/>
<path d="M101 88.9999H77V117.8H101V88.9999Z" stroke="#00458b" stroke-width="2" stroke-miterlimit="10" fill="#ffffff"/>
<path d="M95.9883 80.6H82.0118C82.0118 83 77 83.9818 77 86.6L77 122.382C77 123.076 77.3272 123.742 77.9097 124.233C78.4922 124.724 79.2822 125 80.1059 125H97.8942C98.718 125 99.508 124.724 100.09 124.233C100.673 123.742 101 123.076 101 122.382L101 86.6C101 84.2 95.9883 83 95.9883 80.6Z" stroke="#00458b" stroke-width="2" stroke-miterlimit="10" fill="#ffffff"/>
<path d="M79.4 75.8V61.4H98.6V75.8H101V80.6H77V75.8H79.4Z" stroke="#00458b" stroke-width="2" fill="#ffffff"/>
<path d="M84.1992 65.0001V77.0001" stroke="#00458b" stroke-width="2" fill="#ffffff"/>
<path d="M89 65V77" stroke="#00458b" stroke-width="2" fill="#ffffff"/>
<path d="M93.8011 65V77" stroke="#00458b" stroke-width="2" fill="#ffffff"/>
</svg>