<svg xmlns="http://www.w3.org/2000/svg" width="130" height="130" viewBox="0 0 130 130" fill="none">
<path d="M65.0023 22.3947C46.661 22.3947 31.7924 37.2632 31.7924 55.6046C32.3854 75.7677 45.8275 80.512 48.3973 88.2215C50.9672 95.9309 50.1765 106.012 50.1765 112.536C50.1765 116.658 51.9556 119.059 56.1068 119.059H73.8978C78.0491 119.059 79.8282 116.658 79.8282 112.536C79.8282 106.012 79.0375 95.9309 81.6073 88.2215C84.1771 80.512 97.6192 75.7677 98.2122 55.6046C98.2122 37.2632 83.3436 22.3947 65.0023 22.3947Z" stroke="#00458b" stroke-width="2" fill="#ffffff"/>
<circle cx="65.0014" cy="55.6045" r="21.5353" stroke="#00458b" stroke-width="2" fill="#ffffff"/>
<circle cx="65.0004" cy="55.6043" r="10.8607" stroke="#00458b" stroke-width="2" fill="#ffffff"/>
<path d="M64.9999 55.6045L91.0934 29.511M102.954 17.6503L101.768 6.97571L88.7212 20.0225L91.0934 29.511M102.954 17.6503L91.0934 29.511M102.954 17.6503L113.629 18.8364L100.582 31.8831L91.0934 29.511" stroke="#00458b" stroke-width="2" stroke-linecap="round" stroke-linejoin="round" fill="#ffffff"/>
<path d="M64.9999 14.0921V3.41748" stroke="#00458b" stroke-width="2" stroke-linecap="round" fill="#ffffff"/>
<path d="M64.9999 125.583V119.652" stroke="#00458b" stroke-width="2" stroke-linecap="round" fill="#ffffff"/>
<path d="M37.0464 23.6746L29.4983 16.1265" stroke="#00458b" stroke-width="2" stroke-linecap="round" fill="#ffffff"/>
<path d="M24.6746 52.0464L14 52.0464" stroke="#00458b" stroke-width="2" stroke-linecap="round" fill="#ffffff"/>
<path d="M79.8255 97.1171L50.7668 97.117" stroke="#00458b" stroke-width="2" stroke-linecap="round" fill="#ffffff"/>
<path d="M79.8255 104.233L50.7668 104.233" stroke="#00458b" stroke-width="2" stroke-linecap="round" fill="#ffffff"/>
<path d="M79.8255 111.35L50.7668 111.35" stroke="#00458b" stroke-width="2" stroke-linecap="round" fill="#ffffff"/>
<path d="M116.001 52.0464L105.326 52.0464" stroke="#00458b" stroke-width="2" stroke-linecap="round" fill="#ffffff"/>
</svg>