<svg xmlns="http://www.w3.org/2000/svg" width="130" height="130" viewBox="0 0 130 130" fill="none">
<path d="M79.7987 57.3364L68.8393 51.009L63.3597 54.1727L60.6198 55.7546" stroke="#00458b" stroke-width="2" fill="#ffffff"/>
<path d="M90.7646 51.009L79.8052 57.3364V69.9912M101.724 57.3364V69.9912L90.7646 76.3186" stroke="#00458b" stroke-width="2" fill="#ffffff"/>
<path d="M100.898 69.5692L111.857 75.8966V88.5514" stroke="#00458b" stroke-width="2" fill="#ffffff"/>
<path d="M90.7646 113.017L79.8052 106.69L79.8052 94.0351" stroke="#00458b" stroke-width="2" fill="#ffffff"/>
<path d="M73.8987 73.4711L79.523 70.4128L90.7717 76.5293V88.7623L79.523 94.8788L73.8987 91.8205" stroke="#00458b" stroke-width="2" fill="#ffffff"/>
<path d="M107.647 54.7987L102.022 57.7583L90.7737 51.0227L90.7737 39.1843L102.022 32.4487L107.647 35.4083" stroke="#00458b" stroke-width="2" fill="#ffffff"/>
<path d="M93.3044 68.0928L90.4923 69.5692L84.8679 66.6164L84.8679 60.7109L90.4923 57.7581L93.3044 59.2345" stroke="#00458b" stroke-width="2" fill="#ffffff"/>
<circle cx="111.866" cy="93.1916" r="4.06192" stroke="#00458b" stroke-width="2" fill="#ffffff"/>
<path d="M44.9672 25.3671L44.9697 25.3671L58.6158 25.3502L58.6158 50.4795C58.6158 54.4483 60.7942 57.9491 63.7549 60.329C67.6055 63.4244 70.8501 67.3216 72.6552 71.6993C75.1804 77.8236 75.6235 84.6141 73.9156 91.0173C72.2076 97.4205 68.4444 103.078 63.2104 107.112C57.9766 111.147 51.5644 113.333 44.9685 113.333C38.3726 113.333 31.9604 111.147 26.7266 107.112C21.4927 103.078 17.7294 97.4205 16.0215 91.0173C14.3135 84.6141 14.7566 77.8236 17.2818 71.6993C19.0869 67.3216 22.3315 63.4244 26.1821 60.329C29.1428 57.9491 31.3212 54.4483 31.3212 50.4794L31.3212 25.3502L44.9672 25.3671Z" stroke="#00458b" stroke-width="2" fill="#ffffff"/>
<rect x="26.6885" y="16" width="36.5646" height="9.68623" rx="4.84311" stroke="#00458b" stroke-width="2" fill="#ffffff"/>
<path d="M32.1124 32.0266H46.0576" stroke="#00458b" stroke-width="2" stroke-linecap="round" fill="#ffffff"/>
<path d="M45.214 108.377L45.214 72.944" stroke="#00458b" stroke-width="2" stroke-linecap="round" fill="#ffffff"/>
<path d="M68.8353 51.009L68.8353 38.3542" stroke="#00458b" stroke-width="2" stroke-linecap="round" fill="#ffffff"/>
<path d="M101.74 32.4486L101.74 19.7938" stroke="#00458b" stroke-width="2" stroke-linecap="round" fill="#ffffff"/>
<path d="M31.7148 45.1034H46.4787" stroke="#00458b" stroke-width="2" stroke-linecap="round" fill="#ffffff"/>
<path d="M31.7148 38.3542H42.2604" stroke="#00458b" stroke-width="2" stroke-linecap="round" fill="#ffffff"/>
<path d="M32.1363 51.4304H42.682" stroke="#00458b" stroke-width="2" stroke-linecap="round" fill="#ffffff"/>
<path d="M37.6213 85.5988L45.0782 93.0557" stroke="#00458b" stroke-width="2" stroke-linecap="round" fill="#ffffff"/>
<path d="M45.214 85.4626L49.4323 79.693" stroke="#00458b" stroke-width="2" stroke-linecap="round" fill="#ffffff"/>
<path d="M33.2619 79.392L45.2143 60.4742L57.1668 79.392C60.7552 85.0716 59.9522 92.5102 55.2411 97.2725C49.7022 102.872 40.7264 102.872 35.1875 97.2725C30.4765 92.5102 29.6735 85.0716 33.2619 79.392Z" stroke="#00458b" stroke-width="2" fill="#ffffff"/>
<circle cx="68.8386" cy="33.292" r="4.06192" stroke="#00458b" stroke-width="2" fill="#ffffff"/>
<path d="M90.7651 39.4087L79.8057 33.0813" stroke="#00458b" stroke-width="2" fill="#ffffff"/>
</svg>