<?xml version="1.0" encoding="UTF-8"?>
<svg xmlns="http://www.w3.org/2000/svg" xmlns:xlink="http://www.w3.org/1999/xlink" width="80px" height="80px" viewBox="0 0 80 80" version="1.1">
<g id="surface1">
<path style=" stroke:none;fill-rule:nonzero;fill:rgb(24.705882%,82.352941%,78.039216%);fill-opacity:1;" d="M 48.328125 47.601562 C 48.328125 47.601562 44.171875 52.914062 38.855469 47.601562 C 33.699219 42.601562 29.949219 47.601562 29.949219 47.601562 L 17.53125 72.078125 C 17.171875 73.410156 17.964844 74.78125 19.296875 75.136719 L 60.539062 75.136719 C 61.871094 74.78125 62.664062 73.414062 62.308594 72.078125 Z M 67.347656 70.824219 L 47.398438 37.253906 L 47.398438 37.191406 L 47.363281 17.519531 L 48.742188 17.519531 C 50.808594 17.519531 52.488281 15.84375 52.488281 13.773438 C 52.488281 11.703125 50.808594 10.027344 48.742188 10.027344 L 28.753906 10.027344 C 26.6875 10.027344 25.011719 11.703125 25.011719 13.773438 C 25.011719 15.84375 26.6875 17.519531 28.753906 17.519531 L 29.960938 17.519531 L 29.921875 37.199219 L 12.648438 70.824219 C 11.578125 74.824219 13.953125 78.929688 17.949219 80 L 62.050781 80 C 66.050781 78.929688 68.421875 74.824219 67.347656 70.824219 Z M 61.382812 77.496094 L 18.613281 77.449219 C 15.949219 76.734375 14.371094 73.992188 15.082031 71.332031 L 32.449219 37.292969 L 32.503906 15.023438 L 28.757812 15.023438 C 28.070312 15.023438 27.511719 14.460938 27.511719 13.773438 C 27.511719 13.082031 28.070312 12.523438 28.757812 12.523438 L 48.746094 12.523438 C 49.433594 12.523438 49.988281 13.085938 49.988281 13.773438 C 49.988281 14.460938 49.433594 15.023438 48.746094 15.023438 L 45 15.023438 L 45.0625 37.210938 L 64.910156 71.375 C 65.625 74.042969 64.042969 76.78125 61.382812 77.496094 Z M 41.199219 6.28125 C 41.199219 7.660156 42.320312 8.78125 43.699219 8.78125 C 45.078125 8.78125 46.199219 7.660156 46.199219 6.28125 C 46.199219 4.898438 45.082031 3.78125 43.699219 3.78125 C 42.316406 3.78125 41.199219 4.898438 41.199219 6.28125 Z M 43.699219 0.03125 C 45.769531 0.03125 47.449219 -1.648438 47.449219 -3.71875 C 47.449219 -5.792969 45.769531 -7.46875 43.699219 -7.46875 C 41.628906 -7.46875 39.949219 -5.792969 39.949219 -3.71875 C 39.949219 -1.648438 41.628906 0.03125 43.699219 0.03125 Z M 33.699219 6.28125 C 35.082031 6.28125 36.199219 5.160156 36.199219 3.78125 C 36.199219 2.398438 35.082031 1.28125 33.699219 1.28125 C 32.316406 1.28125 31.199219 2.398438 31.199219 3.78125 C 31.199219 5.160156 32.316406 6.28125 33.699219 6.28125 Z M 33.699219 6.28125 "/>
</g>
</svg>
