<svg xmlns="http://www.w3.org/2000/svg" xmlns:xlink="http://www.w3.org/1999/xlink" width="150" height="40" version="1.1" id="okil" x="0px" y="0px" viewBox="0 0 242 22" style="enable-background:new 0 0 242 22;" xml:space="preserve">
<style type="text/css">
	.st0{fill:#0075BF;}
	.st1{fill:url(#SVGID_1_);}
	.st2{fill:url(#SVGID_2_);}
	.st3{fill:url(#SVGID_3_);}
	.st4{fill:url(#SVGID_4_);}
	.st5{fill:url(#SVGID_5_);}
	.st6{fill:url(#SVGID_6_);}
	.st7{fill:url(#SVGID_7_);}
</style>
<path class="st0" d="M224.4,13.4L231,0.5c0.1-0.2,0.2-0.3,0.3-0.4s0.3-0.1,0.5-0.1h4.2c2.4,0,4.1,0.8,5.1,2.1  c0.5,0.8,0.8,1.7,0.9,2.7c0,1-0.2,1.9-0.7,2.7c-1.1,2.1-1.3,2.6-2.9,5.5c-2,3.9-4.2,5.8-5.7,6.8c-2.2,1.4-4.8,2.1-7.5,2h-0.9  L224.4,13.4L224.4,13.4z M224.4,8.6l4.1-7.9c0-0.1,0.1-0.2,0.1-0.3s0-0.2-0.1-0.3c0-0.1-0.1-0.1-0.2-0.2C228.1,0,228,0,227.9,0h-3.6  v8.6H224.4z M220.8,22c-0.1,0-0.2,0-0.3-0.1c-0.1,0-0.2-0.1-0.2-0.2s-0.1-0.2-0.1-0.3c0-0.1,0-0.2,0.1-0.3l4.1-7.8V22H220.8z   M224.4,0h-0.9c-2.6-0.1-5.3,0.6-7.5,2c-1.5,1-3.7,3-5.7,6.8l-0.6,1.2v11.4c1,0.4,2,0.5,3,0.5h4.3c0.2,0,0.3,0,0.5-0.1  c0.1-0.1,0.2-0.2,0.3-0.4l6.7-12.9L224.4,0L224.4,0z M209.6,6.1V0h2.5c0.4,0,0.6,0.2,0.3,0.7L209.6,6.1z M209.6,0v6.1l-3.3,6.3  c-0.2,0.4-0.5,0.4-0.7,0s-2.7-8.5-2.8-8.8s-0.5-0.4-0.6-0.1l-9.5,18.1c0,0.1-0.1,0.2-0.2,0.3c-0.1,0.1-0.2,0.1-0.3,0.1h-12.4  c-0.3,0-0.5-0.3-0.3-0.6c0.2-0.3,9.1-17.3,9.3-17.6c0.2-0.4-0.1-0.7-0.5-0.3c-0.5,0.4-11.7,8.9-11.9,9.1c-0.5,0.3-0.8,0.1-0.6-0.4  c0.3-0.5,5.9-11.3,6.1-11.7c0-0.1,0.1-0.3,0.3-0.3c0.1-0.1,0.3-0.1,0.4-0.1L209.6,0L209.6,0z M209.6,10.1c-1,1.9-1.3,2.6-2.2,4.3  c-0.5,0.8-0.7,1.8-0.7,2.7c0,1,0.3,1.9,0.9,2.7c0.5,0.7,1.2,1.3,2.1,1.6V10.1H209.6z M156.3,22v-4.2l1.1,3.6  c0.1,0.4-0.2,0.7-0.6,0.7h-0.5V22z M156.3,12l2.8,9.6c0,0.1,0.1,0.2,0.2,0.3c0.1,0.1,0.2,0.1,0.4,0.1h15.1c0.1,0,0.1,0,0.2,0  l0.1-0.1l0.1-0.1c0-0.1,0-0.1,0-0.2c-0.1-0.2-6.1-20.8-6.2-21.1c0-0.1-0.1-0.3-0.3-0.4C168.6,0,168.5,0,168.3,0h-4.5  c-0.1,0-0.2,0-0.3,0s-0.2,0.1-0.2,0.2l-7,6.8V12z M156.3,7v5l-1-3.5c0-0.1-0.1-0.2,0-0.3c0-0.1,0.1-0.2,0.1-0.2L156.3,7L156.3,7z   M156.3,17.8l-2.2-7.4c0-0.1-0.1-0.2-0.2-0.2c-0.1-0.1-0.2-0.1-0.3-0.1s-0.2,0-0.3,0s-0.2,0.1-0.3,0.2l-6.9,6.8V22h10.1L156.3,17.8  L156.3,17.8z M146.3,9.3V0h4.2c0.4,0,0.6,0.3,0.5,0.6L146.3,9.3z M146.3,0v9.3l-3.7,6.8c-0.2,0.5-0.7,0.3-0.8,0s-3.5-12-3.6-12.4  c-0.1-0.2-0.2-0.3-0.3-0.4c-0.2-0.1-0.3-0.2-0.5-0.2h-0.6c-0.1,0-0.5,0-0.4,0.5l4.5,15.2c0.1,0.3-0.1,0.5-0.4,1  c-0.6,0.7-1.3,1.3-2.2,1.7c-0.9,0.4-1.8,0.6-2.8,0.6h-25.2c-0.1,0-0.1,0-0.2,0S110,22,110,22c0-0.1-0.1-0.1-0.1-0.2s0-0.1,0-0.2  L118.3,6c0-0.1,0.1-0.1,0.2-0.2c0.1,0,0.1-0.1,0.2,0c0.1,0,0.1,0,0.2,0.1c0.1,0,0.1,0.1,0.1,0.2c0.1,0.3,3.5,12,3.6,12.4  c0.1,0.2,0.2,0.3,0.3,0.4c0.1,0.1,0.3,0.2,0.5,0.2h0.8c0.3,0,0.4-0.2,0.3-0.5L120,3.4c0-0.1,0-0.2,0-0.3s0.1-0.2,0.1-0.3  c0.1-0.2,0.2-0.4,0.4-0.6c0.6-0.7,1.4-1.2,2.2-1.6c0.8-0.4,1.8-0.6,2.7-0.5h20.9V0z M146.3,16.9l-4.6,4.5c-0.2,0.2-0.2,0.6,0.3,0.6  h4.3V16.9z"></path>
<g>
	
		<linearGradient id="SVGID_1_" gradientUnits="userSpaceOnUse" x1="10.658" y1="22.1395" x2="10.658" y2="10.6167" gradientTransform="matrix(1 0 0 -1 0 21.8898)">
		<stop offset="0" style="stop-color:#65B32E"></stop>
		<stop offset="1" style="stop-color:#289B38"></stop>
	</linearGradient>
	<path class="st1" d="M21.3,0.3c0-0.1,0.1-0.3-0.2-0.3h-3.7h-0.7c-2.6-0.1-5.3,0.6-7.5,2.1c-1.6,1.1-3.7,3-5.7,7   c-1.5,3-1.8,3.5-2.9,5.7C0.2,15.9,0,16.6,0,17.5c0,1,0.3,1.9,0.9,2.8c1,1.3,3.1,1.8,4.6,1.7h4.3c0.2,0,0.3,0,0.5-0.1   c0.1-0.1,0.2-0.2,0.3-0.4l6.9-13.6L21.3,0.3z"></path>
	
		<linearGradient id="SVGID_2_" gradientUnits="userSpaceOnUse" x1="41.6" y1="22.1283" x2="41.6" y2="10.6175" gradientTransform="matrix(1 0 0 -1 0 21.8898)">
		<stop offset="0" style="stop-color:#65B32E"></stop>
		<stop offset="1" style="stop-color:#289B38"></stop>
	</linearGradient>
	<path class="st2" d="M41.3,0c-0.1,0-0.2,0-0.3,0.1s-0.2,0.2-0.2,0.3L29.6,21.9V22H42c0.1,0,0.2,0,0.3-0.1s0.2-0.2,0.2-0.3L53.6,0.1   V0L41.3,0z"></path>
	
		<linearGradient id="SVGID_3_" gradientUnits="userSpaceOnUse" x1="24.15" y1="22.1297" x2="24.15" y2="10.6165" gradientTransform="matrix(1 0 0 -1 0 21.8898)">
		<stop offset="0" style="stop-color:#65B32E"></stop>
		<stop offset="1" style="stop-color:#289B38"></stop>
	</linearGradient>
	<path class="st3" d="M34,1.7c-0.1-0.1-0.2-0.3-0.3-0.4c-0.4-0.4-0.9-0.7-1.5-0.9l0,0C31.3,0.2,30.3,0,29.3,0h-4.2   c-0.2,0-0.3,0-0.5,0.1c-0.1,0.1-0.2,0.2-0.3,0.4L13.6,21.6c-0.1,0.1-0.1,0.2-0.1,0.3h3.9v-0.1v0.1H18c2.6,0.1,5.3-0.6,7.5-2.1   c1.6-1.1,3.7-3,5.7-7l2.9-5.7c0.5-0.9,0.7-1.8,0.7-2.8C34.8,3.5,34.5,2.5,34,1.7z"></path>
	
		<linearGradient id="SVGID_4_" gradientUnits="userSpaceOnUse" x1="58.25" y1="22.1517" x2="58.25" y2="10.6288" gradientTransform="matrix(1 0 0 -1 0 21.8898)">
		<stop offset="0" style="stop-color:#65B32E"></stop>
		<stop offset="1" style="stop-color:#289B38"></stop>
	</linearGradient>
	<path class="st4" d="M55.2,10c0-0.1,0-0.2,0-0.2c0-0.1,0.1-0.1,0.1-0.2l15.2-9.5L70.6,0H57.5c-0.1,0-0.2,0-0.3,0.1   C57.1,0.2,57,0.3,57,0.4L45.9,21.9V22c0,0,14.4,0,14.5,0l0.1-0.1c0,0,0-0.1,0.1-0.1c0-0.1,0-0.1,0-0.2L55.2,10z"></path>
	
		<linearGradient id="SVGID_5_" gradientUnits="userSpaceOnUse" x1="103.2" y1="11.2856" x2="103.2" y2="5.3824" gradientTransform="matrix(1 0 0 -1 0 21.8898)">
		<stop offset="0" style="stop-color:#65B32E"></stop>
		<stop offset="1" style="stop-color:#289B38"></stop>
	</linearGradient>
	<path class="st5" d="M93.7,22h12.1c0.1,0,0.3,0,0.4-0.1s0.2-0.2,0.3-0.3l6.2-10.8L93.7,22z"></path>
	
		<linearGradient id="SVGID_6_" gradientUnits="userSpaceOnUse" x1="91.65" y1="22.1283" x2="91.65" y2="10.6175" gradientTransform="matrix(1 0 0 -1 0 21.8898)">
		<stop offset="0" style="stop-color:#65B32E"></stop>
		<stop offset="1" style="stop-color:#289B38"></stop>
	</linearGradient>
	<path class="st6" d="M91.4,0c-0.1,0-0.2,0-0.3,0.1c-0.1,0.1-0.2,0.2-0.2,0.3L79.7,21.9V22H92c0.1,0,0.2,0,0.3-0.1   c0.1-0.1,0.2-0.2,0.2-0.3l11.1-21.5V0L91.4,0z"></path>
	
		<linearGradient id="SVGID_7_" gradientUnits="userSpaceOnUse" x1="75.4" y1="22.1283" x2="75.4" y2="10.6175" gradientTransform="matrix(1 0 0 -1 0 21.8898)">
		<stop offset="0" style="stop-color:#65B32E"></stop>
		<stop offset="1" style="stop-color:#289B38"></stop>
	</linearGradient>
	<path class="st7" d="M87.4,0H75c-0.1,0-0.2,0-0.3,0.1c-0.1,0.1-0.2,0.2-0.2,0.3L63.4,21.9V22h12.3c0.1,0,0.2,0,0.3-0.1   c0.1-0.1,0.2-0.2,0.2-0.3L87.4,0C87.4,0.1,87.4,0.1,87.4,0z"></path>
</g>
</svg>