<?xml version="1.0" encoding="UTF-8"?>
<svg xmlns="http://www.w3.org/2000/svg" xmlns:xlink="http://www.w3.org/1999/xlink" width="80px" height="80px" viewBox="0 0 80 80" version="1.1">
<g id="surface1">
<path style=" stroke:none;fill-rule:nonzero;fill:rgb(24.705882%,82.352941%,78.039216%);fill-opacity:1;" d="M 77.941406 43.585938 L 71.648438 40.976562 L 69.964844 29.515625 C 69.722656 27.878906 68.320312 26.667969 66.667969 26.667969 L 57.492188 26.667969 C 58.214844 24.035156 58.804688 21.316406 59.277344 18.597656 C 59.496094 17.320312 59.675781 16.128906 59.816406 15.058594 C 59.902344 14.410156 59.957031 13.933594 59.984375 13.667969 C 60.179688 11.703125 58.640625 10 56.667969 10 L 11.003906 10 C 9.355469 10 7.957031 11.207031 7.710938 12.835938 L 6.625 20 L 4.421875 20 C 2.578125 20 1.085938 21.492188 1.085938 23.332031 C 1.085938 25.171875 2.578125 26.667969 4.421875 26.667969 L 5.613281 26.667969 L 5.109375 30 L 3.507812 30 C 1.667969 30 0.175781 31.492188 0.175781 33.332031 C 0.175781 35.171875 1.667969 36.664062 3.507812 36.664062 L 4.097656 36.664062 L 3.167969 42.792969 L 0.0585938 59.386719 C -0.328125 61.4375 1.246094 63.332031 3.335938 63.332031 L 10.570312 63.332031 C 11.945312 67.214844 15.644531 70 20 70 C 24.355469 70 28.054688 67.214844 29.429688 63.332031 L 50.570312 63.332031 C 51.941406 67.214844 55.644531 70 60 70 C 64.355469 70 68.054688 67.214844 69.429688 63.332031 L 76.667969 63.332031 C 78.507812 63.332031 80 61.839844 80 60 L 80 46.667969 C 80 45.316406 79.1875 44.101562 77.941406 43.585938 Z M 24.527344 30 L 11.851562 30 L 12.355469 26.667969 L 25.4375 26.667969 C 27.277344 26.667969 28.769531 25.175781 28.769531 23.332031 C 28.769531 21.492188 27.277344 20 25.4375 20 L 13.367188 20 L 13.871094 16.667969 L 52.839844 16.667969 C 52.796875 16.925781 52.753906 17.191406 52.707031 17.460938 C 52.121094 20.839844 51.339844 24.21875 50.34375 27.34375 C 50.207031 27.765625 50.070312 28.175781 49.929688 28.578125 C 49.882812 28.679688 49.839844 28.78125 49.800781 28.886719 C 47.964844 34.082031 45.777344 37.570312 43.390625 39.121094 C 43.386719 39.125 43.386719 39.125 43.382812 39.125 C 43.289062 39.1875 43.195312 39.242188 43.101562 39.296875 C 43.085938 39.308594 43.070312 39.320312 43.050781 39.328125 C 42.96875 39.375 42.882812 39.421875 42.796875 39.464844 C 42.773438 39.476562 42.746094 39.492188 42.71875 39.503906 C 42.640625 39.542969 42.5625 39.578125 42.484375 39.613281 C 42.449219 39.628906 42.417969 39.640625 42.386719 39.65625 C 42.3125 39.6875 42.234375 39.714844 42.160156 39.742188 C 42.125 39.757812 42.089844 39.765625 42.054688 39.777344 C 41.980469 39.804688 41.90625 39.828125 41.832031 39.851562 C 41.796875 39.859375 41.761719 39.871094 41.730469 39.878906 C 41.652344 39.898438 41.574219 39.917969 41.496094 39.9375 C 41.46875 39.941406 41.4375 39.945312 41.410156 39.953125 C 41.328125 39.96875 41.242188 39.984375 41.160156 39.996094 C 41.144531 40 41.128906 40 41.113281 40 C 40.910156 40.027344 40.707031 40.042969 40.5 40.042969 L 10.328125 40.042969 L 10.839844 36.667969 L 24.527344 36.667969 C 26.367188 36.667969 27.859375 35.175781 27.859375 33.332031 C 27.859375 31.492188 26.367188 30 24.527344 30 Z M 20 63.332031 C 18.160156 63.332031 16.671875 61.84375 16.667969 60.003906 C 16.667969 60.003906 16.667969 60 16.667969 60 C 16.667969 58.15625 18.15625 56.664062 20 56.664062 C 20.109375 56.664062 20.21875 56.671875 20.324219 56.683594 C 20.328125 56.683594 20.335938 56.683594 20.339844 56.683594 C 20.390625 56.6875 20.441406 56.699219 20.492188 56.707031 C 21.566406 56.863281 22.472656 57.53125 22.957031 58.460938 C 23.195312 58.921875 23.332031 59.441406 23.332031 60 C 23.332031 61.839844 21.84375 63.332031 20 63.332031 Z M 60 63.332031 C 58.160156 63.332031 56.671875 61.84375 56.667969 60.003906 C 56.667969 60.003906 56.667969 60 56.667969 60 C 56.667969 58.15625 58.15625 56.664062 60 56.664062 C 60.109375 56.664062 60.21875 56.671875 60.324219 56.683594 C 60.328125 56.683594 60.335938 56.683594 60.339844 56.683594 C 60.390625 56.6875 60.441406 56.699219 60.492188 56.707031 C 61.558594 56.863281 62.460938 57.523438 62.945312 58.441406 C 63.191406 58.90625 63.332031 59.4375 63.332031 60 C 63.332031 61.839844 61.84375 63.332031 60 63.332031 Z M 73.332031 56.664062 L 69.429688 56.664062 C 69.421875 56.644531 69.414062 56.621094 69.40625 56.597656 C 69.390625 56.558594 69.378906 56.523438 69.363281 56.484375 C 69.324219 56.382812 69.285156 56.277344 69.242188 56.175781 C 69.222656 56.132812 69.207031 56.089844 69.1875 56.046875 C 69.144531 55.945312 69.097656 55.839844 69.046875 55.738281 C 69.03125 55.707031 69.015625 55.671875 69 55.640625 C 68.9375 55.507812 68.871094 55.375 68.800781 55.246094 C 68.785156 55.21875 68.769531 55.191406 68.753906 55.164062 C 68.699219 55.0625 68.640625 54.964844 68.582031 54.867188 C 68.554688 54.820312 68.527344 54.777344 68.5 54.730469 C 68.449219 54.652344 68.398438 54.570312 68.34375 54.488281 C 68.316406 54.445312 68.285156 54.398438 68.253906 54.355469 C 68.195312 54.269531 68.132812 54.183594 68.070312 54.097656 C 68.046875 54.0625 68.023438 54.03125 68 53.996094 C 67.914062 53.886719 67.828125 53.773438 67.738281 53.667969 C 67.707031 53.625 67.671875 53.585938 67.640625 53.546875 C 67.578125 53.476562 67.515625 53.40625 67.453125 53.335938 C 67.414062 53.292969 67.375 53.246094 67.332031 53.203125 C 67.273438 53.136719 67.214844 53.074219 67.152344 53.011719 C 67.109375 52.96875 67.070312 52.925781 67.027344 52.886719 C 66.953125 52.8125 66.875 52.738281 66.796875 52.667969 C 66.757812 52.628906 66.71875 52.59375 66.675781 52.554688 C 66.585938 52.476562 66.496094 52.394531 66.398438 52.316406 C 66.355469 52.277344 66.308594 52.242188 66.265625 52.207031 C 66.195312 52.152344 66.128906 52.097656 66.058594 52.042969 C 66.007812 52.007812 65.957031 51.96875 65.910156 51.933594 C 65.835938 51.878906 65.765625 51.828125 65.691406 51.777344 C 65.644531 51.746094 65.597656 51.710938 65.550781 51.679688 C 65.433594 51.601562 65.320312 51.527344 65.199219 51.457031 C 65.164062 51.433594 65.132812 51.414062 65.097656 51.394531 C 65.003906 51.339844 64.914062 51.289062 64.820312 51.238281 C 64.769531 51.207031 64.71875 51.183594 64.667969 51.15625 C 64.585938 51.113281 64.507812 51.070312 64.425781 51.03125 C 64.371094 51.003906 64.320312 50.980469 64.265625 50.953125 C 64.175781 50.910156 64.085938 50.871094 63.992188 50.832031 C 63.949219 50.8125 63.90625 50.792969 63.863281 50.773438 C 63.730469 50.71875 63.597656 50.664062 63.460938 50.617188 C 63.421875 50.601562 63.382812 50.589844 63.34375 50.574219 C 63.242188 50.539062 63.140625 50.503906 63.039062 50.46875 C 62.984375 50.453125 62.933594 50.4375 62.882812 50.421875 C 62.785156 50.394531 62.691406 50.367188 62.59375 50.339844 C 62.542969 50.328125 62.492188 50.3125 62.441406 50.300781 C 62.324219 50.269531 62.203125 50.242188 62.085938 50.21875 C 62.054688 50.210938 62.03125 50.207031 62 50.199219 C 61.855469 50.171875 61.707031 50.144531 61.554688 50.121094 C 61.511719 50.113281 61.472656 50.109375 61.429688 50.101562 C 61.316406 50.085938 61.207031 50.074219 61.09375 50.058594 C 61.042969 50.054688 60.992188 50.050781 60.941406 50.042969 C 60.832031 50.035156 60.722656 50.027344 60.609375 50.019531 C 60.5625 50.015625 60.515625 50.011719 60.46875 50.011719 C 60.3125 50.003906 60.15625 50 60 50 C 60 50 59.996094 50 59.996094 50 C 59.839844 50 59.6875 50.003906 59.53125 50.011719 C 59.480469 50.011719 59.433594 50.015625 59.382812 50.019531 C 59.277344 50.027344 59.167969 50.035156 59.0625 50.042969 C 59.007812 50.050781 58.953125 50.054688 58.902344 50.0625 C 58.792969 50.074219 58.683594 50.085938 58.578125 50.101562 C 58.53125 50.109375 58.488281 50.113281 58.441406 50.121094 C 58.292969 50.144531 58.144531 50.171875 58 50.199219 C 57.96875 50.207031 57.9375 50.214844 57.902344 50.222656 C 57.789062 50.246094 57.671875 50.273438 57.558594 50.300781 C 57.507812 50.3125 57.453125 50.328125 57.402344 50.339844 C 57.308594 50.367188 57.214844 50.394531 57.117188 50.421875 C 57.066406 50.4375 57.011719 50.453125 56.960938 50.472656 C 56.859375 50.503906 56.757812 50.539062 56.65625 50.574219 C 56.617188 50.585938 56.578125 50.601562 56.535156 50.617188 C 56.402344 50.664062 56.269531 50.71875 56.136719 50.773438 C 56.09375 50.792969 56.050781 50.8125 56.003906 50.832031 C 55.914062 50.871094 55.824219 50.910156 55.730469 50.953125 C 55.679688 50.980469 55.628906 51.003906 55.574219 51.03125 C 55.492188 51.070312 55.410156 51.113281 55.328125 51.15625 C 55.28125 51.183594 55.230469 51.207031 55.179688 51.234375 C 55.085938 51.289062 54.988281 51.34375 54.894531 51.398438 C 54.863281 51.417969 54.832031 51.4375 54.800781 51.457031 C 54.679688 51.527344 54.5625 51.605469 54.445312 51.683594 C 54.402344 51.710938 54.355469 51.746094 54.308594 51.777344 C 54.234375 51.828125 54.160156 51.878906 54.089844 51.933594 C 54.039062 51.96875 53.992188 52.007812 53.941406 52.042969 C 53.871094 52.097656 53.804688 52.152344 53.734375 52.207031 C 53.6875 52.242188 53.644531 52.28125 53.597656 52.316406 C 53.503906 52.394531 53.414062 52.476562 53.320312 52.554688 C 53.28125 52.59375 53.238281 52.632812 53.199219 52.667969 C 53.121094 52.738281 53.046875 52.8125 52.972656 52.886719 C 52.929688 52.929688 52.886719 52.972656 52.84375 53.015625 C 52.785156 53.074219 52.726562 53.136719 52.667969 53.199219 C 52.625 53.246094 52.582031 53.292969 52.542969 53.339844 C 52.484375 53.40625 52.425781 53.472656 52.367188 53.539062 C 52.332031 53.582031 52.292969 53.625 52.257812 53.671875 C 52.171875 53.777344 52.085938 53.882812 52.003906 53.992188 C 51.972656 54.035156 51.941406 54.078125 51.910156 54.125 C 51.855469 54.199219 51.800781 54.269531 51.75 54.34375 C 51.714844 54.398438 51.679688 54.453125 51.644531 54.507812 C 51.597656 54.574219 51.554688 54.644531 51.511719 54.714844 C 51.476562 54.769531 51.441406 54.824219 51.410156 54.878906 C 51.363281 54.957031 51.320312 55.035156 51.273438 55.113281 C 51.246094 55.160156 51.21875 55.210938 51.191406 55.257812 C 51.128906 55.378906 51.066406 55.5 51.007812 55.625 C 50.980469 55.679688 50.953125 55.734375 50.929688 55.792969 C 50.890625 55.867188 50.855469 55.945312 50.824219 56.023438 C 50.796875 56.085938 50.769531 56.148438 50.746094 56.207031 C 50.714844 56.285156 50.683594 56.359375 50.65625 56.4375 C 50.632812 56.5 50.609375 56.5625 50.585938 56.621094 C 50.582031 56.636719 50.574219 56.652344 50.570312 56.667969 L 29.429688 56.667969 C 29.421875 56.644531 29.414062 56.621094 29.40625 56.597656 C 29.390625 56.558594 29.378906 56.523438 29.363281 56.484375 C 29.324219 56.382812 29.285156 56.277344 29.242188 56.175781 C 29.222656 56.132812 29.207031 56.089844 29.1875 56.046875 C 29.144531 55.945312 29.097656 55.839844 29.046875 55.738281 C 29.03125 55.707031 29.019531 55.671875 29 55.640625 C 28.9375 55.507812 28.871094 55.375 28.800781 55.246094 C 28.785156 55.21875 28.769531 55.191406 28.753906 55.164062 C 28.699219 55.0625 28.640625 54.964844 28.582031 54.867188 C 28.554688 54.820312 28.527344 54.777344 28.5 54.734375 C 28.449219 54.652344 28.398438 54.570312 28.34375 54.488281 C 28.316406 54.445312 28.285156 54.398438 28.253906 54.355469 C 28.195312 54.269531 28.132812 54.183594 28.070312 54.097656 C 28.046875 54.0625 28.023438 54.03125 28 53.996094 C 27.914062 53.886719 27.828125 53.773438 27.738281 53.667969 C 27.707031 53.625 27.671875 53.589844 27.640625 53.546875 C 27.578125 53.476562 27.519531 53.40625 27.457031 53.335938 C 27.414062 53.292969 27.375 53.246094 27.332031 53.203125 C 27.273438 53.136719 27.214844 53.074219 27.152344 53.011719 C 27.109375 52.96875 27.070312 52.929688 27.027344 52.886719 C 26.953125 52.8125 26.875 52.738281 26.796875 52.667969 C 26.757812 52.628906 26.71875 52.59375 26.679688 52.554688 C 26.585938 52.476562 26.496094 52.394531 26.402344 52.316406 C 26.355469 52.277344 26.308594 52.242188 26.265625 52.207031 C 26.195312 52.152344 26.128906 52.097656 26.058594 52.042969 C 26.007812 52.007812 25.960938 51.96875 25.910156 51.933594 C 25.839844 51.878906 25.765625 51.828125 25.691406 51.777344 C 25.644531 51.746094 25.597656 51.710938 25.550781 51.679688 C 25.4375 51.605469 25.320312 51.527344 25.199219 51.457031 C 25.167969 51.433594 25.132812 51.417969 25.097656 51.394531 C 25.003906 51.339844 24.914062 51.289062 24.820312 51.238281 C 24.769531 51.210938 24.71875 51.183594 24.667969 51.15625 C 24.585938 51.113281 24.507812 51.070312 24.425781 51.03125 C 24.371094 51.003906 24.320312 50.980469 24.265625 50.953125 C 24.175781 50.910156 24.085938 50.871094 23.996094 50.832031 C 23.949219 50.8125 23.90625 50.792969 23.863281 50.773438 C 23.730469 50.71875 23.597656 50.664062 23.460938 50.617188 C 23.421875 50.601562 23.382812 50.589844 23.34375 50.574219 C 23.242188 50.539062 23.140625 50.503906 23.039062 50.46875 C 22.988281 50.453125 22.933594 50.4375 22.882812 50.421875 C 22.789062 50.394531 22.691406 50.367188 22.59375 50.339844 C 22.542969 50.328125 22.492188 50.3125 22.441406 50.300781 C 22.324219 50.269531 22.203125 50.242188 22.085938 50.21875 C 22.058594 50.210938 22.03125 50.207031 22.003906 50.199219 C 21.855469 50.171875 21.707031 50.144531 21.554688 50.121094 C 21.515625 50.113281 21.472656 50.109375 21.429688 50.101562 C 21.320312 50.085938 21.207031 50.074219 21.097656 50.058594 C 21.042969 50.054688 20.992188 50.050781 20.941406 50.046875 C 20.832031 50.035156 20.722656 50.027344 20.613281 50.019531 C 20.5625 50.015625 20.515625 50.015625 20.46875 50.011719 C 20.3125 50.003906 20.15625 50 20 50 C 20 50 20 50 19.996094 50 C 19.839844 50 19.6875 50.003906 19.53125 50.011719 C 19.484375 50.015625 19.433594 50.015625 19.382812 50.019531 C 19.277344 50.027344 19.167969 50.035156 19.0625 50.042969 C 19.007812 50.050781 18.953125 50.054688 18.902344 50.0625 C 18.792969 50.074219 18.683594 50.085938 18.578125 50.101562 C 18.53125 50.109375 18.488281 50.113281 18.441406 50.121094 C 18.292969 50.144531 18.144531 50.171875 18 50.199219 C 17.96875 50.207031 17.9375 50.214844 17.902344 50.222656 C 17.789062 50.246094 17.671875 50.273438 17.558594 50.300781 C 17.507812 50.3125 17.453125 50.328125 17.402344 50.34375 C 17.308594 50.367188 17.214844 50.394531 17.121094 50.421875 C 17.066406 50.4375 17.011719 50.453125 16.960938 50.472656 C 16.859375 50.503906 16.757812 50.539062 16.660156 50.574219 C 16.617188 50.585938 16.578125 50.601562 16.535156 50.617188 C 16.402344 50.664062 16.269531 50.71875 16.136719 50.773438 C 16.09375 50.792969 16.050781 50.8125 16.007812 50.832031 C 15.914062 50.871094 15.824219 50.910156 15.734375 50.953125 C 15.679688 50.980469 15.628906 51.003906 15.578125 51.03125 C 15.492188 51.070312 15.410156 51.113281 15.332031 51.15625 C 15.28125 51.183594 15.230469 51.210938 15.179688 51.238281 C 15.085938 51.289062 14.992188 51.34375 14.898438 51.398438 C 14.867188 51.417969 14.832031 51.4375 14.800781 51.457031 C 14.679688 51.527344 14.5625 51.605469 14.449219 51.683594 C 14.402344 51.714844 14.355469 51.746094 14.308594 51.777344 C 14.234375 51.828125 14.164062 51.878906 14.089844 51.933594 C 14.039062 51.96875 13.992188 52.007812 13.945312 52.042969 C 13.871094 52.097656 13.804688 52.152344 13.734375 52.207031 C 13.6875 52.242188 13.644531 52.28125 13.597656 52.316406 C 13.507812 52.394531 13.414062 52.472656 13.324219 52.554688 C 13.28125 52.59375 13.238281 52.632812 13.199219 52.671875 C 13.121094 52.742188 13.046875 52.8125 12.972656 52.886719 C 12.929688 52.929688 12.886719 52.972656 12.84375 53.015625 C 12.785156 53.078125 12.726562 53.136719 12.667969 53.199219 C 12.625 53.246094 12.582031 53.292969 12.542969 53.339844 C 12.484375 53.40625 12.425781 53.472656 12.371094 53.539062 C 12.332031 53.582031 12.292969 53.625 12.257812 53.671875 C 12.171875 53.777344 12.085938 53.882812 12.003906 53.992188 C 11.972656 54.035156 11.941406 54.082031 11.910156 54.125 C 11.855469 54.199219 11.804688 54.269531 11.75 54.347656 C 11.714844 54.398438 11.679688 54.453125 11.644531 54.507812 C 11.597656 54.574219 11.554688 54.644531 11.511719 54.714844 C 11.476562 54.769531 11.441406 54.824219 11.410156 54.878906 C 11.363281 54.957031 11.320312 55.035156 11.277344 55.113281 C 11.246094 55.160156 11.21875 55.210938 11.191406 55.261719 C 11.128906 55.378906 11.066406 55.5 11.007812 55.625 C 10.980469 55.679688 10.953125 55.734375 10.929688 55.792969 C 10.890625 55.867188 10.855469 55.945312 10.824219 56.023438 C 10.796875 56.085938 10.769531 56.148438 10.746094 56.210938 C 10.714844 56.285156 10.683594 56.363281 10.65625 56.4375 C 10.632812 56.5 10.609375 56.5625 10.585938 56.625 C 10.582031 56.636719 10.574219 56.652344 10.570312 56.667969 L 7.351562 56.667969 L 9.21875 46.710938 L 40.5 46.710938 C 47.222656 46.710938 51.925781 41.65625 55.273438 33.332031 L 63.789062 33.332031 L 65.328125 43.816406 C 65.5 44.976562 66.265625 45.964844 67.351562 46.414062 L 73.332031 48.894531 Z M 73.332031 56.664062 "/>
</g>
</svg>
