<?xml version="1.0" standalone="no"?>
<!DOCTYPE svg PUBLIC "-//W3C//DTD SVG 20010904//EN"
 "http://www.w3.org/TR/2001/REC-SVG-20010904/DTD/svg10.dtd">
<svg version="1.0" xmlns="http://www.w3.org/2000/svg"
 width="512.000000pt" height="512.000000pt" viewBox="0 0 512.000000 512.000000"
 preserveAspectRatio="xMidYMid meet">

<g transform="translate(0.000000,512.000000) scale(0.100000,-0.100000)"
fill="#000000" stroke="none">
<path d="M2350 5109 c-565 -64 -1070 -376 -1384 -856 -232 -355 -340 -798
-295 -1211 39 -358 180 -708 441 -1094 108 -159 143 -184 199 -139 42 33 31
74 -48 186 -489 694 -580 1352 -277 1985 231 482 690 843 1207 950 311 64 615
47 910 -50 127 -42 354 -157 459 -232 609 -439 875 -1199 663 -1893 -54 -179
-163 -408 -286 -602 -151 -238 -328 -468 -698 -902 l-223 -261 -462 0 -463 0
-244 282 c-134 156 -256 295 -271 310 -32 33 -66 36 -102 7 -39 -31 -35 -75
12 -130 21 -24 127 -147 236 -272 l197 -228 -44 -40 c-66 -58 -97 -126 -97
-213 0 -144 96 -261 233 -284 l42 -7 5 -85 c7 -101 30 -159 90 -224 23 -25 68
-58 99 -73 l56 -28 280 0 c266 0 282 1 327 22 118 54 186 163 196 309 4 78 6
84 27 84 77 0 173 65 220 151 26 47 30 64 30 129 0 55 -6 87 -22 122 -24 52
-88 120 -132 138 l-29 12 201 236 c323 381 480 583 630 812 370 565 486 1058
375 1595 -102 500 -423 953 -868 1228 -344 212 -788 311 -1190 266z m809
-4287 c97 -49 105 -177 16 -232 -30 -18 -49 -20 -239 -20 l-208 0 -30 -30
c-24 -25 -29 -36 -23 -58 14 -56 27 -61 159 -64 l121 -3 -1 -65 c-1 -82 -24
-133 -77 -168 l-41 -27 -251 0 -251 0 -42 28 c-57 37 -82 90 -82 172 l0 65
118 0 c101 0 121 3 134 18 37 41 28 100 -19 121 -15 7 -97 11 -219 11 -217 0
-239 5 -274 63 -47 76 -8 179 75 200 11 2 263 5 560 6 496 1 543 0 574 -17z"/>
<path d="M2295 4619 c-41 -12 -99 -62 -118 -102 -9 -18 -19 -62 -23 -98 l-6
-65 -56 -22 -55 -23 -36 34 c-67 64 -131 85 -207 66 -43 -11 -65 -28 -192
-153 -79 -78 -152 -155 -163 -173 -48 -78 -31 -177 45 -258 l38 -40 -20 -55
-19 -55 -74 -6 c-83 -6 -124 -24 -163 -69 -43 -51 -48 -88 -44 -317 l3 -211
30 -43 c41 -58 93 -83 182 -87 l71 -4 21 -50 21 -50 -50 -55 c-72 -79 -87
-149 -49 -233 26 -57 267 -302 324 -330 85 -41 183 -19 259 59 l38 39 48 -22
47 -21 7 -74 c8 -93 38 -150 100 -186 42 -25 45 -25 265 -25 232 0 253 3 305
49 33 29 57 91 63 161 l6 68 49 21 50 21 47 -41 c57 -52 97 -69 158 -69 76 0
119 29 269 183 109 111 143 151 152 183 24 82 9 143 -52 211 l-43 48 23 55 22
55 64 6 c82 7 135 34 173 88 l30 43 3 211 c4 229 -2 266 -44 317 -37 43 -79
63 -152 69 l-64 6 -24 58 -25 58 32 37 c67 76 85 161 50 237 -11 24 -77 97
-167 186 -132 129 -154 147 -198 158 -73 18 -152 -6 -205 -63 -30 -31 -32 -32
-98 -4 -49 20 -53 24 -53 55 0 102 -64 200 -145 222 -47 13 -406 13 -450 0z
m417 -151 c12 -10 17 -36 20 -100 5 -103 15 -119 92 -144 28 -9 80 -30 115
-45 92 -42 108 -39 184 30 47 42 71 58 85 54 29 -7 272 -256 272 -278 0 -10
-27 -46 -60 -81 -40 -41 -60 -70 -60 -87 0 -13 15 -57 34 -98 19 -41 40 -93
47 -117 19 -66 47 -82 140 -82 112 0 109 6 109 -212 0 -225 4 -218 -120 -218
-102 0 -106 -3 -143 -100 -13 -36 -36 -89 -51 -118 -14 -28 -26 -58 -26 -67 0
-8 29 -47 65 -86 36 -39 65 -78 65 -87 0 -24 -261 -282 -284 -282 -11 0 -50
29 -87 65 -37 36 -76 65 -87 65 -11 0 -49 -13 -84 -28 -34 -16 -86 -36 -114
-46 -75 -24 -82 -36 -86 -142 -2 -58 -8 -97 -17 -107 -12 -15 -39 -17 -200
-17 -132 0 -191 4 -199 12 -7 7 -12 44 -12 94 0 46 -4 94 -10 108 -10 27 -16
30 -170 94 -113 48 -122 46 -205 -38 -34 -34 -68 -60 -80 -60 -23 0 -285 256
-285 279 0 8 29 44 64 81 84 87 88 102 43 198 -19 42 -40 94 -47 114 -18 57
-40 68 -144 68 -131 0 -126 -8 -126 216 0 153 3 185 16 198 12 12 37 16 103
16 101 0 134 16 146 73 4 17 22 65 41 106 48 105 46 119 -31 201 -36 38 -65
77 -65 86 0 20 222 249 261 269 22 12 29 12 55 -4 16 -10 49 -39 74 -65 26
-27 53 -46 66 -46 12 0 55 15 95 33 41 19 96 43 124 53 63 25 75 48 75 151 0
67 3 84 18 92 26 16 364 14 384 -1z"/>
<path d="M2378 3761 c-173 -56 -302 -207 -330 -388 -36 -228 110 -456 334
-524 90 -28 224 -23 311 10 80 31 173 105 219 173 220 323 -6 750 -396 747
-49 0 -103 -7 -138 -18z m287 -163 c62 -32 129 -103 158 -166 30 -66 30 -188
0 -254 -28 -62 -96 -134 -158 -166 -44 -24 -62 -27 -145 -27 -84 0 -101 3
-146 27 -67 35 -138 115 -160 181 -60 175 28 358 205 424 59 22 185 12 246
-19z"/>
</g>
</svg>
