<?xml version="1.0" encoding="UTF-8"?>
<svg xmlns="http://www.w3.org/2000/svg" xmlns:xlink="http://www.w3.org/1999/xlink" width="143px" height="40px" viewBox="0 0 143 40" version="1.1">
<g id="surface1">
<path style=" stroke:none;fill-rule:nonzero;fill:rgb(100%,43.529412%,0%);fill-opacity:1;" d="M 1.628906 26.339844 L 1.628906 12.835938 L 6.179688 12.835938 C 7.238281 12.835938 8.101562 13.027344 8.769531 13.410156 C 9.445312 13.789062 9.945312 14.300781 10.269531 14.945312 C 10.59375 15.59375 10.757812 16.3125 10.757812 17.109375 C 10.757812 17.90625 10.59375 18.628906 10.269531 19.277344 C 9.949219 19.929688 9.457031 20.449219 8.785156 20.835938 C 8.113281 21.21875 7.253906 21.410156 6.207031 21.410156 L 2.945312 21.410156 L 2.945312 19.957031 L 6.15625 19.957031 C 6.878906 19.957031 7.457031 19.832031 7.898438 19.582031 C 8.335938 19.332031 8.652344 18.992188 8.851562 18.566406 C 9.050781 18.136719 9.152344 17.648438 9.152344 17.109375 C 9.152344 16.570312 9.050781 16.085938 8.851562 15.660156 C 8.652344 15.230469 8.332031 14.898438 7.890625 14.65625 C 7.449219 14.410156 6.859375 14.285156 6.128906 14.285156 L 3.261719 14.285156 L 3.261719 26.339844 Z M 13.382812 26.339844 L 13.382812 12.835938 L 15.015625 12.835938 L 15.015625 24.890625 L 21.273438 24.890625 L 21.273438 26.339844 Z M 25.199219 26.339844 L 23.492188 26.339844 L 28.4375 12.835938 L 30.121094 12.835938 L 35.0625 26.339844 L 33.355469 26.339844 L 29.332031 14.972656 L 29.226562 14.972656 Z M 25.832031 21.066406 L 32.722656 21.066406 L 32.722656 22.515625 L 25.832031 22.515625 Z M 44.527344 16.210938 C 44.445312 15.542969 44.125 15.027344 43.566406 14.65625 C 43.003906 14.285156 42.316406 14.101562 41.5 14.101562 C 40.90625 14.101562 40.382812 14.199219 39.9375 14.394531 C 39.492188 14.585938 39.148438 14.851562 38.898438 15.191406 C 38.652344 15.527344 38.527344 15.914062 38.527344 16.34375 C 38.527344 16.703125 38.613281 17.015625 38.785156 17.273438 C 38.960938 17.527344 39.183594 17.742188 39.457031 17.914062 C 39.726562 18.082031 40.011719 18.21875 40.3125 18.328125 C 40.609375 18.433594 40.882812 18.519531 41.132812 18.585938 L 42.5 18.957031 C 42.851562 19.046875 43.242188 19.175781 43.671875 19.339844 C 44.105469 19.5 44.519531 19.722656 44.914062 20.003906 C 45.3125 20.28125 45.640625 20.636719 45.898438 21.074219 C 46.160156 21.507812 46.289062 22.042969 46.289062 22.675781 C 46.289062 23.40625 46.097656 24.0625 45.714844 24.652344 C 45.339844 25.242188 44.785156 25.710938 44.058594 26.058594 C 43.335938 26.40625 42.457031 26.578125 41.421875 26.578125 C 40.457031 26.578125 39.621094 26.421875 38.917969 26.109375 C 38.214844 25.796875 37.664062 25.363281 37.261719 24.804688 C 36.859375 24.246094 36.636719 23.597656 36.582031 22.859375 L 38.265625 22.859375 C 38.308594 23.371094 38.480469 23.792969 38.777344 24.125 C 39.082031 24.457031 39.460938 24.703125 39.921875 24.863281 C 40.386719 25.023438 40.886719 25.101562 41.421875 25.101562 C 42.042969 25.101562 42.601562 25 43.097656 24.796875 C 43.59375 24.589844 43.984375 24.304688 44.277344 23.941406 C 44.566406 23.570312 44.710938 23.140625 44.710938 22.648438 C 44.710938 22.199219 44.585938 21.835938 44.335938 21.554688 C 44.085938 21.273438 43.757812 21.042969 43.347656 20.867188 C 42.941406 20.691406 42.5 20.539062 42.027344 20.40625 L 40.371094 19.933594 C 39.316406 19.628906 38.484375 19.195312 37.871094 18.632812 C 37.257812 18.070312 36.949219 17.332031 36.949219 16.421875 C 36.949219 15.667969 37.15625 15.007812 37.5625 14.445312 C 37.972656 13.878906 38.527344 13.4375 39.21875 13.125 C 39.917969 12.808594 40.695312 12.652344 41.554688 12.652344 C 42.421875 12.652344 43.191406 12.808594 43.867188 13.121094 C 44.542969 13.425781 45.078125 13.851562 45.472656 14.386719 C 45.871094 14.921875 46.082031 15.53125 46.101562 16.210938 Z M 48.230469 14.285156 L 48.230469 12.835938 L 58.332031 12.835938 L 58.332031 14.285156 L 54.097656 14.285156 L 54.097656 26.339844 L 52.464844 26.339844 L 52.464844 14.285156 Z M 62.480469 12.835938 L 62.480469 26.339844 L 60.847656 26.339844 L 60.847656 12.835938 Z M 76.585938 17.058594 L 74.953125 17.058594 C 74.855469 16.585938 74.6875 16.171875 74.449219 15.816406 C 74.210938 15.460938 73.921875 15.160156 73.578125 14.921875 C 73.242188 14.675781 72.867188 14.488281 72.457031 14.367188 C 72.042969 14.242188 71.613281 14.179688 71.167969 14.179688 C 70.351562 14.179688 69.613281 14.386719 68.949219 14.800781 C 68.292969 15.214844 67.769531 15.824219 67.378906 16.628906 C 66.992188 17.433594 66.800781 18.417969 66.800781 19.589844 C 66.800781 20.757812 66.992188 21.746094 67.378906 22.550781 C 67.769531 23.355469 68.292969 23.964844 68.949219 24.375 C 69.613281 24.789062 70.351562 24.996094 71.167969 24.996094 C 71.613281 24.996094 72.042969 24.933594 72.457031 24.8125 C 72.867188 24.6875 73.242188 24.507812 73.578125 24.265625 C 73.921875 24.019531 74.210938 23.71875 74.449219 23.359375 C 74.6875 23 74.855469 22.585938 74.953125 22.121094 L 76.585938 22.121094 C 76.460938 22.8125 76.238281 23.429688 75.914062 23.972656 C 75.589844 24.519531 75.1875 24.984375 74.703125 25.367188 C 74.222656 25.742188 73.679688 26.03125 73.078125 26.230469 C 72.484375 26.425781 71.847656 26.527344 71.167969 26.527344 C 70.019531 26.527344 68.996094 26.246094 68.101562 25.683594 C 67.207031 25.121094 66.503906 24.320312 65.992188 23.28125 C 65.480469 22.242188 65.222656 21.011719 65.222656 19.589844 C 65.222656 18.164062 65.480469 16.933594 65.992188 15.894531 C 66.503906 14.859375 67.207031 14.058594 68.101562 13.496094 C 68.996094 12.933594 70.019531 12.652344 71.167969 12.652344 C 71.847656 12.652344 72.484375 12.75 73.078125 12.949219 C 73.679688 13.144531 74.222656 13.4375 74.703125 13.820312 C 75.1875 14.195312 75.589844 14.660156 75.914062 15.203125 C 76.238281 15.746094 76.460938 16.363281 76.585938 17.058594 Z M 115.671875 26.339844 L 115.671875 12.835938 L 117.304688 12.835938 L 117.304688 19.535156 L 117.460938 19.535156 L 123.511719 12.835938 L 125.640625 12.835938 L 119.984375 18.929688 L 125.640625 26.339844 L 123.667969 26.339844 L 118.984375 20.0625 L 117.304688 21.960938 L 117.304688 26.339844 Z M 129.382812 12.835938 L 129.382812 26.339844 L 127.75 26.339844 L 127.75 12.835938 Z M 131.914062 14.285156 L 131.914062 12.835938 L 142.011719 12.835938 L 142.011719 14.285156 L 137.78125 14.285156 L 137.78125 26.339844 L 136.148438 26.339844 L 136.148438 14.285156 Z M 131.914062 14.285156 "/>
<path style=" stroke:none;fill-rule:nonzero;fill:rgb(100%,43.529412%,0%);fill-opacity:1;" d="M 93.09375 36.605469 C 93.996094 36.359375 94.746094 35.777344 95.210938 34.964844 L 98.730469 28.808594 C 98.734375 28.804688 98.738281 28.796875 98.746094 28.789062 C 98.75 28.78125 98.75 28.773438 98.753906 28.765625 L 99.933594 26.710938 C 100.101562 26.414062 100 26.035156 99.703125 25.863281 C 99.40625 25.691406 99.027344 25.792969 98.855469 26.09375 L 97.976562 27.632812 L 95.4375 26.171875 C 95.308594 26.09375 95.152344 26.070312 95.003906 26.101562 C 93.933594 26.324219 92.816406 26.144531 91.859375 25.59375 C 90.902344 25.042969 90.183594 24.164062 89.832031 23.128906 C 89.785156 22.984375 89.6875 22.863281 89.554688 22.785156 L 87.015625 21.328125 L 91.242188 13.9375 L 93.777344 15.398438 C 93.910156 15.472656 94.0625 15.5 94.210938 15.46875 C 95.285156 15.246094 96.402344 15.425781 97.359375 15.976562 C 98.316406 16.527344 99.035156 17.402344 99.386719 18.445312 C 99.433594 18.589844 99.53125 18.710938 99.664062 18.785156 L 102.203125 20.242188 L 101.648438 21.207031 C 101.5625 21.359375 101.546875 21.527344 101.589844 21.679688 C 101.628906 21.835938 101.730469 21.972656 101.878906 22.058594 C 102.175781 22.226562 102.554688 22.125 102.722656 21.828125 L 103.585938 20.324219 L 104.640625 18.480469 C 106.253906 15.652344 105.554688 13.574219 105.046875 12.058594 C 104.742188 11.15625 104.582031 10.628906 104.808594 10.234375 L 105.367188 9.257812 L 105.425781 9.292969 C 105.566406 9.375 105.738281 9.394531 105.894531 9.351562 C 106.054688 9.308594 106.191406 9.203125 106.269531 9.0625 L 107.625 6.695312 C 107.921875 6.171875 108 5.5625 107.839844 4.980469 C 107.683594 4.398438 107.3125 3.910156 106.789062 3.613281 L 103.238281 1.566406 C 102.71875 1.269531 102.113281 1.191406 101.53125 1.351562 C 100.949219 1.507812 100.460938 1.882812 100.164062 2.402344 L 98.808594 4.769531 C 98.726562 4.914062 98.707031 5.082031 98.75 5.242188 C 98.792969 5.402344 98.898438 5.535156 99.039062 5.617188 L 99.097656 5.652344 L 98.539062 6.628906 C 98.316406 7.023438 97.777344 7.152344 96.851562 7.34375 C 95.289062 7.667969 93.144531 8.109375 91.527344 10.9375 L 90.472656 12.78125 L 85.644531 21.226562 C 85.640625 21.234375 85.636719 21.238281 85.632812 21.246094 C 85.628906 21.253906 85.625 21.261719 85.621094 21.269531 L 82.101562 27.421875 C 81.636719 28.238281 81.515625 29.179688 81.757812 30.082031 C 82.210938 31.757812 83.8125 32.820312 85.480469 32.652344 C 86.097656 34.007812 87.523438 34.828125 89.003906 34.679688 C 89.703125 36.210938 91.425781 37.058594 93.09375 36.605469 Z M 101.238281 3.023438 C 101.375 2.789062 101.589844 2.621094 101.855469 2.550781 C 102.117188 2.476562 102.390625 2.511719 102.621094 2.644531 L 106.175781 4.691406 C 106.40625 4.824219 106.574219 5.042969 106.644531 5.304688 C 106.71875 5.570312 106.683594 5.84375 106.546875 6.074219 L 105.503906 7.902344 L 100.195312 4.847656 Z M 97.101562 8.5625 C 98.128906 8.347656 99.101562 8.148438 99.617188 7.246094 L 100.175781 6.269531 L 104.289062 8.640625 L 103.734375 9.613281 C 103.21875 10.515625 103.535156 11.457031 103.871094 12.457031 C 104.355469 13.890625 104.902344 15.519531 103.5625 17.863281 L 102.816406 19.167969 L 100.476562 17.820312 C 100.007812 16.59375 99.125 15.5625 97.976562 14.898438 C 96.824219 14.238281 95.492188 13.996094 94.195312 14.207031 L 91.859375 12.863281 L 92.601562 11.558594 C 93.941406 9.214844 95.621094 8.867188 97.101562 8.5625 Z M 90.214844 34.328125 C 90.828125 34.023438 91.335938 33.546875 91.6875 32.9375 C 91.855469 32.640625 91.753906 32.261719 91.457031 32.089844 C 91.160156 31.917969 90.78125 32.019531 90.613281 32.316406 C 90.3125 32.84375 89.824219 33.21875 89.246094 33.375 C 88.046875 33.703125 86.804688 32.988281 86.480469 31.785156 C 86.324219 31.203125 86.402344 30.59375 86.699219 30.070312 C 86.871094 29.769531 86.765625 29.390625 86.46875 29.222656 C 86.171875 29.050781 85.792969 29.152344 85.625 29.453125 C 85.277344 30.0625 85.125 30.742188 85.167969 31.425781 C 84.160156 31.445312 83.230469 30.777344 82.953125 29.757812 C 82.796875 29.175781 82.875 28.566406 83.175781 28.042969 L 86.398438 22.40625 L 88.742188 23.75 C 89.210938 24.976562 90.089844 26.007812 91.242188 26.671875 C 92.394531 27.332031 93.726562 27.574219 95.019531 27.363281 L 97.359375 28.707031 L 94.136719 34.347656 C 93.835938 34.871094 93.351562 35.246094 92.769531 35.40625 C 91.753906 35.679688 90.710938 35.210938 90.214844 34.328125 Z M 90.214844 34.328125 "/>
<path style=" stroke:none;fill-rule:nonzero;fill:rgb(100%,43.529412%,0%);fill-opacity:1;" d="M 98.527344 21.074219 C 98.695312 20.777344 98.59375 20.398438 98.296875 20.226562 L 93.3125 17.359375 C 93.015625 17.1875 92.636719 17.292969 92.464844 17.589844 C 92.382812 17.738281 92.363281 17.90625 92.40625 18.0625 C 92.449219 18.214844 92.546875 18.351562 92.695312 18.4375 L 97.683594 21.304688 C 97.976562 21.476562 98.355469 21.375 98.527344 21.074219 Z M 98.527344 21.074219 "/>
<path style=" stroke:none;fill-rule:nonzero;fill:rgb(100%,43.529412%,0%);fill-opacity:1;" d="M 96.816406 22.820312 L 91.828125 19.953125 C 91.53125 19.78125 91.152344 19.886719 90.984375 20.183594 C 90.898438 20.332031 90.882812 20.5 90.921875 20.652344 C 90.964844 20.808594 91.0625 20.945312 91.210938 21.03125 L 96.199219 23.898438 C 96.496094 24.070312 96.875 23.964844 97.042969 23.667969 C 97.214844 23.371094 97.113281 22.992188 96.816406 22.820312 Z M 96.816406 22.820312 "/>
<path style=" stroke:none;fill-rule:nonzero;fill:rgb(100%,43.529412%,0%);fill-opacity:1;" d="M 100.226562 23.613281 C 100.144531 23.761719 100.128906 23.929688 100.167969 24.082031 C 100.210938 24.234375 100.308594 24.375 100.457031 24.460938 C 100.753906 24.628906 101.136719 24.523438 101.304688 24.226562 C 101.476562 23.929688 101.375 23.550781 101.078125 23.378906 C 100.78125 23.207031 100.402344 23.3125 100.230469 23.609375 Z M 100.226562 23.613281 "/>
</g>
</svg>
