<?xml version="1.0" encoding="UTF-8"?>
<svg xmlns="http://www.w3.org/2000/svg" xmlns:xlink="http://www.w3.org/1999/xlink" width="25px" height="25px" viewBox="0 0 25 25" version="1.1">
<g id="surface1">
<path style=" stroke:none;fill-rule:evenodd;fill:rgb(71.764706%,70.588235%,70.588235%);fill-opacity:1;" d="M 23.4375 21.875 C 23.4375 22.734375 22.738281 23.4375 21.875 23.4375 L 3.125 23.4375 C 2.261719 23.4375 1.5625 22.734375 1.5625 21.875 L 1.5625 3.125 C 1.5625 2.265625 2.261719 1.5625 3.125 1.5625 L 21.875 1.5625 C 22.738281 1.5625 23.4375 2.265625 23.4375 3.125 Z M 21.875 0 L 3.125 0 C 1.398438 0 0 1.398438 0 3.125 L 0 21.875 C 0 23.601562 1.398438 25 3.125 25 L 21.875 25 C 23.601562 25 25 23.601562 25 21.875 L 25 3.125 C 25 1.398438 23.601562 0 21.875 0 Z M 17.1875 11.71875 L 13.28125 11.71875 L 13.28125 7.8125 C 13.28125 7.382812 12.929688 7.03125 12.5 7.03125 C 12.070312 7.03125 11.71875 7.382812 11.71875 7.8125 L 11.71875 11.71875 L 7.8125 11.71875 C 7.382812 11.71875 7.03125 12.070312 7.03125 12.5 C 7.03125 12.929688 7.382812 13.28125 7.8125 13.28125 L 11.71875 13.28125 L 11.71875 17.1875 C 11.71875 17.617188 12.070312 17.96875 12.5 17.96875 C 12.929688 17.96875 13.28125 17.617188 13.28125 17.1875 L 13.28125 13.28125 L 17.1875 13.28125 C 17.617188 13.28125 17.96875 12.929688 17.96875 12.5 C 17.96875 12.070312 17.617188 11.71875 17.1875 11.71875 Z M 17.1875 11.71875 "/>
</g>
</svg>
