<?xml version="1.0" encoding="UTF-8"?>
<svg xmlns="http://www.w3.org/2000/svg" xmlns:xlink="http://www.w3.org/1999/xlink" width="80px" height="80px" viewBox="0 0 80 80" version="1.1">
<g id="surface1">
<path style=" stroke:none;fill-rule:nonzero;fill:rgb(24.705882%,82.352941%,78.039216%);fill-opacity:1;" d="M 71.769531 65.84375 C 76.308594 65.84375 80 62.148438 80 57.613281 C 80 53.074219 76.308594 49.382812 71.769531 49.382812 L 71.503906 49.382812 L 71.503906 35.832031 C 71.503906 34.359375 70.929688 32.972656 69.886719 31.929688 L 69.28125 31.324219 L 69.28125 28.859375 C 69.28125 28.136719 68.695312 27.550781 67.972656 27.550781 L 63.789062 27.550781 C 63.070312 27.550781 62.484375 28.136719 62.484375 28.859375 L 62.484375 31.324219 L 61.878906 31.929688 C 60.835938 32.972656 60.261719 34.359375 60.261719 35.832031 L 60.261719 49.382812 L 54.25 49.382812 L 54.25 35.832031 C 54.25 34.359375 53.671875 32.972656 52.628906 31.929688 L 52.027344 31.324219 L 52.027344 28.859375 C 52.027344 28.136719 51.441406 27.550781 50.71875 27.550781 L 46.535156 27.550781 C 45.8125 27.550781 45.230469 28.136719 45.230469 28.859375 L 45.230469 31.324219 L 44.625 31.929688 C 43.582031 32.972656 43.007812 34.359375 43.007812 35.832031 L 43.007812 49.382812 L 29.019531 49.382812 L 29.019531 36 C 33.859375 35.507812 37.648438 31.40625 37.648438 26.441406 L 37.648438 21.144531 C 37.648438 15.847656 33.335938 11.539062 28.039062 11.539062 L 22.089844 11.539062 L 22.089844 8.945312 C 22.089844 7.242188 23.480469 5.851562 25.183594 5.851562 L 49.585938 5.851562 C 51.292969 5.851562 52.679688 7.238281 52.679688 8.945312 L 52.679688 16.019531 L 46.785156 21.917969 C 46.019531 22.683594 46.019531 23.925781 46.785156 24.691406 C 47.167969 25.074219 47.667969 25.265625 48.171875 25.265625 C 48.671875 25.265625 49.175781 25.074219 49.558594 24.691406 L 56.027344 18.21875 C 56.394531 17.851562 56.601562 17.351562 56.601562 16.832031 L 56.601562 8.945312 C 56.601562 5.078125 53.453125 1.929688 49.585938 1.929688 L 25.183594 1.929688 C 21.316406 1.929688 18.171875 5.078125 18.171875 8.945312 L 18.171875 11.539062 L 13.136719 11.539062 C 7.839844 11.539062 3.53125 15.847656 3.53125 21.144531 L 3.53125 26.441406 C 3.53125 31.40625 7.316406 35.507812 12.15625 36 L 12.15625 49.382812 L 8.230469 49.382812 C 3.691406 49.382812 0 53.074219 0 57.613281 C 0 62.148438 3.691406 65.84375 8.230469 65.84375 L 10.535156 65.84375 L 10.535156 74.148438 L 8.878906 74.148438 C 7.796875 74.148438 6.917969 75.027344 6.917969 76.109375 C 6.917969 77.191406 7.796875 78.070312 8.878906 78.070312 L 16.109375 78.070312 C 17.195312 78.070312 18.070312 77.191406 18.070312 76.109375 C 18.070312 75.023438 17.195312 74.148438 16.109375 74.148438 L 14.457031 74.148438 L 14.457031 65.84375 L 65.542969 65.84375 L 65.542969 74.148438 L 63.886719 74.148438 C 62.804688 74.148438 61.929688 75.027344 61.929688 76.109375 C 61.929688 77.191406 62.804688 78.070312 63.886719 78.070312 L 71.121094 78.070312 C 72.203125 78.070312 73.082031 77.191406 73.082031 76.109375 C 73.082031 75.023438 72.203125 74.148438 71.121094 74.148438 L 69.464844 74.148438 L 69.464844 65.84375 Z M 65.097656 30.167969 L 66.667969 30.167969 L 66.667969 30.6875 L 65.097656 30.6875 Z M 62.875 35.835938 C 62.875 35.058594 63.179688 34.328125 63.726562 33.777344 L 64.203125 33.304688 L 67.5625 33.304688 L 68.035156 33.777344 C 68.585938 34.328125 68.886719 35.058594 68.886719 35.835938 L 68.886719 37.09375 L 62.875 37.09375 Z M 62.875 39.707031 L 68.890625 39.707031 L 68.890625 41.40625 L 62.875 41.40625 Z M 62.875 44.023438 L 68.890625 44.023438 L 68.890625 49.382812 L 62.875 49.382812 Z M 47.84375 30.167969 L 49.410156 30.167969 L 49.410156 30.6875 L 47.84375 30.6875 Z M 45.621094 35.835938 C 45.621094 35.058594 45.921875 34.328125 46.472656 33.777344 L 46.945312 33.304688 L 50.308594 33.304688 L 50.78125 33.777344 C 51.332031 34.328125 51.632812 35.058594 51.632812 35.835938 L 51.632812 37.09375 L 45.621094 37.09375 Z M 45.621094 39.707031 L 51.632812 39.707031 L 51.632812 41.40625 L 45.621094 41.40625 Z M 45.621094 44.023438 L 51.632812 44.023438 L 51.632812 49.382812 L 45.621094 49.382812 Z M 16.078125 36.046875 L 25.097656 36.046875 L 25.097656 40.753906 L 16.078125 40.753906 Z M 7.449219 26.441406 L 7.449219 21.144531 C 7.449219 18.011719 10 15.460938 13.136719 15.460938 L 28.039062 15.460938 C 31.175781 15.460938 33.726562 18.011719 33.726562 21.144531 L 33.726562 26.441406 C 33.726562 29.574219 31.175781 32.125 28.039062 32.125 L 13.136719 32.125 C 10 32.125 7.449219 29.574219 7.449219 26.441406 Z M 16.078125 44.675781 L 25.097656 44.675781 L 25.097656 49.382812 L 16.078125 49.382812 Z M 3.921875 57.613281 C 3.921875 55.234375 5.855469 53.304688 8.230469 53.304688 L 71.769531 53.304688 C 74.144531 53.304688 76.078125 55.234375 76.078125 57.613281 C 76.078125 59.988281 74.144531 61.921875 71.769531 61.921875 L 8.230469 61.921875 C 5.855469 61.921875 3.921875 59.988281 3.921875 57.613281 Z M 3.921875 57.613281 "/>
<path style=" stroke:none;fill-rule:nonzero;fill:rgb(24.705882%,82.352941%,78.039216%);fill-opacity:1;" d="M 22.425781 54.746094 C 20.84375 54.746094 19.558594 56.03125 19.558594 57.613281 C 19.558594 59.191406 20.84375 60.476562 22.425781 60.476562 C 24.003906 60.476562 25.289062 59.191406 25.289062 57.613281 C 25.289062 56.03125 24.003906 54.746094 22.425781 54.746094 Z M 22.425781 58.667969 C 21.84375 58.667969 21.367188 58.195312 21.367188 57.613281 C 21.367188 57.027344 21.84375 56.554688 22.425781 56.554688 C 23.007812 56.554688 23.480469 57.027344 23.480469 57.613281 C 23.480469 58.195312 23.007812 58.667969 22.425781 58.667969 Z M 22.425781 58.667969 "/>
<path style=" stroke:none;fill-rule:nonzero;fill:rgb(24.705882%,82.352941%,78.039216%);fill-opacity:1;" d="M 10.707031 54.746094 C 9.128906 54.746094 7.84375 56.03125 7.84375 57.613281 C 7.84375 59.191406 9.128906 60.476562 10.707031 60.476562 C 12.289062 60.476562 13.574219 59.191406 13.574219 57.613281 C 13.574219 56.03125 12.289062 54.746094 10.707031 54.746094 Z M 10.707031 58.667969 C 10.125 58.667969 9.652344 58.195312 9.652344 57.613281 C 9.652344 57.027344 10.125 56.554688 10.707031 56.554688 C 11.289062 56.554688 11.765625 57.027344 11.765625 57.613281 C 11.765625 58.195312 11.289062 58.667969 10.707031 58.667969 Z M 10.707031 58.667969 "/>
<path style=" stroke:none;fill-rule:nonzero;fill:rgb(24.705882%,82.352941%,78.039216%);fill-opacity:1;" d="M 34.140625 54.746094 C 32.5625 54.746094 31.277344 56.03125 31.277344 57.613281 C 31.277344 59.191406 32.5625 60.476562 34.140625 60.476562 C 35.722656 60.476562 37.007812 59.191406 37.007812 57.613281 C 37.007812 56.03125 35.722656 54.746094 34.140625 54.746094 Z M 34.140625 58.667969 C 33.558594 58.667969 33.085938 58.195312 33.085938 57.613281 C 33.085938 57.027344 33.558594 56.554688 34.140625 56.554688 C 34.722656 56.554688 35.199219 57.027344 35.199219 57.613281 C 35.199219 58.195312 34.722656 58.667969 34.140625 58.667969 Z M 34.140625 58.667969 "/>
<path style=" stroke:none;fill-rule:nonzero;fill:rgb(24.705882%,82.352941%,78.039216%);fill-opacity:1;" d="M 57.574219 54.746094 C 55.996094 54.746094 54.710938 56.03125 54.710938 57.613281 C 54.710938 59.191406 55.996094 60.476562 57.574219 60.476562 C 59.15625 60.476562 60.441406 59.191406 60.441406 57.613281 C 60.441406 56.03125 59.15625 54.746094 57.574219 54.746094 Z M 57.574219 58.667969 C 56.992188 58.667969 56.519531 58.195312 56.519531 57.613281 C 56.519531 57.027344 56.992188 56.554688 57.574219 56.554688 C 58.15625 56.554688 58.632812 57.027344 58.632812 57.613281 C 58.632812 58.195312 58.15625 58.667969 57.574219 58.667969 Z M 57.574219 58.667969 "/>
<path style=" stroke:none;fill-rule:nonzero;fill:rgb(24.705882%,82.352941%,78.039216%);fill-opacity:1;" d="M 69.292969 54.746094 C 67.710938 54.746094 66.425781 56.03125 66.425781 57.613281 C 66.425781 59.191406 67.710938 60.476562 69.292969 60.476562 C 70.871094 60.476562 72.15625 59.191406 72.15625 57.613281 C 72.15625 56.03125 70.871094 54.746094 69.292969 54.746094 Z M 69.292969 58.667969 C 68.710938 58.667969 68.234375 58.195312 68.234375 57.613281 C 68.234375 57.027344 68.710938 56.554688 69.292969 56.554688 C 69.875 56.554688 70.347656 57.027344 70.347656 57.613281 C 70.347656 58.195312 69.875 58.667969 69.292969 58.667969 Z M 69.292969 58.667969 "/>
<path style=" stroke:none;fill-rule:nonzero;fill:rgb(24.705882%,82.352941%,78.039216%);fill-opacity:1;" d="M 45.859375 54.746094 C 44.277344 54.746094 42.992188 56.03125 42.992188 57.613281 C 42.992188 59.191406 44.277344 60.476562 45.859375 60.476562 C 47.4375 60.476562 48.722656 59.191406 48.722656 57.613281 C 48.722656 56.03125 47.4375 54.746094 45.859375 54.746094 Z M 45.859375 58.667969 C 45.277344 58.667969 44.800781 58.195312 44.800781 57.613281 C 44.800781 57.027344 45.277344 56.554688 45.859375 56.554688 C 46.441406 56.554688 46.914062 57.027344 46.914062 57.613281 C 46.914062 58.195312 46.441406 58.667969 45.859375 58.667969 Z M 45.859375 58.667969 "/>
</g>
</svg>
