<?xml version="1.0" encoding="UTF-8"?>
<svg xmlns="http://www.w3.org/2000/svg" xmlns:xlink="http://www.w3.org/1999/xlink" width="105px" height="40px" viewBox="0 0 104 40" version="1.1">
<g id="surface1">
<path style=" stroke:none;fill-rule:nonzero;fill:rgb(11.764706%,36.078432%,70.19608%);fill-opacity:1;" d="M 80.296875 1.003906 L 79.507812 1.210938 C 79.464844 1.21875 75.167969 2.367188 71.210938 5.148438 C 71.222656 3.222656 70.753906 1.773438 70.730469 1.710938 L 70.472656 0.917969 L 69.875 1.480469 C 69.640625 1.703125 64.191406 6.898438 65.113281 12.414062 L 65.226562 13.066406 L 65.296875 13.035156 L 65.84375 13.109375 C 65.910156 13.117188 66.546875 13.195312 67.523438 13.195312 C 69.546875 13.195312 73.316406 12.828125 75.789062 10.382812 C 79.292969 6.90625 80.125 2.027344 80.164062 1.828125 Z M 69.949219 2.957031 C 70.066406 3.589844 70.214844 4.71875 70.101562 5.980469 C 68.308594 7.433594 66.957031 9.035156 66.085938 10.753906 C 66.269531 7.402344 68.773438 4.261719 69.949219 2.957031 Z M 75.054688 9.597656 C 72.847656 11.785156 69.382812 12.109375 67.523438 12.109375 C 67.34375 12.109375 67.179688 12.101562 67.03125 12.097656 C 66.890625 12.09375 66.761719 12.089844 66.644531 12.078125 C 66.789062 11.722656 66.960938 11.359375 67.15625 10.996094 C 67.816406 9.777344 68.746094 8.617188 69.925781 7.542969 C 70.289062 7.207031 70.6875 6.878906 71.089844 6.566406 C 74.046875 4.28125 77.480469 2.996094 78.921875 2.519531 C 78.546875 3.929688 77.480469 7.199219 75.054688 9.597656 Z M 75.054688 9.597656 "/>
<path style=" stroke:none;fill-rule:nonzero;fill:rgb(11.764706%,36.078432%,70.19608%);fill-opacity:1;" d="M 104 13.128906 L 104 12.945312 C 104 11.074219 103.527344 9.398438 102.605469 7.972656 C 102.109375 7.214844 101.601562 6.699219 101.230469 6.367188 C 101.359375 6.171875 101.492188 5.902344 101.492188 5.558594 C 101.492188 5.347656 101.503906 5.308594 101.511719 5.273438 C 101.558594 5.121094 101.589844 4.972656 101.589844 4.539062 C 101.589844 4.253906 101.5625 3.734375 101.535156 3.195312 C 101.507812 2.636719 101.476562 2.042969 101.476562 1.6875 C 101.476562 0.796875 100.664062 0.328125 99.863281 0.328125 L 83.46875 0.328125 C 82.664062 0.328125 81.855469 0.796875 81.855469 1.6875 C 81.855469 2.042969 81.824219 2.632812 81.796875 3.195312 C 81.769531 3.734375 81.738281 4.253906 81.738281 4.539062 C 81.738281 4.96875 81.773438 5.121094 81.820312 5.273438 C 81.828125 5.308594 81.839844 5.347656 81.839844 5.558594 C 81.839844 5.902344 81.972656 6.171875 82.097656 6.367188 C 80.265625 8.0625 79.335938 10.277344 79.335938 12.949219 L 79.335938 13.132812 C 79.335938 14.746094 79.601562 15.546875 79.878906 16.390625 C 80.222656 17.429688 80.609375 18.613281 80.609375 21.925781 C 80.609375 25.113281 80.253906 26.464844 79.910156 27.769531 C 79.613281 28.894531 79.332031 29.960938 79.332031 31.992188 C 79.332031 36.4375 82.996094 39.664062 88.046875 39.664062 L 95.277344 39.664062 C 100.40625 39.664062 103.984375 36.507812 103.984375 31.992188 C 103.984375 29.84375 103.695312 28.710938 103.386719 27.511719 C 103.058594 26.214844 102.710938 24.871094 102.710938 21.925781 C 102.710938 18.796875 103.105469 17.53125 103.449219 16.414062 C 103.738281 15.519531 104 14.671875 104 13.128906 Z M 102.722656 12.945312 L 102.722656 13.128906 C 102.722656 14.457031 102.511719 15.148438 102.238281 16.007812 C 102.117188 16.398438 101.992188 16.828125 101.871094 17.347656 C 98.976562 22.546875 94.929688 26.375 91.164062 26.753906 C 92.863281 22.792969 93.554688 18.011719 93.222656 12.519531 C 95.359375 10.84375 97.980469 9.328125 100.992188 7.976562 C 101.171875 8.183594 101.359375 8.414062 101.542969 8.703125 C 102.324219 9.914062 102.722656 11.339844 102.722656 12.945312 Z M 81.101562 15.960938 C 81.058594 15.832031 81.019531 15.714844 80.984375 15.589844 C 82.671875 10.847656 85.507812 5.921875 90.296875 2.0625 C 92.496094 10.703125 92.875 21.410156 88.390625 28.726562 C 88.3125 28.851562 88.226562 28.972656 88.148438 29.097656 C 87.929688 29.441406 87.695312 29.777344 87.449219 30.097656 C 87.320312 30.269531 87.1875 30.4375 87.050781 30.601562 C 86.832031 30.871094 86.605469 31.132812 86.367188 31.390625 C 86.261719 31.5 86.164062 31.613281 86.0625 31.71875 C 83.6875 30.667969 81.859375 30.320312 80.722656 30.210938 C 80.820312 29.394531 80.984375 28.78125 81.160156 28.105469 C 81.511719 26.78125 81.902344 25.285156 81.902344 21.917969 C 81.902344 18.394531 81.472656 17.101562 81.101562 15.960938 Z M 87.570312 31.992188 C 87.910156 31.601562 88.238281 31.191406 88.539062 30.773438 C 88.707031 30.550781 88.875 30.332031 89.03125 30.09375 C 89.339844 29.632812 89.625 29.15625 89.890625 28.667969 C 89.988281 28.492188 90.105469 28.335938 90.199219 28.152344 C 94.15625 28.066406 98.3125 29.203125 102.390625 31.566406 C 100.007812 34.296875 97.144531 35.953125 93.660156 36.613281 C 91.3125 34.644531 89.171875 33.269531 87.292969 32.3125 C 87.402344 32.21875 87.476562 32.09375 87.570312 31.992188 Z M 94.289062 27.152344 C 96.914062 25.875 99.40625 23.375 101.488281 20.28125 C 101.460938 20.777344 101.441406 21.3125 101.441406 21.925781 C 101.441406 25.042969 101.824219 26.535156 102.164062 27.851562 C 102.355469 28.605469 102.535156 29.304688 102.636719 30.238281 C 99.859375 28.683594 97.070312 27.628906 94.289062 27.152344 Z M 100.199219 1.6875 C 100.199219 2.0625 100.234375 2.679688 100.265625 3.265625 C 100.292969 3.777344 100.316406 4.269531 100.316406 4.539062 C 100.316406 4.808594 100.304688 4.859375 100.292969 4.894531 C 100.242188 5.0625 100.21875 5.210938 100.222656 5.539062 C 100.214844 5.578125 100.144531 5.679688 100.105469 5.738281 C 99.78125 6.214844 99.757812 6.628906 100.019531 6.976562 C 97.367188 8.203125 95.027344 9.550781 93.039062 11.035156 C 92.8125 7.796875 92.257812 4.605469 91.5 1.652344 L 99.875 1.652344 C 99.96875 1.648438 100.175781 1.683594 100.199219 1.6875 Z M 83.105469 7.21875 C 83.1875 7.152344 83.242188 7.101562 83.277344 7.066406 C 83.617188 6.710938 83.601562 6.261719 83.246094 5.738281 C 83.210938 5.679688 83.140625 5.578125 83.132812 5.558594 C 83.132812 5.210938 83.105469 5.0625 83.054688 4.894531 C 83.046875 4.855469 83.027344 4.808594 83.027344 4.539062 C 83.027344 4.269531 83.054688 3.777344 83.078125 3.265625 C 83.105469 2.679688 83.140625 2.0625 83.113281 1.746094 C 83.164062 1.703125 83.347656 1.652344 83.472656 1.652344 L 88.835938 1.652344 C 84.957031 4.984375 82.34375 8.988281 80.625 13 L 80.625 12.949219 C 80.625 10.597656 81.460938 8.671875 83.105469 7.21875 Z M 80.625 31.992188 C 80.625 31.828125 80.628906 31.683594 80.632812 31.535156 C 81.726562 31.644531 83.539062 32.007812 85.9375 33.113281 L 85.949219 33.117188 C 88.285156 34.203125 90.6875 35.78125 93.085938 37.828125 L 93.3125 38.019531 L 93.328125 38.015625 C 93.40625 38.082031 93.480469 38.140625 93.558594 38.207031 C 93.601562 38.257812 93.628906 38.296875 93.664062 38.339844 L 88.066406 38.339844 C 83.75 38.34375 80.625 35.671875 80.625 31.992188 Z M 95.3125 38.34375 C 95.167969 38.152344 95.003906 37.945312 94.808594 37.707031 C 97.796875 36.972656 100.40625 35.464844 102.605469 33.230469 C 101.96875 36.738281 98.632812 38.332031 95.3125 38.34375 Z M 95.3125 38.34375 "/>
<path style=" stroke:none;fill-rule:nonzero;fill:rgb(11.764706%,36.078432%,70.19608%);fill-opacity:1;" d="M 0 16.355469 L 10.746094 16.355469 L 10.746094 30.445312 L 8.929688 30.445312 L 8.929688 18.015625 L 1.804688 18.015625 L 1.804688 30.445312 L 0 30.445312 Z M 0 16.355469 "/>
<path style=" stroke:none;fill-rule:nonzero;fill:rgb(11.764706%,36.078432%,70.19608%);fill-opacity:1;" d="M 13.699219 30.445312 L 13.699219 16.355469 L 18.851562 16.355469 C 19.757812 16.355469 20.453125 16.398438 20.933594 16.484375 C 21.605469 16.601562 22.167969 16.820312 22.621094 17.144531 C 23.074219 17.464844 23.441406 17.917969 23.710938 18.5 C 23.988281 19.085938 24.128906 19.730469 24.128906 20.421875 C 24.128906 21.628906 23.757812 22.636719 23.019531 23.464844 C 22.277344 24.296875 20.949219 24.714844 19.011719 24.714844 L 15.511719 24.714844 L 15.511719 30.445312 Z M 15.507812 23.050781 L 19.039062 23.050781 C 20.207031 23.050781 21.039062 22.832031 21.527344 22.378906 C 22.011719 21.929688 22.265625 21.300781 22.265625 20.484375 C 22.265625 19.898438 22.121094 19.394531 21.832031 18.972656 C 21.542969 18.554688 21.160156 18.277344 20.691406 18.144531 C 20.382812 18.058594 19.824219 18.019531 19.007812 18.019531 L 15.511719 18.019531 L 15.511719 23.050781 Z M 15.507812 23.050781 "/>
<path style=" stroke:none;fill-rule:nonzero;fill:rgb(11.764706%,36.078432%,70.19608%);fill-opacity:1;" d="M 25.457031 23.582031 C 25.457031 21.242188 26.0625 19.414062 27.28125 18.089844 C 28.5 16.765625 30.074219 16.105469 32 16.105469 C 33.261719 16.105469 34.394531 16.417969 35.410156 17.039062 C 36.421875 17.660156 37.191406 18.527344 37.722656 19.640625 C 38.257812 20.75 38.523438 22.011719 38.523438 23.417969 C 38.523438 24.847656 38.242188 26.125 37.683594 27.257812 C 37.121094 28.382812 36.332031 29.242188 35.304688 29.820312 C 34.277344 30.398438 33.171875 30.691406 31.988281 30.691406 C 30.703125 30.691406 29.550781 30.367188 28.539062 29.726562 C 27.53125 29.085938 26.757812 28.214844 26.238281 27.101562 C 25.71875 25.996094 25.457031 24.820312 25.457031 23.582031 Z M 27.324219 23.613281 C 27.324219 25.3125 27.761719 26.652344 28.648438 27.625 C 29.535156 28.601562 30.648438 29.085938 31.984375 29.085938 C 33.339844 29.085938 34.460938 28.597656 35.339844 27.609375 C 36.214844 26.621094 36.660156 25.21875 36.660156 23.40625 C 36.660156 22.257812 36.472656 21.257812 36.09375 20.398438 C 35.722656 19.546875 35.171875 18.882812 34.445312 18.40625 C 33.722656 17.9375 32.910156 17.703125 32.011719 17.703125 C 30.726562 17.703125 29.628906 18.15625 28.707031 19.0625 C 27.78125 19.980469 27.324219 21.492188 27.324219 23.613281 Z M 27.324219 23.613281 "/>
<path style=" stroke:none;fill-rule:nonzero;fill:rgb(11.764706%,36.078432%,70.19608%);fill-opacity:1;" d="M 43.199219 30.445312 L 43.199219 18.015625 L 38.695312 18.015625 L 38.695312 16.355469 L 49.523438 16.355469 L 49.523438 18.015625 L 45.003906 18.015625 L 45.003906 30.445312 Z M 43.199219 30.445312 "/>
<path style=" stroke:none;fill-rule:nonzero;fill:rgb(11.764706%,36.078432%,70.19608%);fill-opacity:1;" d="M 51.417969 30.445312 L 51.417969 16.355469 L 61.296875 16.355469 L 61.296875 18.015625 L 53.226562 18.015625 L 53.226562 22.332031 L 60.78125 22.332031 L 60.78125 23.988281 L 53.226562 23.988281 L 53.226562 28.78125 L 61.613281 28.78125 L 61.613281 30.445312 Z M 51.417969 30.445312 "/>
<path style=" stroke:none;fill-rule:nonzero;fill:rgb(11.764706%,36.078432%,70.19608%);fill-opacity:1;" d="M 64.136719 16.355469 L 65.777344 16.355469 L 65.777344 27.515625 L 73.050781 16.355469 L 74.863281 16.355469 L 74.863281 30.445312 L 73.222656 30.445312 L 73.222656 19.316406 L 65.945312 30.445312 L 64.136719 30.445312 Z M 64.136719 16.355469 "/>
</g>
</svg>
