<?xml version="1.0" standalone="no"?>
<!DOCTYPE svg PUBLIC "-//W3C//DTD SVG 20010904//EN"
 "http://www.w3.org/TR/2001/REC-SVG-20010904/DTD/svg10.dtd">
<svg version="1.0" xmlns="http://www.w3.org/2000/svg"
 width="512.000000pt" height="512.000000pt" viewBox="0 0 512.000000 512.000000"
 preserveAspectRatio="xMidYMid meet">

<g transform="translate(0.000000,512.000000) scale(0.100000,-0.100000)"
fill="#000000" stroke="none">
<path d="M1053 5099 c-35 -14 -67 -36 -97 -71 -104 -114 -100 -265 8 -374 65
-64 122 -84 243 -84 l83 0 0 -370 0 -369 -90 -47 c-658 -339 -1049 -1062 -969
-1792 90 -832 716 -1484 1542 -1608 132 -20 382 -20 514 0 111 17 236 47 323
77 l54 19 131 -129 c72 -72 143 -135 158 -140 35 -14 108 -14 142 -1 14 5 47
30 74 55 l48 45 46 -20 45 -20 4 -74 c3 -65 7 -79 34 -113 16 -21 50 -48 74
-60 41 -21 57 -23 232 -23 201 0 236 6 287 53 37 34 61 96 61 157 l0 55 51 19
52 18 41 -41 c22 -22 54 -45 69 -50 41 -16 113 -13 150 5 44 22 284 261 308
306 21 41 25 111 8 155 -5 15 -27 45 -47 66 l-36 37 19 55 18 55 51 0 c57 0
120 26 153 61 46 51 53 86 53 282 0 202 -6 234 -54 286 -40 43 -83 61 -144 61
l-49 0 -22 56 -21 56 35 40 c20 21 40 50 45 64 13 33 13 106 0 141 -13 33
-272 298 -315 320 -46 25 -126 20 -177 -10 -24 -14 -51 -34 -61 -45 -18 -20
-18 -20 -73 2 l-54 21 0 48 c0 26 -6 62 -14 80 -19 47 -74 96 -125 111 l-44
13 -23 100 c-48 214 -132 411 -253 594 -85 128 -194 257 -229 270 -47 18 -102
-23 -102 -76 0 -8 24 -43 53 -77 129 -154 209 -275 274 -416 18 -40 33 -75 33
-77 0 -2 -15 1 -32 6 -151 44 -448 68 -628 50 -319 -32 -575 -121 -942 -324
-185 -103 -276 -141 -440 -182 -280 -72 -558 -73 -824 -5 -95 25 -283 96 -302
114 -10 10 18 135 55 245 142 426 454 779 858 972 58 28 110 59 115 69 6 12
10 175 10 424 l0 406 209 0 c196 0 210 1 235 21 30 23 35 72 12 105 -14 18
-33 19 -399 24 -371 5 -387 6 -414 26 -15 11 -34 39 -42 61 -13 35 -13 46 0
78 8 21 27 47 42 59 28 21 31 21 931 24 l903 2 34 -23 c18 -12 40 -34 47 -47
17 -33 9 -105 -14 -132 -41 -46 -61 -48 -457 -48 l-374 0 -21 -23 c-29 -31
-28 -72 3 -102 l24 -25 221 0 220 0 0 -401 c0 -243 4 -408 10 -419 5 -10 61
-43 124 -73 63 -30 146 -75 184 -100 38 -25 79 -48 90 -51 30 -10 80 19 88 51
15 57 -41 105 -238 208 l-108 56 0 363 0 364 103 4 c74 3 114 10 147 24 97 44
160 143 159 249 -1 106 -50 191 -140 240 l-54 30 -930 2 c-910 2 -931 2 -982
-18z m2188 -2400 c107 -10 231 -34 332 -64 61 -18 63 -21 83 -127 l6 -38 -103
0 c-84 0 -111 -4 -147 -21 -61 -30 -94 -83 -101 -165 l-6 -66 -47 -20 -47 -20
-43 35 c-24 19 -54 40 -68 47 -31 16 -119 17 -150 0 -34 -17 -298 -278 -316
-312 -16 -32 -18 -115 -3 -155 5 -15 29 -47 51 -70 l41 -42 -21 -48 -20 -48
-70 -6 c-88 -7 -140 -38 -171 -103 -21 -42 -22 -56 -19 -254 l3 -210 31 -39
c42 -53 105 -83 174 -83 55 0 57 -1 73 -35 22 -46 21 -58 -5 -81 -32 -29 -78
-105 -78 -131 0 -19 -11 -26 -82 -48 -192 -59 -266 -69 -508 -69 -196 -1 -238
2 -327 22 -321 70 -588 211 -816 431 -290 279 -465 635 -507 1033 -12 118 -13
278 -1 278 5 0 42 -13 83 -29 185 -75 358 -110 573 -118 228 -9 452 24 677 99
124 41 172 63 308 140 362 206 578 281 915 321 66 8 208 6 306 -4z m597 -391
c7 -7 12 -42 12 -86 0 -40 4 -82 10 -92 5 -10 31 -26 57 -36 27 -9 83 -32 126
-51 93 -41 108 -38 178 33 24 24 52 44 64 44 26 0 255 -228 255 -254 0 -11
-25 -45 -55 -77 -30 -32 -55 -66 -55 -77 0 -10 15 -52 34 -93 19 -41 39 -93
45 -116 16 -60 40 -73 131 -73 46 0 81 -5 88 -12 8 -8 12 -63 12 -179 0 -203
2 -199 -108 -199 -89 -1 -106 -10 -127 -70 -8 -23 -31 -77 -50 -120 -42 -93
-40 -102 34 -175 29 -27 51 -58 51 -70 0 -26 -228 -255 -254 -255 -11 0 -47
27 -82 60 -71 68 -89 73 -162 36 -26 -13 -71 -31 -101 -41 -83 -27 -91 -39
-91 -145 0 -78 -2 -91 -19 -100 -29 -15 -344 -13 -359 2 -7 7 -12 44 -12 98 0
99 -11 122 -68 141 -20 6 -70 27 -111 45 -46 21 -82 32 -96 28 -12 -3 -48 -32
-81 -65 -33 -33 -67 -59 -79 -59 -27 0 -255 228 -255 255 0 12 24 44 55 75 73
72 80 94 50 158 -13 28 -33 78 -46 112 -29 81 -44 90 -149 90 -54 0 -91 5 -98
12 -17 17 -17 349 0 366 7 7 43 12 94 12 97 0 123 15 143 82 7 24 26 72 42
107 16 35 29 73 29 83 0 11 -27 48 -60 82 -33 35 -60 71 -60 82 0 25 229 254
254 254 11 0 45 -25 77 -55 62 -59 102 -71 145 -41 12 8 57 29 100 46 105 41
114 53 114 149 0 47 5 82 12 89 8 8 63 12 183 12 120 0 175 -4 183 -12z"/>
<path d="M3555 1676 c-85 -21 -143 -53 -205 -112 -66 -63 -100 -114 -123 -189
-38 -121 -29 -226 27 -341 135 -272 500 -331 717 -115 101 102 143 223 127
375 -26 255 -293 444 -543 382z m220 -165 c106 -47 167 -140 173 -263 3 -65 0
-85 -20 -130 -35 -76 -70 -112 -140 -147 -51 -26 -73 -31 -134 -31 -173 0
-301 135 -297 312 6 206 228 343 418 259z"/>
</g>
</svg>
