<?xml version="1.0" standalone="no"?>
<!DOCTYPE svg PUBLIC "-//W3C//DTD SVG 20010904//EN"
 "http://www.w3.org/TR/2001/REC-SVG-20010904/DTD/svg10.dtd">
<svg version="1.0" xmlns="http://www.w3.org/2000/svg"
 width="512.000000pt" height="512.000000pt" viewBox="0 0 512.000000 512.000000"
 preserveAspectRatio="xMidYMid meet">

<g transform="translate(0.000000,512.000000) scale(0.100000,-0.100000)"
fill="#000000" stroke="none">
<path d="M150 5107 c-49 -16 -123 -93 -138 -143 -17 -58 -18 -2938 -1 -2995
16 -50 61 -105 112 -132 42 -22 47 -22 540 -25 l497 -3 0 -77 c0 -42 5 -94 11
-115 14 -52 69 -111 117 -125 27 -8 161 -12 431 -12 l391 0 0 -215 0 -215
-259 0 c-143 0 -267 -3 -276 -6 -24 -10 -46 -60 -39 -89 15 -58 -80 -55 1482
-55 1589 0 1478 5 1508 -65 20 -50 20 -570 0 -620 -30 -70 131 -65 -1966 -65
-2097 0 -1936 -5 -1966 65 -20 50 -20 570 0 620 27 63 40 65 380 65 167 0 312
3 321 6 28 11 46 58 34 92 -18 51 -36 53 -390 50 -312 -3 -325 -4 -365 -25
-57 -30 -111 -97 -129 -157 -22 -74 -22 -610 1 -685 18 -61 69 -123 128 -154
l41 -22 1945 0 1945 0 41 22 c23 12 58 41 78 65 61 71 66 104 66 433 0 345 -5
370 -79 445 -84 84 -44 80 -873 80 l-728 0 0 215 0 215 398 0 c364 0 400 2
437 19 83 37 115 102 115 233 l0 77 498 3 c487 3 498 3 537 25 51 27 79 57
104 113 20 45 21 57 21 1509 0 1125 -3 1473 -12 1505 -16 54 -90 128 -144 144
-57 17 -4761 16 -4814 -1z m4795 -162 l25 -24 -2 -1308 -3 -1308 -1118 -5
c-1093 -5 -1119 -5 -1133 -24 -21 -29 -18 -80 7 -102 20 -18 56 -19 1135 -22
l1114 -2 0 -60 c0 -70 -13 -104 -47 -119 -17 -8 -670 -11 -2364 -11 -2537 0
-2388 -3 -2403 52 -3 13 -6 49 -6 81 l0 57 1125 0 c969 0 1130 2 1154 15 43
22 55 71 25 110 -15 20 -30 20 -1157 25 l-1142 5 -3 1308 -2 1308 25 24 24 25
2361 0 2361 0 24 -25z m-1135 -3206 c0 -39 -5 -79 -10 -90 -11 -19 -35 -19
-1240 -19 -1205 0 -1229 0 -1240 19 -5 11 -10 51 -10 90 l0 71 1250 0 1250 0
0 -71z m-960 -474 l0 -215 -290 0 -290 0 0 215 0 215 290 0 290 0 0 -215z"/>
<path d="M1245 4489 c-50 -14 -96 -70 -102 -124 -8 -63 -31 -75 -77 -40 -39
30 -89 40 -142 30 -53 -10 -236 -191 -255 -252 -15 -52 -2 -106 36 -152 33
-39 24 -57 -32 -64 -51 -5 -88 -29 -120 -77 -21 -31 -23 -44 -23 -184 0 -133
2 -155 20 -184 27 -44 76 -72 127 -72 57 0 66 -27 24 -75 -39 -45 -48 -93 -27
-149 23 -61 196 -229 252 -246 49 -15 98 -2 144 37 45 37 64 28 70 -34 6 -61
32 -101 81 -125 46 -24 304 -26 349 -3 43 22 79 76 86 128 8 56 26 65 65 32
37 -31 96 -47 140 -38 45 9 243 200 260 250 16 49 6 107 -26 148 -33 45 -22
75 29 75 42 0 94 35 120 80 19 31 21 52 21 180 0 136 -2 147 -24 184 -25 39
-85 75 -128 76 -12 0 -27 9 -33 20 -9 17 -7 26 14 51 29 35 41 84 31 135 -5
28 -29 59 -101 134 -53 54 -110 106 -129 114 -52 25 -105 20 -156 -13 -52 -36
-74 -29 -84 27 -9 58 -40 101 -88 122 -35 16 -64 19 -167 19 -69 0 -139 -5
-155 -10z m263 -200 c2 -38 9 -62 20 -72 27 -23 174 -81 202 -79 13 1 40 18
60 37 l36 35 77 -78 77 -78 -34 -33 c-45 -43 -51 -72 -28 -119 11 -20 25 -55
32 -77 21 -66 45 -85 107 -85 l53 0 0 -110 0 -110 -49 0 c-32 0 -56 -6 -70
-17 -25 -21 -91 -166 -91 -201 0 -12 18 -42 40 -65 l39 -43 -72 -72 c-40 -40
-76 -72 -81 -72 -5 0 -28 18 -52 40 -24 22 -49 40 -56 40 -19 0 -175 -65 -193
-80 -11 -9 -15 -31 -15 -76 l0 -64 -110 0 -110 0 0 53 c-1 75 -17 97 -96 130
-109 46 -125 46 -177 -2 -24 -23 -48 -41 -53 -41 -5 0 -41 32 -81 72 l-72 72
44 47 c26 28 45 58 45 71 0 40 -67 182 -92 195 -13 7 -47 13 -75 13 l-53 0 0
110 0 110 58 0 c32 0 66 6 75 13 15 11 87 175 87 198 0 5 -18 29 -40 53 -22
24 -40 47 -40 52 0 5 32 41 72 81 l71 72 45 -40 c51 -44 66 -47 125 -20 23 10
63 28 90 39 53 24 67 48 67 118 l0 45 108 -3 107 -3 3 -56z"/>
<path d="M1293 3942 c-144 -52 -225 -165 -226 -319 0 -61 4 -81 32 -137 39
-79 102 -137 180 -167 78 -29 194 -24 266 13 62 32 129 102 157 166 33 72 31
190 -3 262 -36 77 -77 121 -149 159 -79 42 -178 51 -257 23z m182 -152 c104
-51 134 -190 60 -278 -78 -93 -241 -78 -295 28 -24 46 -27 128 -6 168 46 88
154 124 241 82z"/>
<path d="M2645 4366 c-41 -18 -82 -68 -95 -116 -7 -26 -10 -257 -8 -693 l3
-653 28 -43 c46 -69 84 -81 261 -81 179 0 219 13 261 84 l25 43 0 672 c0 749
3 715 -68 769 -35 27 -38 27 -206 29 -127 2 -179 -1 -201 -11z m323 -783 l-3
-648 -124 -3 c-82 -2 -128 1 -137 9 -12 10 -14 115 -14 634 0 343 3 630 6 639
5 14 27 16 140 16 l134 0 -2 -647z"/>
<path d="M4190 4359 c-20 -11 -47 -37 -60 -56 l-25 -37 -3 -660 c-2 -451 0
-673 8 -698 15 -52 53 -94 104 -113 36 -14 72 -16 199 -13 l155 3 39 31 c77
62 73 19 73 765 l0 666 -23 44 c-15 27 -38 52 -63 66 -36 21 -52 23 -204 23
-148 0 -169 -3 -200 -21z m335 -779 l0 -645 -135 0 -135 0 -3 635 c-1 349 0
641 3 648 3 9 37 12 137 10 l133 -3 0 -645z"/>
<path d="M3425 3786 c-39 -17 -70 -52 -90 -98 -13 -31 -15 -95 -15 -400 0
-331 2 -367 19 -403 40 -87 86 -105 275 -105 155 0 185 6 229 48 58 54 57 49
57 464 0 379 -1 383 -23 423 -13 22 -40 49 -62 62 -37 21 -52 23 -200 22 -111
0 -169 -4 -190 -13z m320 -496 l0 -355 -124 -3 c-82 -2 -128 1 -137 9 -11 9
-14 74 -14 354 0 188 3 345 7 349 4 3 66 5 137 4 l131 -3 0 -355z"/>
<path d="M1891 712 c-58 -31 -71 -69 -71 -207 0 -138 13 -176 71 -207 30 -16
60 -18 255 -18 213 0 222 1 255 23 56 37 69 76 69 202 0 126 -13 165 -69 202
-33 22 -42 23 -255 23 -195 0 -225 -2 -255 -18z m424 -207 l0 -70 -172 -3
-173 -2 0 75 0 75 173 -2 172 -3 0 -70z"/>
<path d="M2769 707 c-56 -37 -69 -76 -69 -202 0 -126 13 -165 69 -202 33 -22
42 -23 255 -23 249 0 273 6 308 71 26 49 26 259 0 308 -35 65 -59 71 -308 71
-213 0 -222 -1 -255 -23z m431 -202 l0 -75 -172 2 -173 3 -3 59 c-2 32 -1 65
2 72 4 11 41 14 176 14 l170 0 0 -75z"/>
</g>
</svg>
