<?xml version="1.0" encoding="UTF-8"?>
<svg xmlns="http://www.w3.org/2000/svg" xmlns:xlink="http://www.w3.org/1999/xlink" width="40px" height="40px" viewBox="0 0 40 40" version="1.1">
<g id="surface1">
<path style=" stroke:none;fill-rule:evenodd;fill:rgb(24.705882%,82.352941%,78.039216%);fill-opacity:1;" d="M 37.5 35 C 37.5 36.375 36.378906 37.5 35 37.5 L 5 37.5 C 3.621094 37.5 2.5 36.375 2.5 35 L 2.5 5 C 2.5 3.621094 3.621094 2.5 5 2.5 L 35 2.5 C 36.378906 2.5 37.5 3.621094 37.5 5 Z M 35 0 L 5 0 C 2.238281 0 0 2.238281 0 5 L 0 35 C 0 37.761719 2.238281 40 5 40 L 35 40 C 37.761719 40 40 37.761719 40 35 L 40 5 C 40 2.238281 37.761719 0 35 0 Z M 29.417969 18.902344 L 22.347656 11.832031 C 21.859375 11.34375 21.070312 11.34375 20.582031 11.832031 C 20.09375 12.316406 20.09375 13.109375 20.582031 13.597656 L 25.734375 18.75 L 12.5 18.75 C 11.808594 18.75 11.25 19.308594 11.25 20 C 11.25 20.691406 11.808594 21.25 12.5 21.25 L 25.734375 21.25 L 20.582031 26.398438 C 20.09375 26.886719 20.09375 27.675781 20.582031 28.175781 C 21.070312 28.664062 21.859375 28.664062 22.347656 28.175781 L 29.417969 21.097656 C 29.71875 20.796875 29.8125 20.390625 29.742188 20 C 29.8125 19.609375 29.71875 19.203125 29.417969 18.902344 Z M 29.417969 18.902344 "/>
</g>
</svg>
