<?xml version="1.0" encoding="UTF-8"?>
<svg xmlns="http://www.w3.org/2000/svg" xmlns:xlink="http://www.w3.org/1999/xlink" width="40px" height="40px" viewBox="0 0 40 40" version="1.1">
<g id="surface1">
<path style=" stroke:none;fill-rule:evenodd;fill:rgb(24.705882%,82.352941%,78.039216%);fill-opacity:1;" d="M 27.5 18.75 L 14.265625 18.75 L 19.417969 13.597656 C 19.90625 13.109375 19.90625 12.320312 19.417969 11.832031 C 18.929688 11.34375 18.140625 11.34375 17.652344 11.832031 L 10.582031 18.902344 C 10.28125 19.203125 10.1875 19.609375 10.257812 20 C 10.1875 20.390625 10.28125 20.796875 10.582031 21.097656 L 17.652344 28.175781 C 18.140625 28.664062 18.929688 28.664062 19.417969 28.175781 C 19.90625 27.6875 19.90625 26.886719 19.417969 26.398438 L 14.265625 21.25 L 27.5 21.25 C 28.191406 21.25 28.75 20.691406 28.75 20 C 28.75 19.308594 28.191406 18.75 27.5 18.75 Z M 37.5 35 C 37.5 36.375 36.378906 37.5 35 37.5 L 5 37.5 C 3.621094 37.5 2.5 36.375 2.5 35 L 2.5 5 C 2.5 3.621094 3.621094 2.5 5 2.5 L 35 2.5 C 36.378906 2.5 37.5 3.621094 37.5 5 Z M 35 0 L 5 0 C 2.238281 0 0 2.238281 0 5 L 0 35 C 0 37.761719 2.238281 40 5 40 L 35 40 C 37.761719 40 40 37.761719 40 35 L 40 5 C 40 2.238281 37.761719 0 35 0 Z M 35 0 "/>
</g>
</svg>
