<svg id="svg" fill="#000000" stroke="#000000" width="200px" height="200px" version="1.1" viewBox="144 144 512 512" xmlns="http://www.w3.org/2000/svg">
    <g id="IconSvg_bgCarrier" stroke-width="0"></g>
    <g id="IconSvg_tracerCarrier" stroke-linecap="round" stroke-linejoin="round" stroke="#CCCCCC"></g>
     <g id="IconSvg_iconCarrier">
      <g xmlns="http://www.w3.org/2000/svg">
  <path d="m263.78 463.96c-0.37891 0-0.75781-0.046875-1.1289-0.13672-1.3398-0.31641-2.6523-0.71875-3.9375-1.2109-16.52-6.2969-18.973-22.09-14.07-34.941 1.7812-5.1484 5.0664-9.6445 9.4258-12.91 1.0312-0.92187 2.4023-1.3672 3.7773-1.2266 1.3789 0.14062 2.6328 0.85547 3.4531 1.9648 0.82422 1.1133 1.1445 2.5195 0.87891 3.875-0.26563 1.3594-1.0938 2.5391-2.2734 3.2578-2.832 2.1719-4.9453 5.1445-6.0625 8.5312-1.4844 3.9375-5.2734 17.031 8.3828 22.238 0.87891 0.33984 1.7734 0.61719 2.6875 0.83984 2.4375 0.56641 4.0625 2.875 3.7734 5.3594-0.28906 2.4883-2.4023 4.3594-4.9062 4.3516z"></path>
  <path d="m334.72 291.44c-14.27-0.10156-28.402-2.7695-41.73-7.8711-1.2539-0.43359-2.2812-1.3555-2.8477-2.5547-0.56641-1.2031-0.62109-2.5781-0.15625-3.8242 0.46875-1.2422 1.418-2.2422 2.6328-2.7773 1.2148-0.53125 2.5938-0.55078 3.8242-0.054687 29.738 11.148 51.73 6.0898 51.957 6.043 2.6445-0.62891 5.2969 1.0039 5.9258 3.6445 0.63281 2.6445-1 5.3008-3.6445 5.9297-5.25 1.0586-10.602 1.5508-15.961 1.4648z"></path>
  <path d="m525.34 487.57c-5.0664 0.050781-9.9961-1.6445-13.961-4.8008l-43.75-35.168c-1.0234-0.81641-1.6836-2.0078-1.8242-3.3086-0.14453-1.3008 0.23437-2.6055 1.0547-3.625 0.82031-1.0234 2.0156-1.6719 3.3164-1.8086 1.3047-0.13672 2.6055 0.25 3.6211 1.0742l43.75 35.16c6.0039 4.832 15.598 2.9531 21.383-4.2891 2.8203-3.3984 4.3203-7.6992 4.2227-12.113-0.03125-3.7305-1.6953-7.2617-4.5586-9.6523l-140.29-113.68c-1.0508-0.80859-1.7305-2.0078-1.8867-3.3242s0.22656-2.6406 1.0625-3.6719c0.83594-1.0312 2.0508-1.6797 3.3711-1.8047 1.3203-0.12109 2.6328 0.29688 3.6445 1.1562l140.28 113.7c5.0977 4.168 8.1016 10.363 8.2188 16.945 0.17969 6.7812-2.082 13.398-6.3789 18.648-5.1367 6.543-12.953 10.426-21.273 10.566z"></path>
  <path d="m487.86 513.55c-5.0664 0.046875-10-1.6523-13.961-4.8086l-60.84-49.379h-0.003906c-2.0117-1.7383-2.2773-4.7617-0.60156-6.8242 1.6758-2.0664 4.6875-2.4258 6.8008-0.8125l60.82 49.359c5.9922 4.8203 15.598 2.8945 21.383-4.3086l0.003907-0.003906c2.8125-3.3945 4.3125-7.6914 4.2188-12.102-0.027344-3.7305-1.6992-7.2617-4.5664-9.6523l-60.91-49.438c-1.0547-0.80469-1.7422-2.0078-1.8984-3.3281-0.16016-1.3242 0.22656-2.6523 1.0625-3.6836 0.83984-1.0352 2.0625-1.6836 3.3867-1.8008 1.3281-0.11719 2.6445 0.30859 3.6484 1.1758l60.852 49.418c5.1016 4.1641 8.1055 10.363 8.2188 16.945 0.17969 6.7773-2.0859 13.395-6.3867 18.637-5.1211 6.543-12.918 10.441-21.227 10.605z"></path>
  <path d="m452.42 540.01c-5.0781 0.046875-10.012-1.6523-13.984-4.8125l-52.508-42.035c-2.1211-1.6992-2.4648-4.7969-0.76562-6.918 1.6992-2.1211 4.7969-2.4648 6.918-0.76562l52.508 42.047c6.0312 4.8398 15.637 2.9531 21.422-4.2695 4.9883-6.1992 5.6484-14.535 1.5742-19.809l-0.003906-0.003907c-0.55859-0.72656-1.2031-1.3867-1.918-1.9648l-52.574-42.086c-2.1211-1.6992-2.4648-4.7969-0.76953-6.918 1.6992-2.125 4.7969-2.4688 6.918-0.76953l52.598 42.105c1.3125 1.0625 2.5 2.2695 3.543 3.6016 6.8086 8.8555 6.1016 22.277-1.6914 31.98h-0.003906c-5.125 6.5625-12.938 10.465-21.262 10.617z"></path>
  <path d="m282.51 447.09c-2.1133 0-3.9922-1.3516-4.6641-3.3555-4.7812-14.219-20.977-21.992-21.145-22.09l-0.13672-0.078126-2.0977-1.0742c-5.1875-2.668-10.086-5.1875-14.672-6.4336v-0.003906c-2.5938-0.73438-4.1094-3.418-3.4062-6.0195 0.70703-2.6016 3.375-4.1523 5.9844-3.4766 5.5781 1.5156 10.934 4.2695 16.602 7.1836l1.9688 0.98438c1.6445 0.78906 20.262 10.066 26.195 27.797l-0.003907 0.003906c0.86328 2.5742-0.52344 5.3633-3.0977 6.2266-0.48828 0.19531-1.0039 0.30859-1.5273 0.33594z"></path>
  <path d="m401.19 554.49c-5.1211-0.03125-10.082-1.7969-14.07-5.0117-2.6875-2.1641-5.5391-4.3789-8.8555-6.9453-3.3164-2.5664-7.0938-5.5-11.355-8.8555-1.0469-0.80469-1.7305-1.9961-1.8906-3.3047-0.16016-1.3125 0.21484-2.6328 1.0352-3.668 0.82422-1.0312 2.0273-1.6914 3.3398-1.8242 1.3164-0.13672 2.6289 0.25781 3.6445 1.1016 4.2109 3.3438 7.9492 6.2578 11.258 8.8555 3.3047 2.5977 6.2188 4.832 8.9727 7.0352 2.9531 2.4102 11.051 6.7695 21.41-4.4688 5.3438-6.7305 5.5312-15.871 0.42188-20.879h0.003906c-0.26953-0.26953-0.55469-0.52344-0.85547-0.75781l-28.328-22.562c-2.0664-1.7109-2.3828-4.7578-0.71094-6.8555s4.7109-2.4727 6.8398-0.83984l28.348 22.574h0.003907c0.57812 0.46094 1.1289 0.95312 1.6523 1.4766 8.7969 8.6094 8.9141 23.312 0.20703 34.137l-0.20703 0.23438c-7.0664 7.7227-14.387 10.559-20.863 10.559z"></path>
  <path d="m481.31 386.22c-5.6836-0.035156-11.328-0.94922-16.73-2.7148-9.3164-3.0781-17.934-7.9688-25.348-14.398l-48.578-39.871-29.184 8.6211c-5.3828 12.723-16.973 30.434-39.742 30.434h-0.003906c-2.7891-0.015625-5.5703-0.27344-8.3164-0.76562-5.8242-0.98438-8.668-4.1016-10.027-6.5234-3.4648-6.1875-0.62891-13.719-0.29688-14.555h0.003907c0.058593-0.15625 0.12891-0.30469 0.20312-0.45312 6.9961-13.391 22.516-49.012 22.633-49.367 0.11719-0.35547 0.20703-0.42188 0.32422-0.62891 0.27734-0.43359 6.7812-10.824 18.027-14.336 9.4961-2.9531 51.168-16.867 51.582-17.012v-0.003906c8.8711-2.6562 18.328-2.6562 27.199 0 18.922 6.0039 46.25 16.52 46.555 16.621l0.26562 0.11719c0.1875 0.078125 19.68 8.6406 36.918-0.81641 1.1445-0.65625 2.5039-0.82422 3.7773-0.46875 1.2695 0.35547 2.3438 1.2109 2.9805 2.3672 0.63281 1.1562 0.78125 2.5195 0.40234 3.7812-0.37891 1.2656-1.25 2.3242-2.418 2.9414-20.93 11.512-43.297 2.2148-45.578 1.2188-1.9688-0.74609-27.855-10.668-45.875-16.383-10.727-3.4062-20.98 0-21.086 0-0.44141 0.14844-42.195 14.051-51.758 17.074-6.8867 2.1836-11.562 8.5703-12.457 9.8906-1.7891 4.0938-15.742 36.074-22.633 49.34-0.48047 1.3594-1.082 4.3398-0.17578 5.9023 0.16797 0.29688 0.67969 1.1992 3.0898 1.6133 17.523 3.0195 30.348-5.668 38.121-25.809l-0.003906-0.003906c0.55078-1.4297 1.7305-2.5195 3.1992-2.9531l33.949-10.027h-0.003906c1.5625-0.46484 3.2539-0.125 4.5195 0.90625l50.676 41.594 0.22656 0.19531c1.4258 1.3203 35.473 32.051 66.547 0.16797 0.91406-0.93359 2.1602-1.4688 3.4688-1.4844 1.3047-0.011719 2.5625 0.49219 3.4961 1.4062 1.9492 1.9023 1.9844 5.0195 0.082032 6.9648-12.91 13.266-26.344 17.418-38.031 17.418z"></path>
  <path d="m530.87 441.26c-2.7188 0.089844-4.9922-2.0391-5.082-4.7578-0.089843-2.7188 2.0391-4.9922 4.7578-5.082 0.69922-0.070313 14.043-1.5547 23.332-23.508h-0.003906c0.47656-1.25 1.4375-2.2539 2.668-2.7812s2.625-0.52734 3.8555-0.003906c1.2305 0.51953 2.1992 1.5234 2.6758 2.7734 0.47656 1.2461 0.42578 2.6367-0.14453 3.8477-11.875 28.082-30.977 29.441-31.785 29.52z"></path>
  <path d="m353.23 543.24c-3.3711-0.03125-6.707-0.67969-9.8398-1.918-16.512-6.2969-18.961-22.09-14.062-34.941 2.3359-6.4062 6.8672-11.781 12.793-15.164 6.4023-3.3828 13.949-3.8516 20.723-1.2812 6.7695 2.5703 12.109 7.9336 14.652 14.715 2.2852 6.4727 2.1719 13.559-0.32812 19.953-3.8672 10.207-12.379 18.637-23.938 18.637zm0.47266-45.176c-2.3906 0-4.7383 0.60938-6.8203 1.7734-3.875 2.2617-6.8281 5.8203-8.3359 10.047-1.4844 3.9375-5.2734 17.043 8.375 22.238 13.648 5.1953 19.57-7.125 21.059-11.02 1.6406-4.1914 1.7383-8.8242 0.27344-13.078-1.4531-4.1172-4.6719-7.3672-8.7773-8.8555-1.8281-0.71094-3.7656-1.082-5.7266-1.1055z"></path>
  <path d="m317.25 523c-3.3711-0.035156-6.707-0.68359-9.8398-1.9219-16.52-6.2891-18.973-22.082-14.07-34.941 2.3359-6.4062 6.8672-11.777 12.789-15.16 6.4102-3.4023 13.973-3.8789 20.758-1.3047s12.129 7.9453 14.668 14.746c2.2891 6.4688 2.1719 13.551-0.32422 19.945-3.9062 10.164-12.43 18.637-23.98 18.637zm0.46094-45.176c-7.2734 0-12.793 5.5391-15.145 11.809-1.4844 3.9375-5.2852 17.043 8.375 22.25 13.656 5.207 19.57-7.125 21.059-11.031v-0.003906c1.6406-4.1875 1.7383-8.8242 0.27734-13.074-1.4531-4.1211-4.6758-7.3711-8.7773-8.8594-1.8477-0.71484-3.8086-1.0859-5.7891-1.0898z"></path>
  <path d="m285.02 492.27c-3.3711-0.03125-6.707-0.68359-9.8398-1.918-16.52-6.2969-18.973-22.082-14.07-34.941l-0.003906-0.003906c2.3398-6.4062 6.8711-11.777 12.793-15.16 6.4023-3.3906 13.957-3.8555 20.727-1.2852 6.7734 2.5742 12.109 7.9375 14.648 14.727 2.293 6.4688 2.1797 13.551-0.32422 19.945-3.8477 10.164-12.371 18.637-23.93 18.637zm0.47266-45.176c-7.2734 0-12.793 5.5391-15.152 11.809-1.4844 3.9375-5.2734 17.043 8.3828 22.25 13.656 5.207 19.57-7.125 21.059-11.031l-0.003906-0.003906c1.6328-4.1875 1.7305-8.8203 0.27734-13.074-1.457-4.1172-4.6758-7.3672-8.7773-8.8594-1.8477-0.71484-3.8086-1.0859-5.7891-1.0898z"></path>
  <path d="m440.34 257.32c-0.85156 0-1.6836-0.21875-2.4219-0.63672-27.098-15.312-55.508-2.5664-55.781-2.4297v-0.003906c-2.4727 1.1367-5.3945 0.054687-6.5312-2.4141s-0.054687-5.3945 2.418-6.5273c1.3398-0.62109 33.309-14.945 64.738 2.8125h-0.003906c1.9453 1.1016 2.9023 3.375 2.332 5.5312-0.56641 2.1602-2.5195 3.668-4.75 3.668z"></path>
  <path d="m244.21 415.65c-0.59766 0-1.1914-0.10938-1.75-0.32422l-23.902-9.1406c-2.2617-1.1328-3.2969-3.8008-2.3867-6.1641 0.90625-2.3633 3.457-3.6484 5.8984-2.9766l19.305 7.3906 46.879-122.62-19.305-7.3789c-2.5-0.99609-3.7344-3.8164-2.7734-6.3281 0.95703-2.5156 3.7617-3.7891 6.2852-2.8633l23.902 9.1406c1.2188 0.46484 2.2031 1.3984 2.7344 2.5898 0.53125 1.1953 0.56641 2.5469 0.097656 3.7656l-50.391 131.75c-0.72656 1.9023-2.5547 3.1602-4.5938 3.1562z"></path>
  <path d="m215.32 416.82c-0.59766 0-1.1914-0.10938-1.75-0.32422l-52.391-20.043c-2.5078-0.96875-3.7773-3.7734-2.8438-6.2969l60.398-157.96c0.46875-1.2188 1.3984-2.2031 2.5938-2.7344 1.1914-0.53125 2.5469-0.56641 3.7656-0.097657l52.375 20.082c1.2227 0.46484 2.207 1.3984 2.7422 2.5898 0.53125 1.1914 0.57031 2.5469 0.10156 3.7656l-60.387 157.86c-0.72656 1.9102-2.5625 3.1719-4.6055 3.168zm-46.031-27.797 43.199 16.52 56.875-148.71-43.199-16.52z"></path>
  <path d="m557.72 415.65c-2.0352 0.003906-3.8633-1.2539-4.5938-3.1562l-50.391-131.75c-0.46875-1.2188-0.42969-2.5742 0.10547-3.7656 0.53125-1.1953 1.5156-2.125 2.7383-2.5898l23.891-9.1406c1.2227-0.48828 2.5938-0.46484 3.7969 0.0625 1.207 0.53125 2.1484 1.5195 2.6211 2.75 0.46875 1.2305 0.42578 2.5977-0.11719 3.7969-0.54688 1.1992-1.5508 2.1289-2.7852 2.582l-19.297 7.3789 46.879 122.57 19.293-7.3398c1.2227-0.48828 2.5938-0.46484 3.7969 0.066406 1.207 0.52734 2.1523 1.5156 2.6211 2.7461s0.42578 2.5977-0.11719 3.7969c-0.54687 1.1992-1.5508 2.1289-2.7852 2.582l-23.891 9.1406h-0.003906c-0.5625 0.19922-1.1602 0.29297-1.7617 0.27344z"></path>
  <path d="m586.61 416.82c-2.0391 0-3.8672-1.2617-4.5938-3.168l-60.387-157.9c-0.46875-1.2188-0.43359-2.5742 0.097657-3.7656 0.53125-1.1914 1.5156-2.125 2.7344-2.5898l52.387-20.035c1.2188-0.46875 2.5742-0.43359 3.7656 0.097657 1.1953 0.53125 2.125 1.5156 2.5938 2.7344l60.387 157.96c0.96875 2.5352-0.30078 5.3711-2.832 6.3438l-52.387 20.043-0.003906 0.003906c-0.5625 0.19531-1.1602 0.28906-1.7617 0.27344zm-54.039-159.99 56.887 148.71 43.199-16.52-56.891-148.71z"></path>
  <path d="m602.25 380.83c-2.0859-0.003906-3.9414-1.3203-4.6328-3.2891l-2.293-6.4961v0.003906c-0.4375-1.2305-0.36328-2.5859 0.19922-3.7617 0.5625-1.1797 1.5703-2.082 2.8008-2.5195 2.5625-0.90234 5.375 0.44141 6.2773 3.0039l2.293 6.4961v-0.003906c0.43359 1.2305 0.36328 2.5859-0.19922 3.7617-0.5625 1.1758-1.5703 2.082-2.8008 2.5156-0.52734 0.19141-1.082 0.28906-1.6445 0.28906z"></path>
  <path d="m199.47 380.83c-0.55859 0-1.1094-0.097656-1.6328-0.28906-2.543-0.92188-3.8633-3.7266-2.9531-6.2773l2.293-6.4961v0.003907c0.90625-2.5625 3.7148-3.9062 6.2773-3.0039 2.5625 0.90625 3.9062 3.7188 3 6.2812l-2.293 6.4961 0.003906-0.003906c-0.70312 1.9883-2.5898 3.3086-4.6953 3.2891z"></path>
  <path d="m400 217.44c-2.7188 0-4.9219-2.2031-4.9219-4.9219v-49.66c0-2.7188 2.2031-4.9219 4.9219-4.9219 2.7148 0 4.918 2.2031 4.918 4.9219v49.66c0 1.3047-0.51953 2.5586-1.4414 3.4805-0.92187 0.92188-2.1719 1.4414-3.4766 1.4414z"></path>
  <path d="m400 640.09c-2.7188 0-4.9219-2.2031-4.9219-4.918v-49.664c0-2.7148 2.2031-4.918 4.9219-4.918 2.7148 0 4.918 2.2031 4.918 4.918v49.664c0 1.3047-0.51953 2.5547-1.4414 3.4766-0.92187 0.92578-2.1719 1.4414-3.4766 1.4414z"></path>
  <path d="m566.99 570.93c-1.3047 0-2.5586-0.51953-3.4805-1.4453l-35.121-35.121c-0.94922-0.91406-1.4883-2.1758-1.5-3.4961-0.011719-1.3203 0.50781-2.5859 1.4414-3.5195 0.92969-0.93359 2.1992-1.4531 3.5195-1.4414 1.3203 0.011719 2.5781 0.55078 3.4961 1.5l35.121 35.121c1.4062 1.4062 1.832 3.5234 1.0703 5.3633-0.76172 1.8398-2.5547 3.0391-4.5469 3.0391z"></path>
  <path d="m233 570.93c-1.9922 0-3.7852-1.1992-4.5469-3.0391s-0.33594-3.957 1.0742-5.3633l35.117-35.117v-0.003906c0.91797-0.94922 2.1758-1.4883 3.4961-1.5 1.3203-0.011719 2.5898 0.50781 3.5234 1.4414 0.93359 0.93359 1.4492 2.1992 1.4414 3.5195-0.011719 1.3203-0.55469 2.582-1.5039 3.4961l-35.117 35.121c-0.92578 0.92578-2.1797 1.4453-3.4844 1.4453z"></path>
  <path d="m329.52 232.15c-2.0039-0.003907-3.8047-1.2148-4.5586-3.0703l-10.941-26.863c-0.52344-1.2148-0.53516-2.5898-0.03125-3.8125 0.5-1.2227 1.4727-2.1914 2.6953-2.6914 1.2266-0.49609 2.5977-0.48438 3.8125 0.042968 1.2109 0.52344 2.1602 1.5156 2.6367 2.75l10.941 26.863c0.62109 1.5195 0.44141 3.2422-0.47266 4.6055-0.91406 1.3594-2.4453 2.1758-4.082 2.1758z"></path>
  <path d="m481.47 605.07c-2-0.003906-3.8008-1.2188-4.5547-3.0703l-11.977-29.363c-0.96094-2.5 0.25781-5.3125 2.7383-6.3203 2.4805-1.0117 5.3164 0.14844 6.375 2.6094l11.965 29.363c0.49219 1.207 0.48828 2.5625-0.019531 3.7656-0.50391 1.2031-1.4688 2.1562-2.6758 2.6484-0.58594 0.24219-1.2148 0.36328-1.8516 0.36719z"></path>
  <path d="m198.28 486.19c-2.3242-0.019531-4.3203-1.6641-4.7812-3.9453-0.46094-2.2773 0.73828-4.5703 2.8711-5.4922l29.363-12.004c1.2148-0.52344 2.5898-0.53516 3.8125-0.035156 1.2227 0.50391 2.1914 1.4727 2.6914 2.6992 0.49609 1.2227 0.48438 2.5977-0.042969 3.8086-0.52344 1.2148-1.5156 2.1641-2.75 2.6406l-29.363 11.965c-0.57031 0.23047-1.1836 0.35547-1.8008 0.36328z"></path>
  <path d="m598.7 488.31c-0.65234 0-1.3008-0.13672-1.8984-0.39453l-29.227-12.301c-2.5039-1.0508-3.6797-3.9375-2.6289-6.4414 1.0547-2.5078 3.9414-3.6836 6.4453-2.6289l29.227 12.309c2.1641 0.91016 3.3828 3.2188 2.918 5.5156-0.46875 2.2969-2.4922 3.9492-4.8359 3.9414z"></path>
  <path d="m471.46 231.29c-0.65234 0-1.2969-0.12891-1.8984-0.38672-1.207-0.5-2.1641-1.4648-2.6602-2.6719-0.5-1.2109-0.49219-2.5664 0.011718-3.7734l11.246-26.715c0.47656-1.2461 1.4375-2.2461 2.6641-2.7734 1.2266-0.52344 2.6172-0.52734 3.8438-0.007812 1.2305 0.51562 2.1992 1.5117 2.6797 2.7578 0.48047 1.2422 0.4375 2.6289-0.125 3.8438l-11.227 26.715c-0.76563 1.8242-2.5547 3.0117-4.5352 3.0117z"></path>
  <path d="m314.39 604.54c-0.65234-0.003907-1.2969-0.13281-1.8984-0.38281-1.2031-0.50781-2.1562-1.4688-2.6484-2.6797-0.49609-1.207-0.48828-2.5625 0.019531-3.7656l12.301-29.227c1.0547-2.5039 3.9414-3.6797 6.4453-2.625 2.5039 1.0547 3.6797 3.9375 2.6289 6.4453l-12.309 29.227-0.003907-0.003906c-0.76953 1.8242-2.5547 3.0117-4.5352 3.0117z"></path>
 </g>

      </g>
      </svg>