<?xml version="1.0" standalone="no"?>
<!DOCTYPE svg PUBLIC "-//W3C//DTD SVG 20010904//EN"
 "http://www.w3.org/TR/2001/REC-SVG-20010904/DTD/svg10.dtd">
<svg version="1.0" xmlns="http://www.w3.org/2000/svg"
 width="512.000000pt" height="512.000000pt" viewBox="0 0 512.000000 512.000000"
 preserveAspectRatio="xMidYMid meet">

<g transform="translate(0.000000,512.000000) scale(0.100000,-0.100000)"
fill="#000000" stroke="none">
<path d="M1586 4654 c-34 -11 -64 -31 -102 -68 -88 -89 -84 -39 -84 -968 l0
-808 -372 0 c-370 0 -373 0 -423 -24 -27 -12 -69 -43 -92 -69 -76 -82 -73 -48
-73 -954 l0 -803 -114 0 c-62 0 -128 -5 -147 -12 -66 -22 -118 -68 -151 -135
-27 -55 -30 -70 -25 -121 8 -96 57 -170 142 -216 l40 -21 2345 -3 c1689 -2
2359 0 2397 8 36 8 65 23 98 52 67 59 89 108 89 193 0 78 -20 130 -73 182 -55
56 -94 68 -228 71 l-122 4 -3 821 c-3 917 2 853 -75 937 -21 24 -60 54 -88 66
-50 24 -50 24 -487 24 l-438 0 0 299 c0 287 -1 299 -21 325 -23 30 -72 35
-105 12 -18 -14 -19 -32 -24 -323 l-5 -308 -380 -5 c-209 -3 -389 -9 -400 -14
-11 -5 -39 -22 -61 -37 l-42 -29 -25 20 c-14 11 -45 29 -69 40 -41 18 -68 20
-480 20 l-438 0 0 803 c0 743 1 805 18 837 30 62 62 70 270 70 l182 0 0 -154
c0 -165 6 -195 48 -240 51 -54 63 -56 420 -56 320 0 329 1 372 23 30 14 53 36
67 62 21 37 23 53 23 203 l0 162 198 0 c222 0 249 -7 284 -71 16 -31 18 -64
18 -385 l0 -351 23 -21 c31 -29 72 -28 103 3 l25 25 -3 373 -3 372 -27 51
c-35 66 -98 120 -162 139 -75 22 -1747 21 -1820 -1z m1212 -281 l-3 -148 -310
0 -310 0 -3 148 -3 147 316 0 316 0 -3 -147z m-1738 -1865 c0 -181 12 -219 81
-265 l42 -28 318 -3 c341 -3 377 0 429 44 55 47 60 67 60 244 l0 161 214 -3
c197 -3 216 -5 236 -23 51 -45 50 -28 50 -880 l0 -795 -425 0 -426 0 -24 -25
c-30 -29 -32 -64 -6 -96 l19 -24 1641 -5 1641 -5 27 -28 c40 -39 40 -105 0
-144 l-27 -28 -2350 0 -2350 0 -27 28 c-40 39 -40 105 0 144 l27 28 570 5
c522 5 571 6 590 22 28 24 27 81 -2 108 -21 19 -33 20 -400 20 l-378 0 0 795
c0 877 -2 846 62 885 30 18 50 20 221 20 l187 0 0 -152z m780 7 l0 -145 -312
2 -313 3 -3 143 -3 142 316 0 315 0 0 -145z m1270 -10 c0 -133 3 -161 19 -193
49 -96 71 -101 441 -102 180 0 320 4 342 10 48 14 97 55 114 97 10 23 14 79
14 188 l0 155 204 0 c195 0 204 -1 237 -23 19 -13 39 -38 46 -57 9 -26 12
-241 12 -827 l1 -793 -950 0 -950 0 0 804 0 803 23 34 c37 55 53 59 260 59
l187 0 0 -155z m780 10 l0 -145 -315 0 -315 0 0 145 0 145 315 0 315 0 0 -145z"/>
</g>
</svg>
