<?xml version="1.0" encoding="UTF-8"?>
<svg xmlns="http://www.w3.org/2000/svg" xmlns:xlink="http://www.w3.org/1999/xlink" width="20px" height="20px" viewBox="0 0 20 20" version="1.1">
<g id="surface1">
<path style=" stroke:none;fill-rule:nonzero;fill:rgb(0%,0%,0%);fill-opacity:1;" d="M 17.894531 0 L 2.105469 0 C 0.941406 0 0 0.949219 0 2.105469 L 0 17.894531 C 0 19.058594 0.949219 20 2.105469 20 L 17.894531 20 C 19.058594 20 20 19.050781 20 17.894531 L 20 2.105469 C 20 0.949219 19.050781 0 17.894531 0 Z M 19 17.894531 C 19 18.5 18.5 19 17.894531 19 L 2.105469 19 C 1.5 19 1 18.5 1 17.894531 L 1 2.105469 C 1 1.5 1.5 1 2.105469 1 L 17.894531 1 C 18.5 1 19 1.5 19 2.105469 Z M 19 17.894531 "/>
<path style=" stroke:none;fill-rule:nonzero;fill:rgb(0%,0%,0%);fill-opacity:1;" d="M 13.777344 9.5 L 10.5 9.5 L 10.5 6.222656 C 10.5 5.945312 10.273438 5.71875 9.996094 5.71875 C 9.71875 5.71875 9.492188 5.945312 9.492188 6.222656 L 9.492188 9.5 L 6.214844 9.5 C 5.9375 9.5 5.710938 9.726562 5.710938 10 C 5.710938 10.277344 5.9375 10.503906 6.214844 10.503906 L 9.492188 10.503906 L 9.492188 13.78125 C 9.492188 14.058594 9.71875 14.285156 9.996094 14.285156 C 10.273438 14.285156 10.5 14.058594 10.5 13.78125 L 10.5 10.503906 L 13.777344 10.503906 C 14.054688 10.503906 14.28125 10.277344 14.28125 10 C 14.28125 9.722656 14.054688 9.5 13.777344 9.5 Z M 13.777344 9.5 "/>
</g>
</svg>
