<?xml version="1.0" encoding="UTF-8"?>
<svg xmlns="http://www.w3.org/2000/svg" xmlns:xlink="http://www.w3.org/1999/xlink" width="20px" height="20px" viewBox="0 0 20 19" version="1.1">
<g id="surface1">
<path style=" stroke:none;fill-rule:nonzero;fill:rgb(0%,0%,0%);fill-opacity:1;" d="M 19.414062 11.566406 C 19.125 11.566406 18.890625 11.792969 18.890625 12.066406 L 18.890625 16.496094 C 18.890625 17.320312 18.1875 17.988281 17.320312 17.992188 L 2.628906 17.992188 C 1.761719 17.988281 1.058594 17.320312 1.058594 16.496094 L 1.058594 3.5 C 1.058594 2.671875 1.761719 2.003906 2.628906 2.003906 L 7.277344 2.003906 C 7.566406 2.003906 7.800781 1.78125 7.800781 1.503906 C 7.800781 1.230469 7.566406 1.003906 7.277344 1.003906 L 2.628906 1.003906 C 1.183594 1.007812 0.015625 2.121094 0.0117188 3.5 L 0.0117188 16.496094 C 0.015625 17.871094 1.183594 18.988281 2.628906 18.988281 L 17.320312 18.988281 C 18.765625 18.988281 19.9375 17.871094 19.9375 16.496094 L 19.9375 12.066406 C 19.9375 11.792969 19.703125 11.566406 19.414062 11.566406 Z M 19.414062 11.566406 "/>
<path style=" stroke:none;fill-rule:nonzero;fill:rgb(0%,0%,0%);fill-opacity:1;" d="M 8.199219 8.945312 L 15.84375 1.660156 L 18.308594 4.011719 L 10.664062 11.292969 Z M 8.199219 8.945312 "/>
<path style=" stroke:none;fill-rule:nonzero;fill:rgb(0%,0%,0%);fill-opacity:1;" d="M 6.953125 12.480469 L 9.675781 11.761719 L 7.707031 9.886719 Z M 6.953125 12.480469 "/>
<path style=" stroke:none;fill-rule:nonzero;fill:rgb(0%,0%,0%);fill-opacity:1;" d="M 18.992188 0.429688 C 18.480469 -0.0585938 17.652344 -0.0585938 17.140625 0.429688 L 16.585938 0.957031 L 19.050781 3.304688 L 19.605469 2.777344 C 20.117188 2.289062 20.117188 1.5 19.605469 1.011719 Z M 18.992188 0.429688 "/>
</g>
</svg>
