<!-- icon666.com - MILLIONS OF FREE VECTOR ICONS --><svg enable-background="new 0 0 512 512" viewBox="0 0 512 512" xmlns="http://www.w3.org/2000/svg"><path d="m414.536 135.709c0-1.369-.601-2.587-1.557-3.422-77.719-78.084-72.933-73.913-75.028-74.344-.703-.131-172.781-.066-235.931-.084-2.494 0-4.51 2.016-4.51 4.509l-.056 387.262c0 2.466 1.988 4.51 4.509 4.51h308.072c2.493 0 4.509-2.016 4.509-4.51.001-371.896-.008-277.771-.008-313.921zm-15.375-4.519h-57.591v-57.89zm-235.922 72.854h31.509v184.603h-31.509zm31.51-9.028h-31.509v-17.006c0-3.44 2.822-6.244 6.295-6.244h18.924c3.469 0 6.291 2.803 6.291 6.244v17.006zm-1.885 202.659-13.73 38.606-13.973-38.606zm-7.299 47.447c19.233-54.122 17.977-50.4 18.117-51.132.136-.722.084-215.887.084-215.981 0-8.418-6.867-15.272-15.309-15.272h-18.924c-8.447 0-15.318 6.854-15.318 15.272v17.006h-19.81c-2.489 0-4.514 2.025-4.514 4.519v48.403c0 2.484 2.025 4.509 4.514 4.509s4.514-2.025 4.514-4.509v-43.894h15.295c.004 197.399-.141 189.524.267 190.659l18.262 50.419h-66.267l.052-378.244h226.022l-.01 68.822c0 2.494 2.025 4.519 4.519 4.519h68.438l.01 304.903h-219.942z"></path><path d="m235.276 218.659c0 2.484 2.021 4.51 4.51 4.51h129.703c2.493 0 4.509-2.025 4.509-4.51 0-2.494-2.016-4.519-4.509-4.519h-129.703c-2.489.001-4.51 2.026-4.51 4.519z"></path><path d="m369.489 240.888h-129.703c-2.489 0-4.51 2.016-4.51 4.509s2.021 4.509 4.51 4.509h129.703c2.493 0 4.509-2.016 4.509-4.509s-2.016-4.509-4.509-4.509z"></path><path d="m369.489 270.156h-129.703c-2.489 0-4.51 2.025-4.51 4.519 0 2.484 2.021 4.51 4.51 4.51h129.703c2.493 0 4.509-2.025 4.509-4.51 0-2.493-2.016-4.519-4.509-4.519z"></path><path d="m369.489 296.903h-129.703c-2.489 0-4.51 2.016-4.51 4.509 0 2.484 2.021 4.51 4.51 4.51h129.703c2.493 0 4.509-2.025 4.509-4.51 0-2.493-2.016-4.509-4.509-4.509z"></path><path d="m231.686 319.253h16.19v16.106h-16.19z"></path><path d="m264.133 319.271h16.19v16.106h-16.19z"></path><path d="m296.533 319.271h16.19v16.106h-16.19z"></path><path d="m328.989 319.253h16.19v16.106h-16.19z"></path><path d="m361.408 319.253h16.19v16.106h-16.19z"></path><path d="m142.516 99.156h154.018c2.493 0 4.509-2.025 4.509-4.509 0-2.494-2.016-4.519-4.509-4.519h-154.018c-2.489 0-4.514 2.025-4.514 4.519-.001 2.484 2.024 4.509 4.514 4.509z"></path><path d="m301.042 121.384c0-2.494-2.016-4.519-4.509-4.519h-154.017c-2.489 0-4.514 2.025-4.514 4.519 0 2.484 2.025 4.509 4.514 4.509h154.018c2.492.001 4.508-2.024 4.508-4.509z"></path></svg>