<svg xmlns="http://www.w3.org/2000/svg" xmlns:xlink="http://www.w3.org/1999/xlink" style="isolation:isolate" viewBox="0 0 986.1 163.7" width="150" height="40"><defs><clipPath id="_clipPath_8DdUxwFiL8lBYSqBNbOFkuXku65Xc84W"><rect width="986.1" height="163.7"></rect></clipPath></defs><g clip-path="url(#_clipPath_8DdUxwFiL8lBYSqBNbOFkuXku65Xc84W)"><g><clipPath id="_clipPath_3vog7RUdemJxPcpDuLuu44jynWYlGOzW"><path d=" M -60 -316 L 1036.067 -316 L 1036.067 477.707 L -60 477.707 L -60 -316 Z " fill="rgb(255,255,255)"></path></clipPath><g clip-path="url(#_clipPath_3vog7RUdemJxPcpDuLuu44jynWYlGOzW)"><g><g><path d=" M 229.35 58.044 L 229.35 84.008 C 229.35 87.564 228.673 90.926 227.322 94.093 C 225.969 97.264 224.094 100.044 221.7 102.438 C 219.304 104.834 216.542 106.71 213.412 108.061 C 210.282 109.414 206.901 110.089 203.269 110.089 C 199.714 110.089 196.353 109.414 193.185 108.061 C 190.016 106.71 187.254 104.834 184.897 102.438 C 182.54 100.044 180.684 97.264 179.333 94.093 C 177.981 90.926 177.305 87.564 177.305 84.008 L 177.305 58.044 L 187.621 58.044 L 187.621 84.008 C 187.621 86.173 188.026 88.221 188.838 90.153 C 189.65 92.085 190.769 93.766 192.2 95.194 C 193.629 96.625 195.289 97.745 197.184 98.556 C 199.077 99.368 201.105 99.773 203.269 99.773 C 205.433 99.773 207.481 99.368 209.413 98.556 C 211.344 97.745 213.025 96.625 214.456 95.194 C 215.884 93.766 217.005 92.085 217.817 90.153 C 218.628 88.221 219.034 86.173 219.034 84.008 L 219.034 58.044 L 229.35 58.044 Z " fill="rgb(1,1,1)"></path></g><g><path d=" M 264.588 98.788 C 266.519 97.977 268.2 96.857 269.631 95.426 C 271.06 93.997 272.18 92.316 272.992 90.384 C 273.804 88.453 274.209 86.405 274.209 84.241 C 274.209 82.077 273.804 80.049 272.992 78.154 C 272.18 76.262 271.06 74.601 269.631 73.17 C 268.2 71.741 266.519 70.621 264.588 69.809 C 262.656 68.997 260.608 68.592 258.445 68.592 C 256.281 68.592 254.252 68.997 252.36 69.809 C 250.464 70.621 248.804 71.741 247.375 73.17 C 245.944 74.601 244.825 76.262 244.013 78.154 C 243.201 80.049 242.796 82.077 242.796 84.241 L 242.796 100.004 L 258.445 100.004 C 260.608 100.004 262.656 99.598 264.588 98.788 Z  M 258.445 58.276 C 262.076 58.276 265.457 58.953 268.588 60.304 C 271.717 61.657 274.479 63.51 276.875 65.868 C 279.269 68.226 281.144 70.968 282.497 74.098 C 283.848 77.228 284.525 80.609 284.525 84.241 C 284.525 87.796 283.848 91.156 282.497 94.325 C 281.144 97.494 279.269 100.276 276.875 102.67 C 274.479 105.066 271.717 106.941 268.588 108.293 C 265.457 109.646 262.076 110.321 258.445 110.321 L 242.796 110.321 L 242.796 131.185 L 232.48 131.185 L 232.48 84.241 C 232.48 80.609 233.156 77.228 234.508 74.098 C 235.86 70.968 237.715 68.226 240.072 65.868 C 242.429 63.51 245.191 61.657 248.36 60.304 C 251.528 58.953 254.889 58.276 258.445 58.276 Z " fill="rgb(1,1,1)"></path></g><g><path d=" M 329.499 99.773 L 329.499 84.008 C 329.499 81.847 329.093 79.817 328.281 77.923 C 327.471 76.029 326.349 74.369 324.92 72.939 C 323.489 71.509 321.828 70.388 319.936 69.577 C 318.041 68.765 316.013 68.36 313.851 68.36 C 311.687 68.36 309.637 68.765 307.707 69.577 C 305.775 70.388 304.093 71.509 302.665 72.939 C 301.233 74.369 300.115 76.029 299.303 77.923 C 298.492 79.817 298.085 81.847 298.085 84.008 C 298.085 86.173 298.492 88.221 299.303 90.152 C 300.115 92.084 301.233 93.765 302.665 95.193 C 304.093 96.625 305.775 97.745 307.707 98.556 C 309.637 99.367 311.687 99.773 313.851 99.773 L 329.499 99.773 Z  M 313.851 58.044 C 317.481 58.044 320.863 58.721 323.993 60.072 C 327.123 61.425 329.864 63.28 332.223 65.636 C 334.58 67.995 336.433 70.736 337.787 73.865 C 339.137 76.996 339.815 80.377 339.815 84.008 L 339.815 110.088 L 313.851 110.088 C 310.295 110.088 306.933 109.413 303.765 108.061 C 300.596 106.709 297.815 104.835 295.42 102.439 C 293.024 100.044 291.149 97.263 289.799 94.092 C 288.445 90.925 287.769 87.564 287.769 84.008 C 287.769 80.377 288.445 76.996 289.799 73.865 C 291.149 70.736 293.024 67.995 295.42 65.636 C 297.815 63.28 300.596 61.425 303.765 60.072 C 306.933 58.721 310.295 58.044 313.851 58.044 Z " fill="rgb(1,1,1)"></path></g><g><path d=" M 392.035 75.025 C 390.14 78.619 387.572 81.613 384.325 84.008 C 387.572 86.405 390.14 89.417 392.035 93.049 C 393.927 96.684 394.875 100.624 394.875 104.873 L 394.875 110.088 L 384.559 110.088 L 384.559 104.873 C 384.559 102.711 384.152 100.683 383.34 98.788 C 382.529 96.895 381.408 95.235 379.979 93.803 C 378.548 92.373 376.888 91.252 374.995 90.441 C 373.1 89.631 371.072 89.225 368.909 89.225 C 366.745 89.225 364.697 89.631 362.765 90.441 C 360.833 91.252 359.152 92.373 357.724 93.803 C 356.293 95.235 355.173 96.895 354.363 98.788 C 353.551 100.683 353.145 102.711 353.145 104.873 L 353.145 110.088 L 342.829 110.088 L 342.829 104.873 L 342.829 37.179 L 353.145 37.179 L 353.145 84.241 C 355.385 82.541 357.84 81.227 360.507 80.3 C 363.172 79.372 365.972 78.908 368.909 78.908 C 371.072 78.908 373.1 78.503 374.995 77.692 C 376.888 76.88 378.548 75.76 379.979 74.329 C 381.408 72.9 382.529 71.22 383.34 69.288 C 384.152 67.357 384.559 65.308 384.559 63.144 L 384.559 58.044 L 394.875 58.044 L 394.875 63.144 C 394.875 67.472 393.927 71.432 392.035 75.025 Z " fill="rgb(1,1,1)"></path></g><g><path d=" M 408.551 84.241 C 408.551 86.405 408.956 88.453 409.768 90.384 C 410.579 92.317 411.699 93.997 413.129 95.426 C 414.557 96.857 416.239 97.977 418.172 98.788 C 420.103 99.6 422.151 100.004 424.315 100.004 C 426.477 100.004 428.525 99.6 430.459 98.788 C 432.389 97.977 434.069 96.857 435.5 95.426 C 436.929 93.997 438.051 92.317 438.861 90.384 C 439.673 88.453 440.079 86.405 440.079 84.241 C 440.079 82.077 439.673 80.049 438.861 78.156 C 438.051 76.262 436.929 74.602 435.5 73.17 C 434.069 71.741 432.389 70.621 430.459 69.809 C 428.525 68.997 426.477 68.592 424.315 68.592 C 422.151 68.592 420.103 68.997 418.172 69.809 C 416.239 70.621 414.557 71.741 413.129 73.17 C 411.699 74.602 410.579 76.262 409.768 78.156 C 408.956 80.049 408.551 82.077 408.551 84.241 Z  M 398.351 84.241 C 398.351 80.609 399.025 77.228 400.379 74.098 C 401.729 70.968 403.584 68.226 405.943 65.868 C 408.299 63.512 411.061 61.657 414.231 60.304 C 417.399 58.953 420.759 58.276 424.315 58.276 C 427.945 58.276 431.328 58.953 434.457 60.304 C 437.587 61.657 440.349 63.512 442.745 65.868 C 445.139 68.226 447.015 70.968 448.367 74.098 C 449.719 77.228 450.396 80.609 450.396 84.241 C 450.396 87.796 449.719 91.157 448.367 94.325 C 447.015 97.494 445.139 100.276 442.745 102.67 C 440.349 105.066 437.587 106.941 434.457 108.293 C 431.328 109.646 427.945 110.322 424.315 110.322 C 420.759 110.322 417.399 109.646 414.231 108.293 C 411.061 106.941 408.299 105.066 405.943 102.67 C 403.584 100.276 401.729 97.494 400.379 94.325 C 399.025 91.157 398.351 87.796 398.351 84.241 Z " fill="rgb(1,1,1)"></path></g><g><path d=" M 508.234 57.812 L 481.112 109.975 L 454.102 57.812 L 465.694 57.812 C 466.776 59.899 468.013 62.275 469.404 64.941 C 470.794 67.607 472.186 70.312 473.577 73.055 C 474.968 75.799 476.34 78.445 477.692 80.995 C 479.042 83.544 480.184 85.748 481.112 87.601 C 482.27 85.361 483.604 82.792 485.11 79.895 C 486.618 76.996 488.104 74.117 489.573 71.257 C 491.04 68.4 492.393 65.752 493.63 63.317 C 494.866 60.884 495.832 59.049 496.529 57.812 L 508.234 57.812 Z " fill="rgb(1,1,1)"></path></g><g><path d=" M 560.569 75.025 C 558.674 78.619 556.106 81.613 552.861 84.008 C 556.106 86.405 558.674 89.417 560.569 93.049 C 562.461 96.684 563.409 100.624 563.409 104.873 L 563.409 110.088 L 553.093 110.088 L 553.093 104.873 C 553.093 102.711 552.686 100.683 551.874 98.788 C 551.064 96.895 549.942 95.235 548.514 93.803 C 547.082 92.373 545.424 91.252 543.53 90.441 C 541.636 89.631 539.606 89.225 537.444 89.225 C 535.278 89.225 533.23 89.631 531.301 90.441 C 529.368 91.252 527.688 92.373 526.258 93.803 C 524.828 95.235 523.708 96.895 522.897 98.788 C 522.086 100.683 521.68 102.711 521.68 104.873 L 521.68 110.088 L 511.364 110.088 L 511.364 104.873 L 511.364 37.179 L 521.68 37.179 L 521.68 84.241 C 523.921 82.541 526.374 81.227 529.041 80.3 C 531.706 79.372 534.505 78.908 537.444 78.908 C 539.606 78.908 541.636 78.503 543.53 77.692 C 545.424 76.88 547.082 75.76 548.514 74.329 C 549.942 72.9 551.064 71.22 551.874 69.288 C 552.686 67.357 553.093 65.308 553.093 63.144 L 553.093 58.044 L 563.409 58.044 L 563.409 63.144 C 563.409 67.472 562.461 71.432 560.569 75.025 Z " fill="rgb(1,1,1)"></path></g><g><path d=" M 608.499 99.773 L 608.499 84.008 C 608.499 81.847 608.092 79.817 607.283 77.923 C 606.471 76.029 605.349 74.369 603.92 72.939 C 602.489 71.509 600.828 70.388 598.936 69.577 C 597.041 68.765 595.012 68.36 592.851 68.36 C 590.687 68.36 588.637 68.765 586.707 69.577 C 584.775 70.388 583.093 71.509 581.664 72.939 C 580.233 74.369 579.115 76.029 578.303 77.923 C 577.492 79.817 577.085 81.847 577.085 84.008 C 577.085 86.173 577.492 88.221 578.303 90.152 C 579.115 92.084 580.233 93.765 581.664 95.193 C 583.093 96.625 584.775 97.745 586.707 98.556 C 588.637 99.367 590.687 99.773 592.851 99.773 L 608.499 99.773 Z  M 592.851 58.044 C 596.481 58.044 599.863 58.721 602.993 60.072 C 606.123 61.425 608.864 63.28 611.223 65.636 C 613.579 67.995 615.433 70.736 616.787 73.865 C 618.137 76.996 618.815 80.377 618.815 84.008 L 618.815 110.088 L 592.851 110.088 C 589.296 110.088 585.933 109.413 582.765 108.061 C 579.596 106.709 576.813 104.835 574.419 102.439 C 572.024 100.044 570.149 97.263 568.799 94.092 C 567.445 90.925 566.769 87.564 566.769 84.008 C 566.769 80.377 567.445 76.996 568.799 73.865 C 570.149 70.736 572.024 67.995 574.419 65.636 C 576.813 63.28 579.596 61.425 582.765 60.072 C 585.933 58.721 589.296 58.044 592.851 58.044 Z " fill="rgb(1,1,1)"></path></g><g><path d=" M 769.887 65.838 C 772.437 63.287 775.315 61.375 778.523 60.101 C 781.728 58.825 784.993 58.187 788.317 58.187 C 791.639 58.187 794.904 58.825 798.112 60.101 C 801.317 61.375 804.197 63.287 806.748 65.838 L 810.341 69.431 L 803.155 76.734 L 799.445 73.141 C 797.899 71.595 796.159 70.437 794.229 69.663 C 792.296 68.891 790.325 68.505 788.317 68.505 C 786.305 68.505 784.336 68.891 782.407 69.663 C 780.472 70.437 778.735 71.595 777.189 73.141 C 775.641 74.609 774.483 76.31 773.712 78.241 C 772.939 80.173 772.552 82.143 772.552 84.153 C 772.552 86.163 772.939 88.133 773.712 90.063 C 774.483 91.997 775.641 93.734 777.189 95.281 C 780.279 98.371 783.988 99.917 788.317 99.917 C 790.404 99.917 792.413 99.53 794.344 98.757 C 796.275 97.986 797.975 96.827 799.445 95.281 L 803.155 91.686 L 810.341 98.99 L 806.748 102.582 C 804.197 105.133 801.317 107.046 798.112 108.321 C 794.904 109.595 791.639 110.233 788.317 110.233 C 784.993 110.233 781.728 109.595 778.523 108.321 C 775.315 107.046 772.437 105.133 769.887 102.582 C 767.336 100.033 765.441 97.174 764.207 94.005 C 762.971 90.838 762.352 87.571 762.352 84.21 C 762.352 80.849 762.971 77.585 764.207 74.415 C 765.441 71.249 767.336 68.387 769.887 65.838 Z " fill="rgb(1,1,1)"></path></g><g><path d=" M 824.598 84.384 C 824.598 86.548 825.004 88.596 825.814 90.527 C 826.626 92.46 827.744 94.14 829.176 95.569 C 830.604 97 832.286 98.12 834.219 98.931 C 836.148 99.743 838.196 100.148 840.36 100.148 C 842.523 100.148 844.572 99.743 846.506 98.931 C 848.435 98.12 850.116 97 851.547 95.569 C 852.976 94.14 854.098 92.46 854.908 90.527 C 855.72 88.596 856.126 86.548 856.126 84.384 C 856.126 82.221 855.72 80.192 854.908 78.299 C 854.098 76.405 852.976 74.745 851.547 73.315 C 850.116 71.885 848.435 70.764 846.506 69.952 C 844.572 69.141 842.523 68.735 840.36 68.735 C 838.196 68.735 836.148 69.141 834.219 69.952 C 832.286 70.764 830.604 71.885 829.176 73.315 C 827.744 74.745 826.626 76.405 825.814 78.299 C 825.004 80.192 824.598 82.221 824.598 84.384 Z  M 814.398 84.384 C 814.398 80.752 815.071 77.371 816.426 74.241 C 817.776 71.112 819.63 68.369 821.99 66.012 C 824.346 63.656 827.108 61.801 830.278 60.447 C 833.446 59.096 836.807 58.419 840.36 58.419 C 843.994 58.419 847.375 59.096 850.504 60.447 C 853.634 61.801 856.396 63.656 858.792 66.012 C 861.186 68.369 863.06 71.112 864.412 74.241 C 865.766 77.371 866.442 80.752 866.442 84.384 C 866.442 87.939 865.766 91.3 864.412 94.468 C 863.06 97.637 861.186 100.419 858.792 102.813 C 856.396 105.211 853.634 107.084 850.504 108.436 C 847.375 109.789 843.994 110.465 840.36 110.465 C 836.807 110.465 833.446 109.789 830.278 108.436 C 827.108 107.084 824.346 105.211 821.99 102.813 C 819.63 100.419 817.776 97.637 816.426 94.468 C 815.071 91.3 814.398 87.939 814.398 84.384 Z " fill="rgb(1,1,1)"></path></g><g><path d=" M 937.496 58.187 C 941.128 58.187 944.509 58.865 947.639 60.215 C 950.768 61.569 953.529 63.423 955.927 65.779 C 958.321 68.138 960.195 70.879 961.548 74.009 C 962.9 77.138 963.577 80.521 963.577 84.153 L 963.577 110.233 L 953.261 110.233 L 953.261 84.153 C 953.261 81.99 952.856 79.961 952.044 78.066 C 951.233 76.174 950.112 74.513 948.683 73.082 C 947.251 71.653 945.571 70.531 943.64 69.721 C 941.707 68.909 939.659 68.503 937.496 68.503 C 935.332 68.503 933.304 68.909 931.412 69.721 C 929.517 70.531 927.856 71.653 926.427 73.082 C 924.996 74.513 923.876 76.174 923.065 78.066 C 922.253 79.961 921.849 81.99 921.849 84.153 L 921.849 110.233 L 911.532 110.233 L 911.532 84.153 C 911.532 81.99 911.127 79.961 910.315 78.066 C 909.504 76.174 908.383 74.513 906.955 73.082 C 905.523 71.653 903.843 70.531 901.912 69.721 C 899.979 68.909 897.929 68.503 895.768 68.503 C 893.604 68.503 891.576 68.909 889.683 69.721 C 887.788 70.531 886.127 71.653 884.697 73.082 C 883.267 74.513 882.148 76.174 881.336 78.066 C 880.525 79.961 880.12 81.99 880.12 84.153 L 880.12 110.233 L 869.803 110.233 L 869.803 84.153 C 869.803 80.521 870.479 77.138 871.832 74.009 C 873.183 70.879 875.037 68.138 877.396 65.779 C 879.752 63.423 882.513 61.569 885.684 60.215 C 888.851 58.865 892.212 58.187 895.768 58.187 C 900.095 58.187 904.055 59.134 907.649 61.027 C 911.243 62.922 914.236 65.49 916.632 68.735 C 919.027 65.49 922.04 62.922 925.673 61.027 C 929.304 59.134 933.245 58.187 937.496 58.187 Z " fill="rgb(1,1,1)"></path></g><g><path d=" M 640.634 100.727 L 668.082 100.727 L 668.082 110.349 L 618.841 110.349 L 655.574 71.296 C 658.329 68.277 659.706 64.956 659.706 61.335 C 659.706 57.071 658.253 53.373 655.347 50.24 C 652.441 47.109 649.027 45.543 645.103 45.543 C 641.858 45.543 638.811 46.581 635.963 48.656 C 633.113 50.732 631.255 53.94 630.386 58.279 L 620.879 58.279 C 621.822 51.184 624.623 45.665 629.283 41.723 C 633.943 37.78 639.423 35.808 645.726 35.808 C 652.027 35.808 657.517 38.291 662.197 43.255 C 666.874 48.219 669.214 54.097 669.214 60.893 C 669.214 64.177 668.621 67.188 667.437 69.924 C 666.25 72.661 664.151 75.635 661.141 78.843 L 640.634 100.727 Z " fill="rgb(190,24,35)"></path></g><g><path d=" M 718.229 58.984 L 695.331 87.766 L 718.456 87.766 L 718.456 58.984 L 718.229 58.984 Z  M 727.285 36.035 L 727.285 87.766 L 734.247 87.766 L 734.247 96.199 L 727.285 96.199 L 727.285 110.348 L 718.456 110.348 L 718.456 96.199 L 678.044 96.199 L 727.285 36.035 Z " fill="rgb(190,24,35)"></path></g><g><path d=" M 741.306 103.725 C 741.306 101.651 742.05 99.859 743.541 98.349 C 745.031 96.84 746.833 96.085 748.945 96.085 C 751.021 96.085 752.814 96.84 754.323 98.349 C 755.833 99.859 756.587 101.651 756.587 103.725 C 756.587 105.839 755.842 107.641 754.351 109.131 C 752.861 110.621 751.059 111.365 748.945 111.365 C 746.833 111.365 745.031 110.631 743.541 109.159 C 742.05 107.688 741.306 105.876 741.306 103.725 Z " fill="rgb(1,1,1)"></path></g><g><path d=" M 49.105 27.818 L 38.043 27.818 L 38.043 23.29 L 49.105 23.29 L 47.521 25.553 L 49.105 27.818 Z  M 69.349 11.534 L 21.738 11.534 C 16.593 11.534 12.422 15.705 12.422 20.849 L 12.422 68.46 C 12.422 73.605 16.593 77.776 21.738 77.776 L 58.525 77.776 C 63.142 74.669 60.213 72.713 54.082 64.553 L 33.122 64.553 L 33.122 39.894 L 38.054 34.384 L 38.054 29.414 L 49.151 29.414 L 49.151 34.346 L 54.082 39.896 L 54.082 64.553 C 61.13 66.024 68.887 69.464 76.799 74.033 C 77.966 72.477 78.663 70.553 78.663 68.46 L 78.663 20.849 C 78.663 15.705 74.493 11.534 69.349 11.534 Z " fill="rgb(1,2,2)"></path></g><g><path d=" M 142.834 11.535 L 95.223 11.535 C 90.079 11.535 85.909 15.704 85.909 20.849 L 85.909 68.46 C 85.909 73.605 90.079 77.776 95.223 77.776 L 118.054 77.776 C 117.938 69.727 119.711 64.553 119.711 64.553 L 116.817 64.553 L 116.103 64.553 L 116.103 60.928 L 113.138 50.96 L 113.138 38.529 L 115.997 38.529 L 115.997 32.169 C 110.822 33.025 108.565 27.883 111.423 24.739 C 119.711 20.165 131.715 27.883 131.715 27.883 L 130.571 29.883 C 123.998 27.883 119.978 32.323 119.978 32.323 L 119.978 38.629 L 123.139 38.629 L 123.139 51.032 L 119.711 61.036 L 119.711 64.553 C 119.711 64.553 119.874 77.776 131.715 77.776 L 142.834 77.776 C 147.978 77.776 152.149 73.605 152.149 68.46 L 152.149 20.849 C 152.149 15.704 147.978 11.535 142.834 11.535 Z " fill="rgb(1,2,2)"></path></g><g><path d=" M 24.844 109.57 C 45.15 116.314 64.698 109.57 64.698 109.57 L 64.698 128.589 C 64.698 128.589 44.315 134.277 24.844 128.589 L 24.844 109.57 Z  M 44.658 102.904 C 55.663 102.904 64.584 104.397 64.584 106.237 C 64.584 108.078 55.663 109.57 44.658 109.57 C 33.652 109.57 24.731 108.078 24.731 106.237 C 24.731 104.397 33.652 102.904 44.658 102.904 Z  M 78.664 136.698 C 78.535 133.562 73.707 130.6 64.584 131.176 C 64.584 131.176 55.714 136.698 44.771 136.698 C 33.83 136.698 24.958 131.236 24.958 131.236 C 24.958 131.236 33.83 134.569 44.771 134.569 C 55.714 134.569 64.584 131.176 64.584 131.176 C 66.83 128.513 72.07 126.608 78.792 125.25 L 78.792 94.208 C 78.792 89.061 74.62 84.89 69.478 84.89 L 21.867 84.89 C 16.722 84.89 12.551 89.061 12.551 94.208 L 12.551 141.817 C 12.551 146.961 16.722 151.132 21.867 151.132 L 69.478 151.132 C 74.62 151.132 78.792 146.961 78.792 141.817 L 78.792 136.546 C 78.751 136.598 78.706 136.648 78.664 136.698 Z " fill="rgb(1,2,2)"></path></g><g><path d=" M 133.557 119.595 C 134.16 119.015 134.841 118.519 135.588 118.124 C 124.461 106.295 120.057 94.436 118.632 84.891 L 95.224 84.891 C 94.641 84.891 94.073 84.952 93.521 85.054 C 109.292 96.595 124.124 110.344 133.557 119.595 Z " fill="rgb(190,24,35)"></path></g><g><path d=" M 142.834 84.891 L 127.701 84.891 C 125.159 95.541 132.497 110.189 136.83 117.592 C 137.75 117.273 138.734 117.091 139.762 117.091 C 144.713 117.091 148.726 121.104 148.726 126.055 C 148.726 131.005 144.713 135.019 139.762 135.019 C 134.811 135.019 130.798 131.005 130.798 126.055 C 130.798 124.861 131.037 123.723 131.461 122.68 C 106.597 124.123 93.327 127.433 85.909 131.191 L 85.909 141.816 C 85.909 146.961 90.079 151.132 95.223 151.132 L 142.834 151.132 C 147.978 151.132 152.149 146.961 152.149 141.816 L 152.149 94.207 C 152.149 89.061 147.978 84.891 142.834 84.891 Z " fill="rgb(190,24,35)"></path></g><g><path d=" M 131.734 122.086 C 131.942 121.666 132.18 121.262 132.45 120.882 C 116.736 108.926 99.996 98.827 86.343 91.393 C 86.063 92.281 85.908 93.225 85.908 94.207 L 85.908 124.074 C 101.362 121.993 120.951 121.923 131.734 122.086 Z " fill="rgb(190,24,35)"></path></g></g></g></g></g></svg>