<svg xmlns="http://www.w3.org/2000/svg" width="150" height="40" viewBox="0 0 280 38" fill="none"><path d="M56.547 28.3762L48.8744 7.75056H52.2585L58.7058 25.7506L65.124 7.75056H68.4498L60.8355 28.3762H56.547ZM70.6476 28.3762V7.75056H73.74V28.3762H70.6476ZM82.4763 28.3762V10.5804H75.9415V7.75056H92.0744V10.5804H85.5687V28.3762H82.4763ZM90.5111 28.3762L98.3004 7.75056H102.297L110.057 28.3762H106.732L105.215 24.2336H95.3539L93.8369 28.3762H90.5111ZM96.375 21.4621H104.193L100.284 10.6971L96.375 21.4621ZM112.088 28.3762V7.75056H119.527C121.063 7.75056 122.386 7.99367 123.494 8.4799C124.623 8.96612 125.488 9.72463 126.091 10.7554C126.694 11.7668 126.995 13.0796 126.995 14.6939C126.995 16.2498 126.645 17.5529 125.945 18.6031C125.264 19.6533 124.331 20.4508 123.144 20.9953C121.958 21.5204 120.606 21.783 119.089 21.783H115.18V28.3762H112.088ZM115.18 18.9824H118.973C120.451 18.9824 121.637 18.642 122.532 17.9613C123.426 17.2611 123.874 16.1428 123.874 14.6063C123.874 13.2644 123.504 12.2627 122.765 11.6015C122.026 10.9207 120.908 10.5804 119.41 10.5804H115.18V18.9824ZM130.108 28.3762V7.75056H133.2V25.5464H144.228V28.3762H130.108ZM144.828 28.3762L152.618 7.75056H156.615L164.375 28.3762H161.049L159.532 24.2336H149.671L148.154 28.3762H144.828ZM150.692 21.4621H158.511L154.602 10.6971L150.692 21.4621ZM173.448 28.6096C172.106 28.6096 170.842 28.4151 169.656 28.0261C168.469 27.6372 167.468 27.0051 166.651 26.1299C165.834 25.2547 165.289 24.0974 165.017 22.6582H168.197C168.45 23.4751 168.858 24.1169 169.422 24.5837C169.986 25.031 170.638 25.3422 171.377 25.5172C172.135 25.6923 172.894 25.7798 173.652 25.7798C174.372 25.7798 175.043 25.6825 175.665 25.488C176.307 25.2936 176.832 24.9726 177.241 24.5253C177.649 24.078 177.853 23.4945 177.853 22.7749C177.853 22.2303 177.746 21.783 177.532 21.4329C177.319 21.0828 177.017 20.8008 176.628 20.5869C176.259 20.3535 175.811 20.1687 175.286 20.0326C174.683 19.8381 174.032 19.6728 173.331 19.5367C172.651 19.4005 171.97 19.2449 171.289 19.0699C170.628 18.8948 170.006 18.6712 169.422 18.3989C168.936 18.2044 168.459 17.971 167.993 17.6987C167.545 17.407 167.156 17.0666 166.826 16.6776C166.495 16.2692 166.223 15.7927 166.009 15.2481C165.814 14.7036 165.717 14.0812 165.717 13.381C165.717 12.4475 165.863 11.6501 166.155 10.9888C166.466 10.3276 166.865 9.77326 167.351 9.32593C167.857 8.8786 168.43 8.52852 169.072 8.27568C169.733 8.0034 170.424 7.80891 171.143 7.69221C171.863 7.57552 172.563 7.51717 173.244 7.51717C174.489 7.51717 175.636 7.71166 176.686 8.10064C177.737 8.48962 178.602 9.11199 179.283 9.96775C179.983 10.8041 180.362 11.9126 180.421 13.2935H177.416C177.338 12.5545 177.085 11.971 176.657 11.5431C176.249 11.0958 175.733 10.7846 175.111 10.6096C174.489 10.4151 173.827 10.3178 173.127 10.3178C172.622 10.3178 172.116 10.3665 171.61 10.4637C171.105 10.5415 170.638 10.6971 170.21 10.9305C169.801 11.1444 169.471 11.4361 169.218 11.8057C168.985 12.1752 168.868 12.6323 168.868 13.1768C168.868 13.6436 168.965 14.0618 169.16 14.4313C169.354 14.7814 169.626 15.0828 169.977 15.3357C170.346 15.5691 170.754 15.7733 171.202 15.9483C172.019 16.2595 172.913 16.5026 173.886 16.6776C174.858 16.8332 175.772 17.0569 176.628 17.3486C177.25 17.5431 177.834 17.7862 178.378 18.078C178.923 18.3503 179.39 18.6906 179.779 19.099C180.168 19.488 180.469 19.9548 180.683 20.4994C180.897 21.0245 181.004 21.6371 181.004 22.3373C181.004 23.4848 180.8 24.467 180.391 25.2838C179.983 26.0812 179.429 26.7231 178.729 27.2093C178.028 27.6955 177.221 28.0553 176.307 28.2887C175.393 28.5026 174.44 28.6096 173.448 28.6096ZM188.604 28.3762V10.5804H182.069V7.75056H198.202V10.5804H191.696V28.3762H188.604Z" fill="#015ABF"></path><path d="M207.845 28.3762V7.75056H215.284C216.821 7.75056 218.143 7.99367 219.252 8.4799C220.38 8.96612 221.245 9.72463 221.848 10.7554C222.451 11.7668 222.753 13.0796 222.753 14.6939C222.753 16.2498 222.403 17.5529 221.702 18.6031C221.022 19.6533 220.088 20.4508 218.902 20.9953C217.715 21.5204 216.364 21.783 214.847 21.783H210.937V28.3762H207.845ZM210.937 18.9824H214.73C216.208 18.9824 217.395 18.642 218.289 17.9613C219.184 17.2611 219.631 16.1428 219.631 14.6063C219.631 13.2644 219.262 12.2627 218.523 11.6015C217.783 10.9207 216.665 10.5804 215.168 10.5804H210.937V18.9824ZM222.138 28.3762L229.928 7.75056H233.924L241.684 28.3762H238.359L236.842 24.2336H226.981L225.464 28.3762H222.138ZM228.002 21.4621H235.821L231.911 10.6971L228.002 21.4621ZM251.691 28.6096C249.572 28.6096 247.792 28.1623 246.353 27.2676C244.933 26.373 243.863 25.138 243.144 23.5626C242.424 21.9872 242.064 20.1687 242.064 18.1072C242.064 16.0456 242.424 14.2174 243.144 12.6225C243.883 11.0277 244.962 9.78298 246.382 8.88833C247.821 7.97422 249.601 7.51717 251.721 7.51717C253.257 7.51717 254.599 7.77001 255.747 8.27568C256.894 8.76191 257.818 9.46207 258.518 10.3762C259.238 11.2708 259.714 12.3405 259.948 13.5853H256.914C256.622 12.5934 256.029 11.8057 255.134 11.2222C254.239 10.6387 253.092 10.347 251.691 10.347C250.136 10.347 248.881 10.7068 247.928 11.4264C246.995 12.146 246.314 13.0893 245.886 14.2562C245.458 15.4037 245.244 16.6485 245.244 17.9905C245.244 19.3713 245.468 20.655 245.915 21.8414C246.362 23.0277 247.072 23.9807 248.045 24.7004C249.017 25.42 250.262 25.7798 251.779 25.7798C252.713 25.7798 253.539 25.6534 254.259 25.4005C254.978 25.1282 255.581 24.749 256.067 24.2628C256.554 23.7571 256.884 23.1736 257.059 22.5123H260.298C260.045 23.7765 259.529 24.8657 258.751 25.7798C257.973 26.6939 256.991 27.394 255.805 27.8803C254.619 28.3665 253.247 28.6096 251.691 28.6096ZM263.245 28.3762V7.75056H266.337V16.9402H269.313L275.615 7.75056H279.145L271.997 17.9029L279.174 28.3762H275.556L269.547 19.77H266.337V28.3762H263.245Z" fill="#272727"></path><path d="M20.8169 1.12134L7.41425 24.4987H12.262L20.8169 9.57098L34.2196 31.54H1.99615L0 35.7649H41.3487L20.8169 1.12134Z" fill="#015ABF"></path></svg>